<?xml version="1.0" encoding="UTF-8"?>
<svg version="1.1" xmlns="http://www.w3.org/2000/svg" viewBox="256 53 725 713" width="725" height="713">
<path d="M0 0 C1.16772949 -0.00095673 2.33545898 -0.00191345 3.53857422 -0.00289917 C6.00276748 -0.00357709 8.46696256 -0.00174994 10.93115234 0.00244141 C14.64815428 0.00775624 18.36503323 0.00250322 22.08203125 -0.00390625 C39.13159011 -0.01069759 55.89820335 0.0037489 72.6875 3.3203125 C74.40090576 3.65023193 74.40090576 3.65023193 76.14892578 3.98681641 C95.40758656 7.77066728 114.24944018 12.36148824 132.6875 19.1328125 C133.49429199 19.42881348 134.30108398 19.72481445 135.13232422 20.02978516 C161.66736389 29.91434109 186.43997939 43.03096153 209.6875 59.1328125 C211.08162109 60.09767578 211.08162109 60.09767578 212.50390625 61.08203125 C224.31652951 69.47938043 235.48237326 78.77383952 246.0390625 88.6953125 C247.9343664 90.43966299 249.82520827 92.08594747 251.81640625 93.7109375 C254.15365143 95.68249125 256.06365866 97.54119041 258 99.8828125 C260.56064226 102.89367758 263.22855122 105.69022142 266.0625 108.4453125 C271.01880596 113.35989872 275.38988357 118.64185867 279.6875 124.1328125 C280.1829834 124.76251953 280.6784668 125.39222656 281.18896484 126.04101562 C299.85959569 149.8439386 317.7013198 176.65954394 328.6875 205.0078125 C329.0175 205.85214844 329.3475 206.69648438 329.6875 207.56640625 C330.0175 208.41332031 330.3475 209.26023437 330.6875 210.1328125 C331.35326162 211.77901214 332.01992603 213.42484697 332.6875 215.0703125 C333.35688105 216.75673763 334.02356976 218.44423401 334.6875 220.1328125 C334.99429688 220.90367187 335.30109375 221.67453125 335.6171875 222.46875 C342.32320666 240.03741177 347.90158277 259.38068157 349.6875 278.1328125 C349.99171875 279.27234375 350.2959375 280.411875 350.609375 281.5859375 C357.85936325 309.93775586 356.86494196 344.35332142 352.6875 373.1328125 C352.51508789 374.37659668 352.34267578 375.62038086 352.16503906 376.90185547 C349.67867317 394.6158323 346.27568431 411.93456093 341.5625 429.1953125 C341.35085205 429.97140869 341.1392041 430.74750488 340.92114258 431.54711914 C334.56781255 454.64409536 325.2084897 476.16331882 313.6875 497.1328125 C312.92706676 498.53775145 312.16664963 499.94269911 311.40625 501.34765625 C291.9121384 537.02055435 263.93194647 571.30088246 231.6875 596.1328125 C230.52850936 597.0773763 229.37246445 598.02556143 228.21875 598.9765625 C219.72256712 605.95152195 210.953189 612.22512355 201.6875 618.1328125 C200.70136719 618.77347656 199.71523438 619.41414062 198.69921875 620.07421875 C195.40218818 622.16597722 192.06327535 624.17187824 188.6875 626.1328125 C187.88296387 626.60058105 187.07842773 627.06834961 186.24951172 627.55029297 C169.93961424 636.92900193 153.1652166 644.28866824 135.6875 651.1328125 C133.98292859 651.81865182 132.27848458 652.50480795 130.57421875 653.19140625 C93.5570065 667.77656528 54.04527325 672.49980321 14.5625 672.5703125 C13.45631317 672.57630463 12.35012634 672.58229675 11.2104187 672.58847046 C-10.7136046 672.66756131 -31.97736771 670.3061183 -53.375 665.5703125 C-54.53018631 665.31911148 -54.53018631 665.31911148 -55.70870972 665.06283569 C-80.16984956 659.70671703 -103.75464186 651.83547667 -126.37939453 641.05322266 C-127.74552157 640.40276813 -129.11391548 639.75706452 -130.48388672 639.11474609 C-154.4082605 627.84350677 -176.98622936 613.06037231 -197.3125 596.1328125 C-198.2096875 595.41996094 -199.106875 594.70710937 -200.03125 593.97265625 C-207.63191511 587.79221851 -214.6223151 581.03781674 -221.5625 574.1328125 C-222.48514648 573.21935059 -223.40779297 572.30588867 -224.35839844 571.36474609 C-230.43654331 565.2593205 -235.93700397 558.85868791 -241.3125 552.1328125 C-242.87200185 550.3177322 -244.43383812 548.50464924 -246 546.6953125 C-255.73884806 534.99359584 -264.19198839 522.27322182 -272.0625 509.2578125 C-272.56378418 508.43216797 -273.06506836 507.60652344 -273.58154297 506.75585938 C-276.02457973 502.63679565 -278.02574501 498.78607765 -279.3125 494.1328125 C-279.9725 494.1328125 -280.6325 494.1328125 -281.3125 494.1328125 C-289.01575913 477.81818647 -296.76322844 461.32114066 -302.3125 444.1328125 C-302.57095703 443.35131836 -302.82941406 442.56982422 -303.09570312 441.76464844 C-307.94841054 427.00202715 -311.67668248 412.1099398 -314.59960938 396.84912109 C-315.07067055 394.39347273 -315.55610294 391.94053276 -316.05664062 389.49072266 C-327.25062059 333.80879462 -320.05135814 275.60957225 -301.6875 222.3203125 C-301.41043213 221.51400391 -301.13336426 220.70769531 -300.84790039 219.87695312 C-299.28774119 215.47505887 -297.48059578 211.36032019 -295.33154297 207.21704102 C-294.21390608 204.93116031 -293.28183172 202.61333001 -292.359375 200.2421875 C-290.36126094 195.14368594 -288.03296419 190.26728691 -285.5625 185.3828125 C-285.12421875 184.51374268 -284.6859375 183.64467285 -284.234375 182.74926758 C-269.0518314 152.87794406 -248.88562497 125.24642915 -224.921875 101.77734375 C-223.30799135 100.12820536 -221.84281451 98.4123403 -220.375 96.6328125 C-217.70006096 93.45939401 -214.77584817 90.80514146 -211.61328125 88.125 C-208.95939942 85.82707176 -206.42782603 83.41745677 -203.875 81.0078125 C-192.08606411 70.0749394 -178.88122777 60.71733031 -165.3125 52.1328125 C-164.39670166 51.55321777 -164.39670166 51.55321777 -163.46240234 50.96191406 C-154.66685132 45.44359044 -145.62600556 40.63894116 -136.2890625 36.10791016 C-134.38514425 35.16865009 -132.50351809 34.19596265 -130.625 33.20703125 C-111.10736831 22.99757149 -90.54819902 15.81833385 -69.3125 10.1328125 C-67.86057038 9.72955066 -66.4087374 9.32594059 -64.95703125 8.921875 C-55.26360091 6.29436049 -45.48041758 4.83301865 -35.54638672 3.453125 C-31.72135932 2.90466205 -27.91773999 2.23700746 -24.11328125 1.5625 C-16.02553001 0.32170134 -8.1717894 -0.01499315 0 0 Z " fill="#197063" transform="translate(603.3125,72.8671875)"/>
<path d="M0 0 C1.32750275 -0.01898849 1.32750275 -0.01898849 2.68182373 -0.0383606 C3.6430011 -0.04592377 4.60417847 -0.05348694 5.59448242 -0.0612793 C6.59731262 -0.07093719 7.60014282 -0.08059509 8.63336182 -0.09054565 C11.90559541 -0.11552382 15.17763224 -0.12796945 18.44995117 -0.13549805 C20.11439774 -0.13992416 20.11439774 -0.13992416 21.81246948 -0.1444397 C39.80188419 -0.15534918 56.92531485 0.9721522 74.63745117 4.17700195 C76.21376649 4.43275455 77.79054183 4.68570058 79.36791992 4.93481445 C126.22406565 12.63410361 173.22691327 34.95505382 209.63745117 65.17700195 C210.56299805 65.91821289 211.48854492 66.65942383 212.44213867 67.4230957 C217.23777834 71.27650264 221.79490726 75.1757608 226.06713867 79.6027832 C228.44397686 81.98553393 231.01703835 84.0678892 233.63745117 86.17700195 C232.22789918 90.40565793 229.17031059 91.56987891 225.51245117 93.73950195 C224.02566325 94.64523308 222.54000803 95.55282585 221.05541992 96.4621582 C220.30566895 96.91993652 219.55591797 97.37771484 218.78344727 97.84936523 C215.75133563 99.72520404 212.78302993 101.68706815 209.82495117 103.67700195 C209.24068359 104.06903809 208.65641602 104.46107422 208.05444336 104.86499023 C206.72122495 105.76026783 205.38841074 106.65614751 204.0559082 107.55249023 C198.79860657 111.08389393 193.53050446 114.59916632 188.26245117 118.11450195 C187.6721814 118.50849182 187.08191162 118.90248169 186.47375488 119.30841064 C178.87599862 124.3778305 171.25265302 129.40298851 163.56884766 134.34130859 C157.90288615 137.98785793 152.29998026 141.72473586 146.70162964 145.47401428 C141.29970791 149.08491297 135.86478256 152.64132133 130.41088867 156.1730957 C119.59992969 163.18802399 108.83316749 170.26903671 98.07495117 177.36450195 C97.11202148 177.99928467 96.1490918 178.63406738 95.15698242 179.28808594 C83.10159623 187.23576252 71.06248244 195.2062049 59.06103516 203.23510742 C52.30268873 207.75028211 45.52335329 212.23235857 38.73120117 216.6965332 C37.84007629 217.28233658 36.94895142 217.86813995 36.03082275 218.47169495 C34.666763 219.36839149 34.666763 219.36839149 33.27514648 220.28320312 C31.39589667 221.51860863 29.51666506 222.7540418 27.63745117 223.98950195 C26.70751343 224.60080963 25.77757568 225.21211731 24.81945801 225.84194946 C8.48934567 236.582578 -7.73758221 247.4705729 -23.90161133 258.45947266 C-32.7745323 264.48139827 -41.71238722 270.34246019 -50.83374023 275.98095703 C-55.60513223 278.93525044 -60.27106781 282.04184633 -64.92504883 285.17700195 C-66.57214368 286.28122913 -68.21928023 287.38539411 -69.86645508 288.48950195 C-70.72964355 289.06893555 -71.59283203 289.64836914 -72.48217773 290.24536133 C-84.97220648 298.62145112 -97.52599282 306.89793458 -110.10131836 315.14526367 C-117.70416789 320.1324006 -125.30246682 325.12519499 -132.86254883 330.17700195 C-141.90663199 336.22044993 -151.00558413 342.17996971 -160.10131836 348.14526367 C-170.21676167 354.78055228 -180.3052972 361.45383997 -190.36254883 368.17700195 C-193.21619997 370.08012104 -196.07049767 371.98226441 -198.92504883 373.8840332 C-201.57301773 375.64907994 -204.21799669 377.41855925 -206.86254883 379.1887207 C-214.60232375 384.36441693 -222.34980027 389.52663717 -230.14770508 394.61450195 C-230.72180115 394.98914078 -231.29589722 395.3637796 -231.88739014 395.74977112 C-234.69122703 397.57856286 -237.4968087 399.40457747 -240.30444336 401.22753906 C-246.10458629 405.003735 -251.81335426 408.85976027 -257.41259766 412.92919922 C-259.36254883 414.17700195 -259.36254883 414.17700195 -261.36254883 414.17700195 C-290.05571386 348.10830206 -291.80073888 264.45012263 -266.20776367 197.08496094 C-252.72405893 163.16722657 -234.93657742 130.48264009 -209.77661133 103.7668457 C-207.81911611 101.66681443 -205.93348355 99.53642808 -204.05786133 97.36450195 C-200.39613647 93.16399871 -196.55450143 89.17665373 -192.61254883 85.23950195 C-191.91299072 84.54074951 -191.21343262 83.84199707 -190.49267578 83.12207031 C-185.0473936 77.7405634 -179.39654787 72.89164035 -173.36254883 68.17700195 C-171.6326442 66.71954408 -169.90349961 65.2611837 -168.17504883 63.80200195 C-124.58746349 28.31802403 -66.24924633 4.19631384 -10.01489258 1.38793945 C-6.53046179 1.11082714 -3.54072034 0.04507197 0 0 Z " fill="#FCFBEF" transform="translate(600.362548828125,105.822998046875)"/>
<path d="M0 0 C1.39111328 1.67382812 1.39111328 1.67382812 2.8203125 4.03125 C3.35092285 4.89588867 3.8815332 5.76052734 4.42822266 6.65136719 C4.98815918 7.59141602 5.5480957 8.53146484 6.125 9.5 C6.99777588 10.94487793 6.99777588 10.94487793 7.88818359 12.41894531 C9.60395963 15.27241212 11.30246057 18.13566036 13 21 C13.8227927 22.35945003 14.64569347 23.71883468 15.46875 25.078125 C31.63338803 52.26459688 42.83709222 84.23759067 48.0625 115.375 C48.22298828 116.30054688 48.38347656 117.22609375 48.54882812 118.1796875 C48.87941529 120.11275942 49.19926335 122.04769216 49.50952148 123.98413086 C49.83223984 125.96847128 50.18008557 127.94891545 50.55493164 129.92407227 C52.6837095 142.25272904 52.34927032 154.71557822 52.3125 167.1875 C52.31134186 168.39254181 52.31018372 169.59758362 52.30899048 170.83914185 C52.27614077 188.06659192 51.9598762 204.9883932 49 222 C48.87189941 222.76038574 48.74379883 223.52077148 48.61181641 224.30419922 C47.87425887 228.57046337 46.98016689 232.78372654 46 237 C45.78730469 238.01707031 45.57460938 239.03414062 45.35546875 240.08203125 C42.43891752 253.6414361 38.53492734 267.26966712 33 280 C32.65710938 280.85464844 32.31421875 281.70929688 31.9609375 282.58984375 C29.31778272 289.14378876 26.3893333 295.54808674 23.375 301.9375 C22.99061768 302.75468506 22.60623535 303.57187012 22.21020508 304.41381836 C21.83919678 305.19378174 21.46818848 305.97374512 21.0859375 306.77734375 C20.7564209 307.47077881 20.4269043 308.16421387 20.08740234 308.87866211 C19.72855957 309.57870361 19.3697168 310.27874512 19 311 C18.67871722 311.85635135 18.35743444 312.71270269 18.02641582 313.59500408 C16 316 16 316 14.14295447 316.45880473 C11.57991579 316.63497689 9.05891085 316.64154789 6.48994446 316.60127258 C5.00989537 316.60768077 5.00989537 316.60768077 3.4999463 316.61421841 C0.17830145 316.62248473 -3.14209365 316.59490235 -6.46362305 316.56762695 C-8.83841929 316.56621728 -11.21321772 316.56700689 -13.5880127 316.56983948 C-19.37703977 316.57112861 -25.16565435 316.54940548 -30.95458706 316.51765118 C-37.68954911 316.48194048 -44.42445208 316.47442819 -51.15949557 316.46871033 C-63.17062662 316.45776318 -75.18158803 316.42447773 -87.19262695 316.37719727 C-98.8612381 316.33131246 -110.5298032 316.29591532 -122.19848633 316.2746582 C-122.91756409 316.27334459 -123.63664186 316.27203097 -124.37750985 316.27067754 C-127.98485883 316.26415243 -131.59220814 316.25783387 -135.19955766 316.25161803 C-165.13315731 316.19977196 -195.06655884 316.11132409 -225 316 C-222.50243716 313.50243716 -220.65203408 313.22938967 -217.25 312.3125 C-191.99131621 304.75719834 -174.95013958 288.20561393 -162.25390625 265.9375 C-155.0280826 252.38682821 -152.99368617 238.01306103 -151 223 C-175.98663524 224.80926947 -199.31388795 230.98781244 -219 247 C-219.83917969 247.66386719 -220.67835938 248.32773437 -221.54296875 249.01171875 C-231.46538434 257.33424098 -238.8225931 268.17371265 -244 280 C-244.33 280 -244.66 280 -245 280 C-245 264.82 -245 249.64 -245 234 C-237.74 232.35 -230.48 230.7 -223 229 C-197.827106 221.23389441 -176.12786983 205.71182054 -163.5078125 182.22265625 C-162.22715887 179.51419313 -161.08896008 176.79093614 -160 174 C-159.35417969 172.38158203 -159.35417969 172.38158203 -158.6953125 170.73046875 C-154.27426535 159.07616991 -152.11870565 147.36825972 -151 135 C-154.62681297 135.59358567 -158.25102565 136.20184256 -161.875 136.8125 C-162.88820313 136.97814453 -163.90140625 137.14378906 -164.9453125 137.31445312 C-191.45395353 141.81752356 -215.92755968 155.71764213 -231.94140625 177.66015625 C-236.22890658 184.09603687 -239.26749158 190.7833752 -242 198 C-242.32097656 198.83660156 -242.64195312 199.67320312 -242.97265625 200.53515625 C-243.66152987 202.35186017 -244.33320162 204.17507811 -245 206 C-245.33 206 -245.66 206 -246 206 C-246.33 198.08 -246.66 190.16 -247 182 C-249.660625 183.7325 -249.660625 183.7325 -252.375 185.5 C-257.75 189 -257.75 189 -260 189 C-260 195.6 -260 202.2 -260 209 C-261.53666343 205.92667314 -262.86711554 202.93664064 -264.125 199.75 C-264.65480469 198.41195312 -264.65480469 198.41195312 -265.1953125 197.046875 C-265.46085938 196.37140625 -265.72640625 195.6959375 -266 195 C-266.6084375 195.38929688 -267.216875 195.77859375 -267.84375 196.1796875 C-272.21826357 198.97165645 -276.59491783 201.75588033 -281.01171875 204.48046875 C-291.33262308 210.77194485 -291.33262308 210.77194485 -301 218 C-301 218.66 -301 219.32 -301 220 C-288.45850366 227.01825457 -275.18699504 231.63550083 -261 234 C-261 248.19 -261 262.38 -261 277 C-263.73667576 275.63166212 -264.09036491 274.05074196 -265.4375 271.3125 C-275.05883272 253.37442205 -289.47596371 241.80867561 -307 232 C-308.28197266 231.26523437 -308.28197266 231.26523437 -309.58984375 230.515625 C-313.03955904 228.53656833 -313.03955904 228.53656833 -316.890625 228.2109375 C-319.58461073 229.21868772 -321.68659228 230.6227596 -324.0625 232.25 C-325.10019531 232.95640625 -326.13789062 233.6628125 -327.20703125 234.390625 C-327.79436035 234.79474609 -328.38168945 235.19886719 -328.98681641 235.61523438 C-331.32452861 237.22322657 -333.6679945 238.82265898 -336.01171875 240.421875 C-340.67875858 243.60835768 -345.34078108 246.80209487 -350 250 C-344.89318145 268.50987896 -334.23641942 285.14349052 -319 297 C-318.2678125 297.59039063 -317.535625 298.18078125 -316.78125 298.7890625 C-306.29669774 306.72237371 -293.46723293 311.19843844 -281 315 C-281 315.33 -281 315.66 -281 316 C-346.34 316 -411.68 316 -479 316 C-475.43298095 312.43298095 -471.96712053 309.89475261 -467.75 307.25 C-460.56326582 302.67304415 -453.45426886 297.9914027 -446.375 293.25 C-438.79920434 288.18466036 -431.20361249 283.15376413 -423.5625 278.1875 C-412.4102381 270.93717353 -401.29718986 263.62783381 -390.1875 256.3125 C-389.32230743 255.74308685 -388.45711487 255.17367371 -387.56570435 254.58700562 C-377.70308672 248.09555727 -367.85794364 241.57926681 -358.03892517 235.02204895 C-352.96936157 231.6390938 -347.87501182 228.29841733 -342.75 225 C-334.61863632 219.73815007 -326.55160359 214.38273389 -318.5 209 C-305.57791093 200.36141281 -292.60789228 191.79689508 -279.625 183.25 C-265.19435647 173.74898572 -250.77890442 164.22773727 -236.41992188 154.61865234 C-232.49147892 151.99097107 -228.55805796 149.37076622 -224.625 146.75 C-223.16013146 145.77347469 -221.69528721 144.79691293 -220.23046875 143.8203125 C-217.50390625 142.00260417 -214.77734375 140.18489583 -212.05078125 138.3671875 C-211.38240234 137.92157471 -210.71402344 137.47596191 -210.02539062 137.0168457 C-208.6166363 136.07773107 -207.20777976 135.13876975 -205.79882812 134.19995117 C-201.29970841 131.20164728 -196.80259113 128.20036967 -192.30732727 125.19628906 C-189.46253665 123.29548428 -186.61705283 121.39571852 -183.77151489 119.49603271 C-182.3752851 118.56357187 -180.97933483 117.63069229 -179.58370972 116.69732666 C-170.68121151 110.74390712 -161.73507512 104.86269691 -152.74958801 99.03527832 C-143.07344618 92.75721791 -133.44162091 86.41235834 -123.8125 80.0625 C-122.86522034 79.43815063 -121.91794067 78.81380127 -120.94195557 78.17053223 C-107.71223834 69.44997106 -94.50907848 60.69087355 -81.33493042 51.8866272 C-71.71473654 45.45839374 -62.05809354 39.09068844 -52.35473633 32.78833008 C-45.47191804 28.30566311 -38.63924626 23.75308657 -31.82421875 19.16796875 C-30.03015174 17.963155 -28.23604353 16.75840259 -26.44189453 15.55371094 C-23.76012554 13.75275917 -21.0801224 11.94943176 -18.4052124 10.13830566 C-15.91086173 8.44945598 -13.41106926 6.76895425 -10.91015625 5.08984375 C-10.15514328 4.57512009 -9.40013031 4.06039642 -8.62223816 3.53007507 C-7.92455826 3.06374161 -7.22687836 2.59740814 -6.50805664 2.11694336 C-5.90030899 1.70633163 -5.29256134 1.29571991 -4.66639709 0.87266541 C-3 0 -3 0 0 0 Z " fill="#FCFBF0" transform="translate(871,236)"/>
<path d="M0 0 C8.64226246 3.03294494 14.85021735 15.04737296 19.0703125 22.7265625 C29.55128194 44.54637432 32.50421312 70.86834816 24.4765625 94.01171875 C24.0125 95.23761719 23.5484375 96.46351563 23.0703125 97.7265625 C22.709375 98.75652344 22.3484375 99.78648437 21.9765625 100.84765625 C18.42080791 110.20691029 13.23169156 122.56518344 6.0703125 129.7265625 C5.69792023 132.54058933 5.69792023 132.54058933 5.65625 135.828125 C5.61757813 137.03984375 5.57890625 138.2515625 5.5390625 139.5 C5.508125 140.77101563 5.4771875 142.04203125 5.4453125 143.3515625 C5.40664063 144.6303125 5.36796875 145.9090625 5.328125 147.2265625 C5.23360201 150.39308267 5.14804893 153.5595929 5.0703125 156.7265625 C5.7303125 156.7265625 6.3903125 156.7265625 7.0703125 156.7265625 C7.1321875 155.6540625 7.1940625 154.5815625 7.2578125 153.4765625 C9.23224368 138.26810614 19.55910146 123.34900328 30.0703125 112.7265625 C30.72902344 112.01886719 31.38773438 111.31117188 32.06640625 110.58203125 C36.91007632 105.48496999 42.15221413 101.50389624 48.0703125 97.7265625 C49.57851563 96.73462891 49.57851563 96.73462891 51.1171875 95.72265625 C64.05577327 87.71956388 79.64952543 82.50798304 94.9453125 82.6640625 C96.67394531 82.67759766 96.67394531 82.67759766 98.4375 82.69140625 C99.74074219 82.70880859 99.74074219 82.70880859 101.0703125 82.7265625 C101.34856874 88.61764461 100.35522902 93.72169158 98.8828125 99.4140625 C98.65432617 100.30182373 98.42583984 101.18958496 98.19042969 102.10424805 C93.18405649 120.98144271 83.91290264 136.11320079 70.0703125 149.7265625 C69.24660156 150.54898438 68.42289063 151.37140625 67.57421875 152.21875 C52.38726832 166.63263727 27.5944278 181.13059879 6.0703125 180.7265625 C6.20953125 181.7165625 6.34875 182.7065625 6.4921875 183.7265625 C6.90567462 187.97044395 6.92871106 191.51531014 6.0703125 195.7265625 C2.58135788 199.45125729 -1.26506185 201.70436329 -5.9296875 203.7265625 C-6.5896875 203.7265625 -7.2496875 203.7265625 -7.9296875 203.7265625 C-7.9296875 196.1365625 -7.9296875 188.5465625 -7.9296875 180.7265625 C-10.2396875 180.7265625 -12.5496875 180.7265625 -14.9296875 180.7265625 C-33.76639712 177.5889183 -51.33364348 169.97454726 -65.9296875 157.7265625 C-66.77789063 157.05238281 -67.62609375 156.37820313 -68.5 155.68359375 C-76.02488487 149.39713037 -81.4617345 141.78150402 -86.9296875 133.7265625 C-87.54070313 132.83710938 -88.15171875 131.94765625 -88.78125 131.03125 C-97.58444892 117.35243322 -102.24371346 98.9155499 -102.9296875 82.7265625 C-79.78064623 81.48643529 -56.54298901 91.16625431 -39.40185547 106.37426758 C-36.83433418 108.75634418 -34.37444524 111.21793591 -31.9296875 113.7265625 C-31.25808594 114.40074219 -30.58648438 115.07492188 -29.89453125 115.76953125 C-20.90319466 125.37530998 -14.04279746 137.41625728 -10.328125 149.9921875 C-10.06435059 150.88196289 -9.80057617 151.77173828 -9.52880859 152.68847656 C-9.33109863 153.36104492 -9.13338867 154.03361328 -8.9296875 154.7265625 C-7.64491791 138.45940296 -8.48716434 127.37361445 -17.62988281 113.74365234 C-30.99525958 93.00271643 -32.82307088 66.22067119 -27.83203125 42.51953125 C-23.94756122 26.19130443 -15.37030713 12.80277211 -3.9296875 0.7265625 C-1.9296875 -0.2734375 -1.9296875 -0.2734375 0 0 Z " fill="#186F62" transform="translate(618.9296875,117.2734375)"/>
<path d="M0 0 C17.3489147 0.46699636 31.96849299 3.61795523 47.23095703 12.03466797 C48.82177943 12.90274853 50.43890378 13.72220841 52.05859375 14.53515625 C59.15720177 18.14990842 65.0100576 22.77867853 71 28 C72.28003906 29.09634766 72.28003906 29.09634766 73.5859375 30.21484375 C80.93994671 36.60497797 80.93994671 36.60497797 83 40 C81.55990313 44.32029061 78.27012566 45.64521659 74.5625 47.9375 C73.00829542 48.91927734 71.45493781 49.9023965 69.90234375 50.88671875 C69.09522949 51.39638184 68.28811523 51.90604492 67.45654297 52.43115234 C63.47157822 54.97611194 59.55063495 57.61484772 55.625 60.25 C54.12395855 61.2490896 52.6226639 62.24779893 51.12109375 63.24609375 C48.59804764 64.92561745 46.09022758 66.62329705 43.59765625 68.34765625 C42.63730469 68.99605469 41.67695312 69.64445312 40.6875 70.3125 C39.48673828 71.14201172 39.48673828 71.14201172 38.26171875 71.98828125 C36 73 36 73 33.5390625 72.99609375 C30.11430424 71.65253474 28.06412276 69.45456445 25.6875 66.75 C25.21038574 66.21640869 24.73327148 65.68281738 24.24169922 65.13305664 C9.1133836 47.72509709 -0.77214382 23.16431454 0 0 Z " fill="#196F63" transform="translate(516,287)"/>
<path d="M0 0 C15 0 15 0 19.38671875 4.34765625 C20.54208621 6.21969406 21.64193853 8.12698953 22.6875 10.0625 C23.53731445 11.47692383 23.53731445 11.47692383 24.40429688 12.91992188 C25.99278107 15.58597429 27.50153062 18.28257732 29 21 C30.32 23.31 31.64 25.62 33 28 C33.33 18.76 33.66 9.52 34 0 C38.95 0 43.9 0 49 0 C49 18.15 49 36.3 49 55 C34 55 34 55 30.62890625 51.921875 C29.53076172 49.91796875 29.53076172 49.91796875 28.5625 47.75 C27.78726522 46.28534012 27.00989432 44.82180903 26.23046875 43.359375 C25.86356934 42.62654297 25.49666992 41.89371094 25.11865234 41.13867188 C23.43380662 37.91753514 21.4301741 34.9984739 19.375 32 C18.26125 30.35 17.1475 28.7 16 27 C15.67 36.24 15.34 45.48 15 55 C10.05 55 5.1 55 0 55 C0 36.85 0 18.7 0 0 Z " fill="#F6F9ED" transform="translate(727,575)"/>
<path d="M0 0 C5.15625 -0.061875 10.3125 -0.12375 15.625 -0.1875 C17.24100098 -0.21481201 18.85700195 -0.24212402 20.52197266 -0.27026367 C22.44855713 -0.28150269 22.44855713 -0.28150269 24.4140625 -0.29296875 C25.7232666 -0.3086792 27.0324707 -0.32438965 28.38134766 -0.34057617 C34.90202833 0.27312977 38.71117878 3.22102778 43 8 C45.32300146 12.64600293 44.419914 18.94377521 44 24 C42.55949008 28.11254388 39.6250227 30.66962826 36 33 C37.81236053 38.01737704 40.51960085 42.4530381 43.25390625 47.00390625 C46 51.68131868 46 51.68131868 46 55 C40.39 55 34.78 55 29 55 C27.85255669 52.39653203 26.70698532 49.79226795 25.5625 47.1875 C25.23701172 46.44951172 24.91152344 45.71152344 24.57617188 44.95117188 C24.26357422 44.23896484 23.95097656 43.52675781 23.62890625 42.79296875 C23.34088135 42.1383667 23.05285645 41.48376465 22.75610352 40.80932617 C22.09806016 39.23465413 21.53968631 37.61905892 21 36 C19.02 36 17.04 36 15 36 C15 41.94 15 47.88 15 54 C10.05 54 5.1 54 0 54 C0 36.18 0 18.36 0 0 Z " fill="#F7FAEF" transform="translate(578,648)"/>
<path d="M0 0 C3.63755045 3.06593538 5.65976378 5.7751496 6.9375 10.375 C6.958125 11.24125 6.97875 12.1075 7 13 C5.13895086 14.86104914 2.17963923 14.21673452 -0.3125 14.25 C-1.46363281 14.27578125 -2.61476563 14.3015625 -3.80078125 14.328125 C-7.33530316 13.96560993 -8.3022328 13.14267106 -11 11 C-13.48140905 10.52911455 -13.48140905 10.52911455 -16.0625 10.625 C-16.91972656 10.61726562 -17.77695312 10.60953125 -18.66015625 10.6015625 C-21.48142216 11.0819784 -22.33153723 11.70261512 -24 14 C-25.41373906 17.64595862 -25.23970505 21.57170479 -25.3125 25.4375 C-25.34988281 26.73558594 -25.38726562 28.03367187 -25.42578125 29.37109375 C-24.93840622 33.52495984 -23.9321351 35.08962471 -21 38 C-17.85658007 39.57170996 -14.44228549 39.23175783 -11 39 C-9.515 38.505 -9.515 38.505 -8 38 C-7.67 36.35 -7.34 34.7 -7 33 C-10.3 33 -13.6 33 -17 33 C-17 28.71 -17 24.42 -17 20 C-9.08 20 -1.16 20 7 20 C7.13475027 24.0844304 7.23401766 28.16443347 7.3125 32.25 C7.35439453 33.40886719 7.39628906 34.56773437 7.43945312 35.76171875 C7.56317673 44.32339192 7.56317673 44.32339192 4.7890625 47.65625 C3.40847656 48.32140625 3.40847656 48.32140625 2 49 C1.20722656 49.41765625 0.41445313 49.8353125 -0.40234375 50.265625 C-8.69507328 53.48560627 -17.24333012 54.75101937 -25.90234375 52.1171875 C-32.43018796 49.15266276 -37.2608813 45.01196694 -40.1328125 38.38671875 C-42.56098246 28.90373065 -42.76507494 15.76843307 -38.328125 6.91015625 C-29.61198301 -5.62570678 -12.79928388 -7.87825957 0 0 Z " fill="#F3F8ED" transform="translate(510,578)"/>
<path d="M0 0 C5.28 0 10.56 0 16 0 C16.04898438 2.54074219 16.09796875 5.08148437 16.1484375 7.69921875 C16.20249499 10.16827121 16.25978369 12.63722909 16.31738281 15.10620117 C16.35559285 16.81804314 16.39045952 18.52996322 16.421875 20.24194336 C16.46769938 22.70715183 16.52566413 25.17182633 16.5859375 27.63671875 C16.59748871 28.39836838 16.60903992 29.16001801 16.62094116 29.94474792 C16.73339092 34.02157871 17.048511 37.37834505 19 41 C21.82001327 42.41000664 23.87007255 42.24548451 27 42 C29.78602854 41.16786659 29.78602854 41.16786659 32 39 C32.52391557 35.8850203 32.72168534 33.29687824 32.70703125 30.17578125 C32.72215256 29.31438034 32.73727386 28.45297943 32.75285339 27.56547546 C32.79584103 24.81421967 32.80457874 22.06405862 32.8125 19.3125 C32.83563581 17.44723629 32.86099923 15.58199879 32.88867188 13.71679688 C32.95163321 9.14443402 32.98388205 4.57275828 33 0 C35.47923801 -0.02685095 37.9581884 -0.04676547 40.4375 -0.0625 C41.14455078 -0.07087891 41.85160156 -0.07925781 42.58007812 -0.08789062 C44.38693559 -0.09653588 46.19387603 -0.05220011 48 0 C50.81968791 2.81968791 49.32298688 12.77875444 49.35009766 16.76147461 C49.36655053 18.52951315 49.39369713 20.29748818 49.43212891 22.06518555 C49.85238935 41.50131753 49.85238935 41.50131753 44 49 C39.3881964 53.79914516 35.24534298 55.29795184 28.68847656 55.49755859 C12.97781385 55.51459836 12.97781385 55.51459836 7.1875 50.625 C6.1046875 49.325625 6.1046875 49.325625 5 48 C4.443125 47.34 3.88625 46.68 3.3125 46 C-0.15469397 40.71665681 -0.27178956 36.1094899 -0.1953125 29.98046875 C-0.1924826 29.12189774 -0.18965271 28.26332672 -0.18673706 27.3787384 C-0.1755807 24.64818125 -0.15048459 21.9179573 -0.125 19.1875 C-0.11496432 17.33138496 -0.1058395 15.47526476 -0.09765625 13.61914062 C-0.07565626 9.07929954 -0.04115781 4.53970619 0 0 Z " fill="#F2F7EB" transform="translate(571,575)"/>
<path d="M0 0 C9.6215625 -0.0309375 9.6215625 -0.0309375 19.4375 -0.0625 C21.46447021 -0.071604 23.49144043 -0.08070801 25.57983398 -0.09008789 C27.1769199 -0.09300703 28.77400655 -0.09555559 30.37109375 -0.09765625 C31.20805786 -0.10277222 32.04502197 -0.10788818 32.90734863 -0.11315918 C34.93858265 -0.11346924 36.96972471 -0.06240188 39 0 C42.07318149 3.07318149 40 8.65386506 40 13 C32.08 13 24.16 13 16 13 C16 15.64 16 18.28 16 21 C16.60062256 20.99476318 17.20124512 20.98952637 17.82006836 20.98413086 C20.52586838 20.96341986 23.23165177 20.95035875 25.9375 20.9375 C26.88302734 20.92912109 27.82855469 20.92074219 28.80273438 20.91210938 C30.15141602 20.90727539 30.15141602 20.90727539 31.52734375 20.90234375 C32.77632446 20.89448853 32.77632446 20.89448853 34.05053711 20.88647461 C36 21 36 21 37 22 C37.14355117 26.00220653 37.04216403 29.99441683 37 34 C29.74 34 22.48 34 15 34 C15 36.97 15 39.94 15 43 C23.25 43 31.5 43 40 43 C40 47.29 40 51.58 40 56 C26.8 56 13.6 56 0 56 C0 37.52 0 19.04 0 0 Z " fill="#F0F5EA" transform="translate(632,647)"/>
<path d="M0 0 C12.87 0 25.74 0 39 0 C39 3.96 39 7.92 39 12 C31.41 12 23.82 12 16 12 C16 14.64 16 17.28 16 20 C16.60062256 19.99476318 17.20124512 19.98952637 17.82006836 19.98413086 C20.52586838 19.96341986 23.23165177 19.95035875 25.9375 19.9375 C26.88302734 19.92912109 27.82855469 19.92074219 28.80273438 19.91210938 C30.15141602 19.90727539 30.15141602 19.90727539 31.52734375 19.90234375 C32.77632446 19.89448853 32.77632446 19.89448853 34.05053711 19.88647461 C36 20 36 20 37 21 C37.14355117 25.00220653 37.04216403 28.99441683 37 33 C30.07 33 23.14 33 16 33 C16 35.97 16 38.94 16 42 C23.92 42 31.84 42 40 42 C40 46.29 40 50.58 40 55 C26.8 55 13.6 55 0 55 C0 36.85 0 18.7 0 0 Z " fill="#F3F7EB" transform="translate(680,648)"/>
<path d="M0 0 C12.87 0 25.74 0 39 0 C39 4.29 39 8.58 39 13 C31.08 13 23.16 13 15 13 C15 15.64 15 18.28 15 21 C21.93 21 28.86 21 36 21 C36 24.96 36 28.92 36 33 C29.07 33 22.14 33 15 33 C15 35.97 15 38.94 15 42 C22.92 42 30.84 42 39 42 C39 46.29 39 50.58 39 55 C26.13 55 13.26 55 0 55 C0 36.85 0 18.7 0 0 Z " fill="#F6F9ED" transform="translate(679,575)"/>
<path d="M0 0 C12.54 0 25.08 0 38 0 C38 3.96 38 7.92 38 12 C30.41 12 22.82 12 15 12 C15 15.3 15 18.6 15 22 C21.93 22 28.86 22 36 22 C36 25.96 36 29.92 36 34 C29.07 34 22.14 34 15 34 C15 40.6 15 47.2 15 54 C10.05 54 5.1 54 0 54 C0 36.18 0 18.36 0 0 Z " fill="#F8FBF1" transform="translate(532,648)"/>
<path d="M0 0 C6.39037797 -0.024644 12.78072852 -0.04283317 19.17114258 -0.05493164 C21.34692873 -0.05997308 23.52271147 -0.06680607 25.69848633 -0.07543945 C28.81853067 -0.08751338 31.93853038 -0.09323005 35.05859375 -0.09765625 C36.52733192 -0.10539818 36.52733192 -0.10539818 38.02574158 -0.11329651 C39.37702904 -0.11340981 39.37702904 -0.11340981 40.75561523 -0.11352539 C41.95141457 -0.11685631 41.95141457 -0.11685631 43.17137146 -0.12025452 C45 0 45 0 46 1 C46.09873816 2.99799572 46.12971799 4.99957158 46.125 7 C46.12886719 8.6396875 46.12886719 8.6396875 46.1328125 10.3125 C46 13 46 13 45 14 C40.38 14 35.76 14 31 14 C31 27.53 31 41.06 31 55 C26.05 55 21.1 55 16 55 C15 54 15 54 14.88647461 50.21459961 C14.88663378 48.52717271 14.89233083 46.83974095 14.90234375 45.15234375 C14.9037587 44.2659169 14.90517365 43.37949005 14.90663147 42.46620178 C14.91224785 39.62326746 14.92480309 36.78041069 14.9375 33.9375 C14.94251289 32.01497509 14.94707616 30.09244896 14.95117188 28.16992188 C14.96222259 23.44658451 14.97949817 18.72330542 15 14 C10.05 14 5.1 14 0 14 C0 9.38 0 4.76 0 0 Z " fill="#EDF4E8" transform="translate(626,575)"/>
<path d="M0 0 C4.95 0 9.9 0 15 0 C15 13.86 15 27.72 15 42 C22.92 42 30.84 42 39 42 C39 46.29 39 50.58 39 55 C26.13 55 13.26 55 0 55 C0 36.85 0 18.7 0 0 Z " fill="#F4F8ED" transform="translate(527,575)"/>
<path d="M0 0 C0.66 0 1.32 0 2 0 C2.51046875 1.17755859 2.51046875 1.17755859 3.03125 2.37890625 C8.05320028 13.26425062 13.78827324 18.82155554 25 23 C25 23.66 25 24.32 25 25 C24.21496094 25.3403125 23.42992187 25.680625 22.62109375 26.03125 C11.73574938 31.05320028 6.17844446 36.78827324 2 48 C1.34 48 0.68 48 0 48 C-0.3403125 47.21496094 -0.680625 46.42992187 -1.03125 45.62109375 C-6.05320028 34.73574938 -11.78827324 29.17844446 -23 25 C-23 24.34 -23 23.68 -23 23 C-22.21496094 22.6596875 -21.42992187 22.319375 -20.62109375 21.96875 C-9.73574938 16.94679972 -4.17844446 11.21172676 0 0 Z " fill="#EBEBED" transform="translate(1191,752)"/>
<path d="M0 0 C79.86 0 159.72 0 242 0 C242 0.99 242 1.98 242 3 C241.01 3 240.02 3 239 3 C239 2.34 239 1.68 239 1 C238.34 1.33 237.68 1.66 237 2 C234.60065198 2.12805905 232.22839331 2.19631115 229.82739258 2.22119141 C228.69964291 2.238412 228.69964291 2.238412 227.54911041 2.25598049 C224.99762687 2.29316068 222.44612135 2.32266672 219.89453125 2.3515625 C218.04623773 2.37524528 216.19794573 2.39904727 214.34965515 2.42295837 C209.24581279 2.48644275 204.1419102 2.54090093 199.03793335 2.59233475 C195.81889361 2.62493525 192.59987802 2.6594465 189.38085938 2.69406128 C129.86687606 3.31616865 70.35204024 2.66732324 10.84017658 2.07457924 C9.84342002 2.06471678 8.84666346 2.05485432 7.81970215 2.04469299 C6.95551414 2.03601983 6.09132614 2.02734667 5.20095062 2.01841068 C3.4673502 2.00390933 1.73366107 2 0 2 C0 1.34 0 0.68 0 0 Z " fill="#146153" transform="translate(646,553)"/>
<path d="M0 0 C65.67 0 131.34 0 199 0 C199 0.33 199 0.66 199 1 C190.32031851 2.04191497 181.66286721 2.32692575 172.93188477 2.55761719 C170.43934991 2.62495003 167.94728566 2.70282475 165.45507812 2.78125 C163.84376776 2.82616241 162.23243994 2.8704542 160.62109375 2.9140625 C159.52383217 2.94990952 159.52383217 2.94990952 158.40440369 2.98648071 C154.86551615 3.07081966 151.49321468 2.97609477 147.984375 2.49780273 C140.90033849 1.62917301 133.74975932 1.99357267 126.62890625 2.12109375 C125.02254548 2.14549254 123.41617611 2.16933053 121.80979919 2.19264221 C117.58323655 2.2552128 113.35680443 2.32418313 109.13037109 2.39489746 C101.63000161 2.51933314 94.1294577 2.63323521 86.62890625 2.74609375 C85.81752197 2.75832851 85.0061377 2.77056328 84.17016602 2.78316879 C62.55989747 3.1050668 40.98082245 3.07806923 19.375 2.5 C17.47005971 2.45152244 15.56511175 2.40334505 13.66015625 2.35546875 C9.10667596 2.24040195 4.55331554 2.12140453 0 2 C0 1.34 0 0.68 0 0 Z " fill="#146153" transform="translate(393,553)"/>
<path d="M0 0 C0 0.66 0 1.32 0 2 C76.56 2 153.12 2 232 2 C232 2.33 232 2.66 232 3 C152.47 3 72.94 3 -9 3 C-6.31795079 0.31795079 -3.73391546 0 0 0 Z " fill="#CCE2D6" transform="translate(655,549)"/>
<path d="M0 0 C0.33 0 0.66 0 1 0 C1.33 2.31 1.66 4.62 2 7 C2.66 6.67 3.32 6.34 4 6 C4.01981934 6.94319092 4.03963867 7.88638184 4.06005859 8.8581543 C4.13834766 12.37143034 4.22504698 15.88429264 4.31738281 19.3972168 C4.35556704 20.91503978 4.39043808 22.43295001 4.421875 23.95092773 C4.46775628 26.13817431 4.52571029 28.32482582 4.5859375 30.51171875 C4.63306885 32.48338013 4.63306885 32.48338013 4.68115234 34.49487305 C4.98087365 37.78974194 5.76093334 39.98330075 7 43 C6.67 43.99 6.34 44.98 6 46 C5.34 45.01 4.68 44.02 4 43 C3.01 45.31 2.02 47.62 1 50 C0.67 50 0.34 50 0 50 C-0.33 47.03 -0.66 44.06 -1 41 C-4.63 40.67 -8.26 40.34 -12 40 C-12 39.67 -12 39.34 -12 39 C-7.05 38.505 -7.05 38.505 -2 38 C-1.97494385 36.88439697 -1.9498877 35.76879395 -1.92407227 34.61938477 C-1.83016579 30.4950741 -1.72990486 26.3709385 -1.62768555 22.24682617 C-1.584273 20.4591073 -1.54260271 18.67134526 -1.50268555 16.88354492 C-1.4451354 14.31936609 -1.38139797 11.75540588 -1.31640625 9.19140625 C-1.29969376 8.3872377 -1.28298126 7.58306915 -1.26576233 6.75453186 C-1.11387171 1.11387171 -1.11387171 1.11387171 0 0 Z " fill="#14685B" transform="translate(567,576)"/>
<path d="M0 0 C0.05058526 7.08411622 0.08568494 14.16818612 0.10986328 21.25244141 C0.11993954 23.66391744 0.13360081 26.07538122 0.15087891 28.48681641 C0.1750559 31.94697085 0.18646669 35.4069642 0.1953125 38.8671875 C0.20563507 39.95055389 0.21595764 41.03392029 0.22659302 42.15011597 C0.22674408 43.1510025 0.22689514 44.15188904 0.22705078 45.18310547 C0.231492 46.06690887 0.23593323 46.95071228 0.24050903 47.86129761 C0 50 0 50 -2 52 C-2 52.99 -2 53.98 -2 55 C-2.66 55 -3.32 55 -4 55 C-4 37.18 -4 19.36 -4 1 C-2 0 -2 0 0 0 Z " fill="#14665A" transform="translate(781,575)"/>
<path d="M0 0 C0.33 4.29 0.66 8.58 1 13 C3.97 13.495 3.97 13.495 7 14 C7 14.66 7 15.32 7 16 C8.32 16 9.64 16 11 16 C11.86133501 19.44534004 11.93688374 21.60379646 11 25 C11.33 25.66 11.66 26.32 12 27 C11.83219837 29.69565202 11.38844355 32.32405554 11 35 C8.97441119 31.65060119 8.78261013 29.13037449 8.875 25.25 C8.89304687 24.26515625 8.91109375 23.2803125 8.9296875 22.265625 C8.95289063 21.51796875 8.97609375 20.7703125 9 20 C6.03 20 3.06 20 0 20 C0.0928125 21.85625 0.0928125 21.85625 0.1875 23.75 C0.20362826 26.78211302 0.10651023 27.82248296 -1.5 30.5 C-1.995 30.995 -2.49 31.49 -3 32 C-5.62025051 29.37974949 -4.23009796 22.20258948 -4.24023438 18.64428711 C-4.24994465 16.57429901 -4.28095712 14.50530185 -4.3125 12.43554688 C-4.31765625 11.13810547 -4.3228125 9.84066406 -4.328125 8.50390625 C-4.3374707 7.30580322 -4.34681641 6.1077002 -4.35644531 4.87329102 C-4.23881836 3.92510498 -4.12119141 2.97691895 -4 2 C-1 0 -1 0 0 0 Z " fill="#116559" transform="translate(625,575)"/>
<path d="M0 0 C0.33 0 0.66 0 1 0 C1.33 3.96 1.66 7.92 2 12 C2.99 12 3.98 12 5 12 C4.34 11.01 3.68 10.02 3 9 C3 7.68 3 6.36 3 5 C4.32 4.67 5.64 4.34 7 4 C7.06058594 4.63808594 7.12117188 5.27617188 7.18359375 5.93359375 C7.26738281 6.75988281 7.35117187 7.58617187 7.4375 8.4375 C7.51871094 9.26121094 7.59992188 10.08492187 7.68359375 10.93359375 C7.78930815 12.98662025 7.78930815 12.98662025 9 14 C10.68183948 14.23287008 12.3712416 14.41264166 14.0625 14.5625 C14.98160156 14.64628906 15.90070313 14.73007812 16.84765625 14.81640625 C17.55792969 14.87699219 18.26820313 14.93757812 19 15 C19 16.65 19 18.3 19 20 C15.29805418 22.46796388 11.29973061 22.70949829 7 22 C3.72018249 19.93228896 2.15253993 18.22880989 0 15 C-0.14221065 12.39754502 -0.18802932 9.90882316 -0.125 7.3125 C-0.11597656 6.61060547 -0.10695313 5.90871094 -0.09765625 5.18554688 C-0.07413704 3.45688475 -0.03826713 1.72839855 0 0 Z " fill="#257165" transform="translate(484,596)"/>
<path d="M0 0 C10.48788962 -0.37016081 10.48788962 -0.37016081 12.83203125 1.32421875 C14.64548905 3.92613646 14.38474673 5.92202612 14 9 C12.83203125 10.67578125 12.83203125 10.67578125 11 12 C7.29631297 12.40199208 3.73655831 12.13187853 0 12 C0 8.04 0 4.08 0 0 Z " fill="#256C61" transform="translate(593,660)"/>
<path d="M0 0 C0.33 0 0.66 0 1 0 C1.01981934 1.3190332 1.03963867 2.63806641 1.06005859 3.99707031 C1.13737367 8.99218694 1.22587136 13.9870586 1.31738281 18.98193359 C1.35516209 21.12478728 1.39009325 23.2676935 1.421875 25.41064453 C1.70399752 44.21587365 3.02159342 62.55745893 6.31640625 81.08203125 C6.95066836 84.7172592 7.49832658 88.34495081 8 92 C3.90637665 89.27091776 3.79467154 86.18657085 2.875 81.625 C2.70613281 80.89539063 2.53726562 80.16578125 2.36328125 79.4140625 C-1.37241247 61.52979649 -0.13053916 42.39976712 -0.0625 24.25 C-0.05746897 21.88411554 -0.05290893 19.51823004 -0.04882812 17.15234375 C-0.03796336 11.43487238 -0.02135542 5.71744133 0 0 Z " fill="#5D8E81" transform="translate(317,384)"/>
<path d="M0 0 C0.05437607 1.58294782 0.09296271 3.16644256 0.125 4.75 C0.14820313 5.63171875 0.17140625 6.5134375 0.1953125 7.421875 C-0.00860498 10.1135858 -0.63448279 11.69904974 -2 14 C-2 12.68 -2 11.36 -2 10 C-2.66 10 -3.32 10 -4 10 C-4.33 9.01 -4.66 8.02 -5 7 C-5.495 7.165 -5.99 7.33 -6.5 7.5 C-10.03444089 8.20688818 -13.39690701 8.06005155 -17 8 C-17.33 7.01 -17.66 6.02 -18 5 C-19.65 4.67 -21.3 4.34 -23 4 C-19.61650042 2.03591976 -16.47814132 1.44084593 -12.625 0.875 C-11.52414062 0.70742188 -10.42328125 0.53984375 -9.2890625 0.3671875 C-6.15901977 0.0177528 -3.14608144 -0.06653344 0 0 Z " fill="#1E7162" transform="translate(720,371)"/>
<path d="M0 0 C0.33 0 0.66 0 1 0 C1 14.85 1 29.7 1 45 C0.67 43.68 0.34 42.36 0 41 C-0.66 41 -1.32 41 -2 41 C-2.0493521 35.48243524 -2.08569662 29.96499829 -2.10986328 24.44726562 C-2.11993534 22.56931318 -2.13359362 20.69137647 -2.15087891 18.81347656 C-2.17507453 16.1177991 -2.18647083 13.42232854 -2.1953125 10.7265625 C-2.20563507 9.88380768 -2.21595764 9.04105286 -2.22659302 8.17276001 C-2.22699144 6.11378753 -2.12257588 4.05532065 -2 2 C-1.34 1.34 -0.68 0.68 0 0 Z " fill="#16574F" transform="translate(926,388)"/>
<path d="M0 0 C0.99 0 1.98 0 3 0 C3.02470696 5.35684878 3.04286331 10.71366444 3.05493164 16.07055664 C3.0599624 17.89315366 3.06678769 19.71574665 3.07543945 21.53833008 C3.08755997 24.15707394 3.09324086 26.77576447 3.09765625 29.39453125 C3.10281754 30.21025101 3.10797882 31.02597076 3.11329651 31.8664093 C3.1136246 35.17013929 3.05225621 37.84323138 2 41 C1.34 41 0.68 41 0 41 C0 27.47 0 13.94 0 0 Z " fill="#106154" transform="translate(543,575)"/>
<path d="M0 0 C0.33 0 0.66 0 1 0 C1.99293797 10.34757917 2.19700652 20.61320145 2.1875 31 C2.1882251 31.8097226 2.1889502 32.61944519 2.18969727 33.45370483 C2.18845125 46.06419377 1.66265865 58.48552463 0 71 C-0.33 71 -0.66 71 -1 71 C-1.10731909 47.31054899 -1.15080972 23.66811596 0 0 Z " fill="#4A897E" transform="translate(956,375)"/>
<path d="M0 0 C5.19209404 -0.21192221 9.126739 0.4087311 14 2 C12.69467452 5.91597644 11.02734726 6.53830346 7.5625 8.6875 C6.57378906 9.31011719 5.58507812 9.93273437 4.56640625 10.57421875 C2 12 2 12 0 12 C0 8.04 0 4.08 0 0 Z " fill="#20695E" transform="translate(518,370)"/>
<path d="M0 0 C1.16144531 0.00902344 2.32289063 0.01804687 3.51953125 0.02734375 C4.39996094 0.03894531 5.28039062 0.05054688 6.1875 0.0625 C5.1975 2.0425 4.2075 4.0225 3.1875 6.0625 C-2.7525 6.0625 -8.6925 6.0625 -14.8125 6.0625 C-14.8125 4.4125 -14.8125 2.7625 -14.8125 1.0625 C-14.1525 1.0625 -13.4925 1.0625 -12.8125 1.0625 C-13.1425 2.3825 -13.4725 3.7025 -13.8125 5.0625 C-12.4925 5.0625 -11.1725 5.0625 -9.8125 5.0625 C-9.8125 4.4025 -9.8125 3.7425 -9.8125 3.0625 C-10.4725 3.0625 -11.1325 3.0625 -11.8125 3.0625 C-11.8125 2.4025 -11.8125 1.7425 -11.8125 1.0625 C-7.81454108 0.10630267 -4.10446078 -0.0414592 0 0 Z " fill="#13685B" transform="translate(711.8125,660.9375)"/>
<path d="M0 0 C3.96 0 7.92 0 12 0 C11.19642857 10.17857143 11.19642857 10.17857143 9 14 C8.01 14 7.02 14 6 14 C5.67 14.99 5.34 15.98 5 17 C5 12.05 5 7.1 5 2 C3.35 2 1.7 2 0 2 C0 1.34 0 0.68 0 0 Z " fill="#16675A" transform="translate(708,201)"/>
<path d="M0 0 C13.2 0 26.4 0 40 0 C40 4.95 40 9.9 40 15 C39.67 15 39.34 15 39 15 C38.67 10.71 38.34 6.42 38 2 C25.79 2 13.58 2 1 2 C0.67 1.34 0.34 0.68 0 0 Z " fill="#0D5E52" transform="translate(682,645)"/>
<path d="M0 0 C0 0.66 0 1.32 0 2 C0.66 2.33 1.32 2.66 2 3 C2 3.66 2 4.32 2 5 C3.32 5.33 4.64 5.66 6 6 C-1.92 6 -9.84 6 -18 6 C-13.17211755 -0.4371766 -7.50719578 -0.26341038 0 0 Z " fill="#18675C" transform="translate(701,462)"/>
<path d="M0 0 C8.8150919 0.41559987 17.39602581 0.86968908 26 3 C26 3.66 26 4.32 26 5 C20.06 5 14.12 5 8 5 C8.33 4.01 8.66 3.02 9 2 C6.69 2 4.38 2 2 2 C2.33 6.95 2.66 11.9 3 17 C2.34 16.67 1.68 16.34 1 16 C-0.11115605 10.66645094 -0.11083416 5.43087408 0 0 Z " fill="#1C645B" transform="translate(516,287)"/>
<path d="M0 0 C0.99 0.495 0.99 0.495 2 1 C2.4140625 4.16015625 2.4140625 4.16015625 2.625 8.0625 C2.69976563 9.35285156 2.77453125 10.64320313 2.8515625 11.97265625 C2.90054688 12.97167969 2.94953125 13.97070312 3 15 C6.3 14.34 9.6 13.68 13 13 C13 13.66 13 14.32 13 15 C10.6640625 16.7265625 10.6640625 16.7265625 7.625 18.625 C6.12839844 19.57246094 6.12839844 19.57246094 4.6015625 20.5390625 C2 22 2 22 0 22 C0 14.74 0 7.48 0 0 Z " fill="#1B6259" transform="translate(611,299)"/>
<path d="M0 0 C12.87 0 25.74 0 39 0 C39 0.66 39 1.32 39 2 C30.37584331 3.06841058 21.98139314 2.95347652 13.3125 2.5625 C12.02666016 2.51029297 10.74082031 2.45808594 9.41601562 2.40429688 C6.27701766 2.27593636 3.1384493 2.14104312 0 2 C0 1.34 0 0.68 0 0 Z " fill="#0C5F54" transform="translate(527,631)"/>
<path d="M0 0 C0.33 0 0.66 0 1 0 C1 8.91 1 17.82 1 27 C-2.42747688 21.85878468 -3.29373 18.87547536 -3.3125 12.5625 C-3.32925781 11.26441406 -3.34601562 9.96632813 -3.36328125 8.62890625 C-2.98796196 4.87974903 -2.26113922 2.97096521 0 0 Z " fill="#16695C" transform="translate(631,673)"/>
<path d="M0 0 C11.55 0 23.1 0 35 0 C34.67 1.32 34.34 2.64 34 4 C34 3.34 34 2.68 34 2 C32.98542725 2.16749756 31.97085449 2.33499512 30.92553711 2.50756836 C27.24261097 2.96956612 23.89302668 3.03242968 20.19140625 2.87890625 C18.95068359 2.83056641 17.70996094 2.78222656 16.43164062 2.73242188 C15.15482422 2.67634766 13.87800781 2.62027344 12.5625 2.5625 C11.25861328 2.51029297 9.95472656 2.45808594 8.61132812 2.40429688 C5.40727553 2.27519585 2.20358054 2.14025405 -1 2 C-0.67 1.34 -0.34 0.68 0 0 Z " fill="#116359" transform="translate(579,645)"/>
<path d="M0 0 C6.6 0 13.2 0 20 0 C20 0.33 20 0.66 20 1 C16.37 1 12.74 1 9 1 C9 2.32 9 3.64 9 5 C9.99 5.66 10.98 6.32 12 7 C8.04 7 4.08 7 0 7 C0 4.69 0 2.38 0 0 Z " fill="#135E56" transform="translate(696,682)"/>
<path d="M0 0 C12.87 0 25.74 0 39 0 C38.67 0.66 38.34 1.32 38 2 C31.35381917 3.03705671 24.72604436 3.2445011 18.07275391 2.25830078 C16.01213385 2.00151209 14.0364753 1.92919084 11.9609375 1.9296875 C11.22987793 1.9289624 10.49881836 1.9282373 9.74560547 1.92749023 C6.49687556 1.94197142 3.24857938 1.96451794 0 2 C0 1.34 0 0.68 0 0 Z " fill="#0C6054" transform="translate(681,631)"/>
<path d="M0 0 C-0.33 1.32 -0.66 2.64 -1 4 C-1.66 4 -2.32 4 -3 4 C-2.77183594 4.83144531 -2.54367187 5.66289062 -2.30859375 6.51953125 C-2.02113281 7.60621094 -1.73367188 8.69289063 -1.4375 9.8125 C-1.14746094 10.89144531 -0.85742188 11.97039062 -0.55859375 13.08203125 C0 16 0 16 -1 19 C-3.94033413 13.42234327 -6.53012914 8.14673271 -8 2 C-5.44123378 -0.55876622 -3.37797483 -1.68898741 0 0 Z " fill="#166359" transform="translate(528,484)"/>
<path d="M0 0 C0.33 0 0.66 0 1 0 C1.33 3.3 1.66 6.6 2 10 C2.33 9.34 2.66 8.68 3 8 C5.5625 7.375 5.5625 7.375 8 7 C7.21149464 9.25115271 6.41932463 11.50090104 5.625 13.75 C5.40328125 14.38421875 5.1815625 15.0184375 4.953125 15.671875 C3.81280698 18.89159648 2.62529835 21.99243857 1 25 C0.67 25 0.34 25 0 25 C0 16.75 0 8.5 0 0 Z " fill="#C5DDD3" transform="translate(625,417)"/>
<path d="M0 0 C2.52113092 -0.05447822 5.0410585 -0.09389852 7.5625 -0.125 C8.26697266 -0.14175781 8.97144531 -0.15851563 9.69726562 -0.17578125 C14.52051947 -0.2202352 18.4489597 0.3586412 23 2 C23.66 2.66 24.32 3.32 25 4 C16.75 3.67 8.5 3.34 0 3 C0 2.01 0 1.02 0 0 Z " fill="#277364" transform="translate(647,74)"/>
<path d="M0 0 C6.93 0.495 6.93 0.495 14 1 C14 1.33 14 1.66 14 2 C6.80701115 2.95488001 -0.2218878 3.13128431 -7.47265625 3.09765625 C-8.6363121 3.0962413 -9.79996796 3.09482635 -10.99888611 3.09336853 C-14.68678443 3.08780628 -18.37462027 3.07526083 -22.0625 3.0625 C-24.57486891 3.05748012 -27.08723878 3.05291807 -29.59960938 3.04882812 C-35.73309395 3.03784923 -41.86654251 3.02114903 -48 3 C-48 2.67 -48 2.34 -48 2 C-32.16 2 -16.32 2 0 2 C0 1.34 0 0.68 0 0 Z " fill="#358071" transform="translate(640,742)"/>
<path d="M0 0 C0 5.61 0 11.22 0 17 C-0.33 17 -0.66 17 -1 17 C-1.33 14.69 -1.66 12.38 -2 10 C-2.33 10.99 -2.66 11.98 -3 13 C-3.66 13 -4.32 13 -5 13 C-6.26237731 10.47524538 -6.09856404 8.68799534 -6.0625 5.875 C-6.05347656 4.96492187 -6.04445313 4.05484375 -6.03515625 3.1171875 C-6.02355469 2.41851563 -6.01195312 1.71984375 -6 1 C-1.125 0 -1.125 0 0 0 Z " fill="#0F5C52" transform="translate(678,575)"/>
<path d="M0 0 C1.23556641 0.01740234 1.23556641 0.01740234 2.49609375 0.03515625 C3.32238281 0.04417969 4.14867187 0.05320312 5 0.0625 C5.63808594 0.07410156 6.27617188 0.08570313 6.93359375 0.09765625 C7.01692732 4.93100345 6.88620862 9.33458188 5.93359375 14.09765625 C5.60359375 12.77765625 5.27359375 11.45765625 4.93359375 10.09765625 C4.27359375 10.09765625 3.61359375 10.09765625 2.93359375 10.09765625 C2.93359375 7.78765625 2.93359375 5.47765625 2.93359375 3.09765625 C-1.68640625 3.42765625 -6.30640625 3.75765625 -11.06640625 4.09765625 C-10.73640625 3.43765625 -10.40640625 2.77765625 -10.06640625 2.09765625 C-7.73924625 1.72364839 -5.40522763 1.39000892 -3.06640625 1.09765625 C-2.06640625 0.09765625 -2.06640625 0.09765625 0 0 Z " fill="#2D786B" transform="translate(713.06640625,458.90234375)"/>
<path d="M0 0 C0.33 0 0.66 0 1 0 C1 3.96 1 7.92 1 12 C2.32 12 3.64 12 5 12 C5 11.34 5 10.68 5 10 C5.66 10.33 6.32 10.66 7 11 C6.58427734 12.10408203 6.58427734 12.10408203 6.16015625 13.23046875 C5.79792969 14.20628906 5.43570313 15.18210937 5.0625 16.1875 C4.70285156 17.15042969 4.34320312 18.11335938 3.97265625 19.10546875 C3.08843438 21.7368278 2.47431414 24.26894908 2 27 C1.34 27 0.68 27 0 27 C0 18.09 0 9.18 0 0 Z " fill="#BDD5CA" transform="translate(624,247)"/>
<path d="M0 0 C0.66 0.33 1.32 0.66 2 1 C-1.69097303 5.47809696 -4.87155461 9.16585913 -10 12 C-11.68933922 13.6436814 -13.35259924 15.3142876 -15 17 C-17.63769119 19.36703258 -20.31438773 21.68757455 -23 24 C-23.66 23.67 -24.32 23.34 -25 23 C-18.72255092 16.5039937 -12.4024298 10.48099101 -5.3125 4.875 C-3.40983152 3.33229583 -1.68431438 1.77296251 0 0 Z " fill="#D9E8DD" transform="translate(430,171)"/>
<path d="M0 0 C1.22589844 0.01353516 1.22589844 0.01353516 2.4765625 0.02734375 C3.41628906 0.04474609 3.41628906 0.04474609 4.375 0.0625 C4.375 1.3825 4.375 2.7025 4.375 4.0625 C5.035 4.3925 5.695 4.7225 6.375 5.0625 C6.045 5.3925 5.715 5.7225 5.375 6.0625 C3.35091245 5.97247602 1.32955713 5.81608962 -0.6875 5.625 C-2.34458984 5.47224609 -2.34458984 5.47224609 -4.03515625 5.31640625 C-4.88980469 5.23261719 -5.74445312 5.14882813 -6.625 5.0625 C-6.625 3.7425 -6.625 2.4225 -6.625 1.0625 C-4.21954362 -0.14022819 -2.67503047 -0.03821472 0 0 Z " fill="#186759" transform="translate(698.625,374.9375)"/>
<path d="M0 0 C0.66 0 1.32 0 2 0 C2.33 1.98 2.66 3.96 3 6 C3.33 6 3.66 6 4 6 C4 9.96 4 13.92 4 18 C2.33333333 18 0.66666667 18 -1 18 C-0.505 9.09 -0.505 9.09 0 0 Z " fill="#136559" transform="translate(674,603)"/>
<path d="M0 0 C0.33 0 0.66 0 1 0 C1 14.85 1 29.7 1 45 C0.67 43.68 0.34 42.36 0 41 C-0.66 41 -1.32 41 -2 41 C-2.125 35.25 -2.125 35.25 -1 33 C-0.84373424 30.52167341 -0.74186802 28.06688669 -0.68359375 25.5859375 C-0.66281265 24.85629791 -0.64203156 24.12665833 -0.62062073 23.37490845 C-0.55518083 21.04170237 -0.49626632 18.70838279 -0.4375 16.375 C-0.39430947 14.79425905 -0.35069501 13.21352961 -0.30664062 11.6328125 C-0.19950519 7.75532496 -0.09822218 3.87772315 0 0 Z " fill="#166258" transform="translate(926,388)"/>
<path d="M0 0 C0.05437607 1.58294782 0.09296271 3.16644256 0.125 4.75 C0.14820313 5.63171875 0.17140625 6.5134375 0.1953125 7.421875 C-0.00860498 10.1135858 -0.63448279 11.69904974 -2 14 C-2 12.68 -2 11.36 -2 10 C-2.66 10 -3.32 10 -4 10 C-4.33 7.69 -4.66 5.38 -5 3 C-7.64 2.67 -10.28 2.34 -13 2 C-13 1.67 -13 1.34 -13 1 C-8.61414671 0.29826347 -4.44209357 -0.10834375 0 0 Z " fill="#287B6C" transform="translate(720,371)"/>
<path d="M0 0 C7.59 0 15.18 0 23 0 C23 0.33 23 0.66 23 1 C13.595 1.495 13.595 1.495 4 2 C4 2.66 4 3.32 4 4 C4.66 4 5.32 4 6 4 C6 4.66 6 5.32 6 6 C4.68 6 3.36 6 2 6 C2.33 4.68 2.66 3.36 3 2 C2.34 2 1.68 2 1 2 C1 3.65 1 5.3 1 7 C3.64 7 6.28 7 9 7 C9 7.33 9 7.66 9 8 C6.03 8 3.06 8 0 8 C0 5.36 0 2.72 0 0 Z " fill="#478B7E" transform="translate(696,660)"/>
<path d="M0 0 C1.51830386 0.04233866 3.0364555 0.09036263 4.55444336 0.14282227 C5.75090736 0.17823875 5.75090736 0.17823875 6.97154236 0.21437073 C9.52929684 0.29119112 12.08676238 0.37513567 14.64428711 0.45922852 C16.37409049 0.51243084 18.10390814 0.56517135 19.83374023 0.61743164 C24.08327355 0.74683094 28.33256093 0.88262164 32.58178711 1.02172852 C32.58178711 1.35172852 32.58178711 1.68172852 32.58178711 2.02172852 C31.53724365 2.04678467 30.4927002 2.07184082 29.41650391 2.09765625 C25.54186695 2.19181391 21.66740577 2.29201423 17.79296875 2.39404297 C16.11592724 2.43736019 14.43884253 2.47903758 12.76171875 2.51904297 C10.3513487 2.57682337 7.94119541 2.64049532 5.53100586 2.70532227 C4.78090744 2.72203476 4.03080902 2.73874725 3.25798035 2.75596619 C0.12500719 2.84517085 -2.42530649 3.02409305 -5.41821289 4.02172852 C-6.81260953 4.08838227 -8.20991164 4.1071105 -9.60571289 4.08422852 C-11.49290039 4.05329102 -11.49290039 4.05329102 -13.41821289 4.02172852 C-13.41821289 3.69172852 -13.41821289 3.36172852 -13.41821289 3.02172852 C-12.46108398 2.82256836 -12.46108398 2.82256836 -11.48461914 2.61938477 C-10.65833008 2.4427832 -9.83204102 2.26618164 -8.98071289 2.08422852 C-8.15700195 1.91020508 -7.33329102 1.73618164 -6.48461914 1.55688477 C-0.48490037 0.00308236 -0.48490037 0.00308236 0 0 Z " fill="#3F877C" transform="translate(598.418212890625,103.978271484375)"/>
<path d="M0 0 C0.99 0.495 0.99 0.495 2 1 C3.49282535 8.87126091 3.16050516 17.0883822 2 25 C1.34 25.33 0.68 25.66 0 26 C0 17.42 0 8.84 0 0 Z " fill="#1A6558" transform="translate(742,601)"/>
<path d="M0 0 C0 0.66 0 1.32 0 2 C-4.91304295 5.02341105 -9.33257262 5.87278382 -15 5 C-15.66 4.34 -16.32 3.68 -17 3 C-14.24954445 0.24954445 -12.33444231 0.60404855 -8.5 0.375 C-7.3346875 0.30023438 -6.169375 0.22546875 -4.96875 0.1484375 C-3.31382845 0.06569142 -1.65698891 0 0 0 Z " fill="#16675A" transform="translate(663,458)"/>
<path d="M0 0 C0.66 0.33 1.32 0.66 2 1 C2.36011137 9.50262969 1.2527717 17.61090382 0 26 C-0.33 26 -0.66 26 -1 26 C-2.60693281 17.16186956 -1.22331878 8.80587322 0 0 Z " fill="#35796C" transform="translate(318,358)"/>
<path d="M0 0 C1.125 1.75 1.125 1.75 2 4 C1.3125 5.875 1.3125 5.875 0 8 C-0.53625 9.0725 -1.0725 10.145 -1.625 11.25 C-2.07875 12.1575 -2.5325 13.065 -3 14 C-3.66 14 -4.32 14 -5 14 C-4.85831863 12.56208484 -4.71148957 11.1246763 -4.5625 9.6875 C-4.48128906 8.88699219 -4.40007813 8.08648437 -4.31640625 7.26171875 C-4 5 -4 5 -3 2 C-2.01 1.34 -1.02 0.68 0 0 Z " fill="#1B675B" transform="translate(632,258)"/>
<path d="M0 0 C0.66 0.33 1.32 0.66 2 1 C2.1176305 11.06394247 1.87801178 20.96557967 1 31 C0.67 31 0.34 31 0 31 C-0.16754147 26.90682137 -0.32810824 22.81343505 -0.48217773 18.71972656 C-0.53559149 17.32674778 -0.59092043 15.93384107 -0.64819336 14.54101562 C-0.73012069 12.54056398 -0.80462098 10.5398125 -0.87890625 8.5390625 C-0.9260376 7.33459473 -0.97316895 6.13012695 -1.02172852 4.88916016 C-1 2 -1 2 0 0 Z " fill="#0E6153" transform="translate(612,244)"/>
<path d="M0 0 C1.65 0 3.3 0 5 0 C4.67 3.3 4.34 6.6 4 10 C2.68 9.34 1.36 8.68 0 8 C-0.8125 4.4375 -0.8125 4.4375 -1 1 C-0.67 0.67 -0.34 0.34 0 0 Z " fill="#166156" transform="translate(747,576)"/>
<path d="M0 0 C-0.66 0 -1.32 0 -2 0 C-2 0.66 -2 1.32 -2 2 C-4.97 2 -7.94 2 -11 2 C-11 7.61 -11 13.22 -11 19 C-13.31 19.33 -15.62 19.66 -18 20 C-17.19175781 19.49984375 -16.38351562 18.9996875 -15.55078125 18.484375 C-12.70648831 15.7141295 -12.3756508 14.2206252 -12.20507812 10.31640625 C-12.19927734 9.63449219 -12.19347656 8.95257813 -12.1875 8.25 C-12.16236328 7.55261719 -12.13722656 6.85523438 -12.11132812 6.13671875 C-12.05271038 4.42508051 -12.02342947 2.7124814 -12 1 C-3.96428571 -1.27678571 -3.96428571 -1.27678571 0 0 Z " fill="#C0DDCF" transform="translate(637,297)"/>
<path d="M0 0 C1.15242187 0.00902344 2.30484375 0.01804687 3.4921875 0.02734375 C4.36101563 0.03894531 5.22984375 0.05054688 6.125 0.0625 C6.125 0.3925 6.125 0.7225 6.125 1.0625 C1.67 1.5575 1.67 1.5575 -2.875 2.0625 C-2.875 2.7225 -2.875 3.3825 -2.875 4.0625 C-6.505 4.0625 -10.135 4.0625 -13.875 4.0625 C-13.545 3.0725 -13.215 2.0825 -12.875 1.0625 C-8.52167264 0.22226812 -4.43057481 -0.04520995 0 0 Z " fill="#16665A" transform="translate(709.875,588.9375)"/>
<path d="M0 0 C0.66 0 1.32 0 2 0 C0.59155282 3.21524305 -1.10344786 5.32183868 -3.625 7.75 C-4.57246094 8.67039062 -4.57246094 8.67039062 -5.5390625 9.609375 C-6.02117188 10.06828125 -6.50328125 10.5271875 -7 11 C-7.66 10.67 -8.32 10.34 -9 10 C-9.625 7.4375 -9.625 7.4375 -10 5 C-8.906875 4.731875 -7.81375 4.46375 -6.6875 4.1875 C-3.26833673 3.08641352 -2.22408019 2.57525074 0 0 Z " fill="#156156" transform="translate(693,259)"/>
<path d="M0 0 C0.33 0.66 0.66 1.32 1 2 C0.34 2 -0.32 2 -1 2 C-1.33 3.98 -1.66 5.96 -2 8 C-3.11375 7.9071875 -3.11375 7.9071875 -4.25 7.8125 C-7.06407402 7.75192497 -7.06407402 7.75192497 -9.0625 9.5625 C-9.701875 10.036875 -10.34125 10.51125 -11 11 C-12.32 10.67 -13.64 10.34 -15 10 C-10.05 6.7 -5.1 3.4 0 0 Z M-5 5 C-5.33 5.66 -5.66 6.32 -6 7 C-5.34 7 -4.68 7 -4 7 C-4.33 6.34 -4.66 5.68 -5 5 Z " fill="#267368" transform="translate(625,331)"/>
<path d="M0 0 C0 0.66 0 1.32 0 2 C-5.94 2 -11.88 2 -18 2 C-15.26784276 -3.46431448 -4.97510541 -0.99502108 0 0 Z " fill="#135F55" transform="translate(542,290)"/>
<path d="M0 0 C0 4.62 0 9.24 0 14 C-0.66 13.34 -1.32 12.68 -2 12 C-2.33 13.98 -2.66 15.96 -3 18 C-3.33 18 -3.66 18 -4 18 C-4.08074203 15.37438891 -4.1403623 12.75124324 -4.1875 10.125 C-4.21263672 9.37863281 -4.23777344 8.63226562 -4.26367188 7.86328125 C-4.29296875 5.6953125 -4.29296875 5.6953125 -4 2 C-1 0 -1 0 0 0 Z " fill="#0B5A4F" transform="translate(625,575)"/>
<path d="M0 0 C-0.66 2.31 -1.32 4.62 -2 7 C-4.31 6.67 -6.62 6.34 -9 6 C-6.97377245 1.32409027 -5.29661848 0 0 0 Z " fill="#155F54" transform="translate(605,432)"/>
<path d="M0 0 C1.27230469 0.00902344 2.54460938 0.01804687 3.85546875 0.02734375 C5.31919922 0.04474609 5.31919922 0.04474609 6.8125 0.0625 C6.4825 0.7225 6.1525 1.3825 5.8125 2.0625 C-0.44616905 3.45331535 -6.80715445 3.15679082 -13.1875 3.0625 C-8.60237138 0.00574759 -5.41643676 -0.04969208 0 0 Z " fill="#17685A" transform="translate(580.1875,74.9375)"/>
<path d="M0 0 C1.14857926 3.44573777 1.03468706 6.15624655 0.9375 9.74609375 C0.99950143 11.98202025 1.3758017 13.85919489 2 16 C1.01 16 0.02 16 -1 16 C-1.33 16.66 -1.66 17.32 -2 18 C-2.05382106 15.37472811 -2.09358313 12.75055287 -2.125 10.125 C-2.14175781 9.37863281 -2.15851563 8.63226562 -2.17578125 7.86328125 C-2.1933959 5.90805539 -2.10320189 3.95257979 -2 2 C-1.34 1.34 -0.68 0.68 0 0 Z " fill="#0D5A4F" transform="translate(487,592)"/>
<path d="M0 0 C1.77260631 0.45142775 3.5430368 0.91140523 5.3125 1.375 C6.79169922 1.75785156 6.79169922 1.75785156 8.30078125 2.1484375 C11 3 11 3 14 5 C11.87506859 5.02693575 9.75004088 5.04636628 7.625 5.0625 C6.44164062 5.07410156 5.25828125 5.08570313 4.0390625 5.09765625 C1 5 1 5 -1 4 C-0.67 2.68 -0.34 1.36 0 0 Z " fill="#E8F3EC" transform="translate(576,547)"/>
<path d="M0 0 C0.66 0.33 1.32 0.66 2 1 C0.06375702 7.20477864 -2.25609141 13.10825719 -5 19 C-7.07735833 12.12528898 -3.19620828 5.97349607 0 0 Z " fill="#C9D8D7" transform="translate(310,270)"/>
<path d="M0 0 C2.30441554 3.45662331 2.25860135 4.94857881 2 9 C1.67 9.66 1.34 10.32 1 11 C0.34 11 -0.32 11 -1 11 C-1.99 7.7 -2.98 4.4 -4 1 C-2.68 0.67 -1.36 0.34 0 0 Z " fill="#18645A" transform="translate(906,292)"/>
<path d="M0 0 C0.99 0.33 1.98 0.66 3 1 C2.67 1.33 2.34 1.66 2 2 C2.99 2.66 3.98 3.32 5 4 C4.67 4.99 4.34 5.98 4 7 C0.7 6.67 -2.6 6.34 -6 6 C-5.34 5.67 -4.68 5.34 -4 5 C-3.67 4.34 -3.34 3.68 -3 3 C-2 1 -2 1 0 0 Z " fill="#17665A" transform="translate(678,296)"/>
<path d="M0 0 C0.99 1.485 0.99 1.485 2 3 C2.66 2.67 3.32 2.34 4 2 C4 6.29 4 10.58 4 15 C3.34 15 2.68 15 2 15 C-0.10428384 9.87080814 -0.21755666 5.4389165 0 0 Z " fill="#145C53" transform="translate(591,196)"/>
<path d="M0 0 C5.45769811 -0.11138159 10.61509359 0.08342019 16 1 C16 1.99 16 2.98 16 4 C11.38 3.34 6.76 2.68 2 2 C2 2.66 2 3.32 2 4 C1.34 4 0.68 4 0 4 C0 2.68 0 1.36 0 0 Z " fill="#2B6D63" transform="translate(516,200)"/>
<path d="M0 0 C3.3 0 6.6 0 10 0 C9.34 1.32 8.68 2.64 8 4 C4.375 4.75 4.375 4.75 1 5 C0.67 3.35 0.34 1.7 0 0 Z " fill="#1A6257" transform="translate(654,283)"/>
<path d="M0 0 C5.61 0 11.22 0 17 0 C12.96076287 2.69282475 10.04463848 3.13300939 5.25 3.0625 C4.45078125 3.05347656 3.6515625 3.04445313 2.828125 3.03515625 C2.22484375 3.02355469 1.6215625 3.01195313 1 3 C0.67 2.01 0.34 1.02 0 0 Z " fill="#146255" transform="translate(555,108)"/>
<path d="M0 0 C0 0.66 0 1.32 0 2 C-1.65 2.66 -3.3 3.32 -5 4 C-5 5.65 -5 7.3 -5 9 C-8.875 7.25 -8.875 7.25 -10 5 C-10.66 4.67 -11.32 4.34 -12 4 C-10.3767313 3.3291288 -8.75132422 2.66342971 -7.125 2 C-6.22007812 1.62875 -5.31515625 1.2575 -4.3828125 0.875 C-2 0 -2 0 0 0 Z " fill="#317B70" transform="translate(689,205)"/>
<path d="M0 0 C0.66 0 1.32 0 2 0 C2.33 3.3 2.66 6.6 3 10 C2.34 10 1.68 10 1 10 C1.33 10.66 1.66 11.32 2 12 C2.04022391 14.3329866 2.04320247 16.66706666 2 19 C1.34 19 0.68 19 0 19 C0 12.73 0 6.46 0 0 Z " fill="#196457" transform="translate(322,322)"/>
<path d="M0 0 C0 3.63 0 7.26 0 11 C-3 10 -3 10 -4.1875 8.125 C-5 6 -5 6 -5 3 C-1.55555556 0 -1.55555556 0 0 0 Z " fill="#125F57" transform="translate(605,223)"/>
<path d="M0 0 C0.66 0.33 1.32 0.66 2 1 C-0.64 4.3 -3.28 7.6 -6 11 C-6.33 10.34 -6.66 9.68 -7 9 C-7.66 8.67 -8.32 8.34 -9 8 C-7.87811441 6.85111717 -6.75238316 5.70598863 -5.625 4.5625 C-4.99851562 3.92441406 -4.37203125 3.28632813 -3.7265625 2.62890625 C-2 1 -2 1 0 0 Z " fill="#297469" transform="translate(650,484)"/>
<path d="M0 0 C2.97 0.33 5.94 0.66 9 1 C9 1.66 9 2.32 9 3 C6.09451118 5.04169485 4.59857954 6 1 6 C0.67 4.02 0.34 2.04 0 0 Z " fill="#166557" transform="translate(859,234)"/>
<path d="M0 0 C0.99 0.495 0.99 0.495 2 1 C2.44921875 3.8359375 2.44921875 3.8359375 2.6875 7.375 C2.77386719 8.53773438 2.86023438 9.70046875 2.94921875 10.8984375 C3 14 3 14 2 17 C1.34 17 0.68 17 0 17 C0 11.39 0 5.78 0 0 Z " fill="#12594F" transform="translate(611,299)"/>
<path d="M0 0 C-0.33 0.99 -0.66 1.98 -1 3 C-1.66 3 -2.32 3 -3 3 C-3 3.66 -3 4.32 -3 5 C-4.53125 6.2890625 -4.53125 6.2890625 -6.5 7.625 C-7.1496875 8.07101563 -7.799375 8.51703125 -8.46875 8.9765625 C-8.9740625 9.31429687 -9.479375 9.65203125 -10 10 C-10 9.34 -10 8.68 -10 8 C-10.66 7.67 -11.32 7.34 -12 7 C-10.3790787 5.82767315 -8.75313167 4.6622923 -7.125 3.5 C-6.22007812 2.8503125 -5.31515625 2.200625 -4.3828125 1.53125 C-2 0 -2 0 0 0 Z " fill="#2A736A" transform="translate(790,223)"/>
<path d="M0 0 C0.99 0.33 1.98 0.66 3 1 C3.625 2.875 3.625 2.875 4 5 C4.33 5.99 4.66 6.98 5 8 C0.56541027 6.6062718 -1.87378374 4.39417765 -5 1 C-3 0 -3 0 0 0 Z " fill="#186458" transform="translate(797,156)"/>
<path d="M0 0 C0.99 0.33 1.98 0.66 3 1 C3.14285714 9.57142857 3.14285714 9.57142857 2 13 C1.34 13 0.68 13 0 13 C0 8.71 0 4.42 0 0 Z " fill="#1E6559" transform="translate(713,390)"/>
<path d="M0 0 C0.66 0 1.32 0 2 0 C2 4.95 2 9.9 2 15 C0 14 0 14 -0.6875 12 C-1.11389971 7.90656277 -0.57491832 4.05980784 0 0 Z M-2 14 C-1.01 14.495 -1.01 14.495 0 15 C-0.99 15.495 -0.99 15.495 -2 16 C-2 15.34 -2 14.68 -2 14 Z " fill="#156657" transform="translate(290,339)"/>
<path d="M0 0 C0.66 0.33 1.32 0.66 2 1 C1.2884375 2.175625 1.2884375 2.175625 0.5625 3.375 C-0.33898023 4.88948678 -1.21179485 6.4235897 -2 8 C-4.31 7.67 -6.62 7.34 -9 7 C-6.3765992 4.08511023 -3.28183606 2.11496102 0 0 Z " fill="#277066" transform="translate(799,216)"/>
<path d="M0 0 C-4.6289961 2.68943231 -8.60393217 3.50873316 -13.875 3.6875 C-14.56335938 3.72166016 -15.25171875 3.75582031 -15.9609375 3.79101562 C-17.64008613 3.87264091 -19.32001168 3.9380157 -21 4 C-17.62239627 1.74826418 -15.01777776 1.1633205 -11.0625 0.3125 C-9.83660156 0.04050781 -8.61070312 -0.23148438 -7.34765625 -0.51171875 C-4.37544136 -0.94523901 -2.76075615 -1.03095906 0 0 Z " fill="#AEC9C6" transform="translate(700,737)"/>
<path d="M0 0 C0.66 0 1.32 0 2 0 C2.33 1.98 2.66 3.96 3 6 C3.33 6 3.66 6 4 6 C4.25 8.3125 4.25 8.3125 4 11 C2.68 11.99 1.36 12.98 0 14 C0 9.38 0 4.76 0 0 Z " fill="#146457" transform="translate(713,470)"/>
<path d="M0 0 C3.95820859 0.56545837 6.6659053 1.80902348 10 4 C7.77109005 5.11445498 6.46944894 5.16480286 4 5.1875 C2.948125 5.20876953 2.948125 5.20876953 1.875 5.23046875 C0 5 0 5 -2 3 C-1.34 2.01 -0.68 1.02 0 0 Z " fill="#156155" transform="translate(558,298)"/>
<path d="M0 0 C3.63 0.66 7.26 1.32 11 2 C11 2.66 11 3.32 11 4 C8.22899606 5.38550197 6.0665294 5.1877467 3 5 C2.01 4.34 1.02 3.68 0 3 C0 2.01 0 1.02 0 0 Z " fill="#297063" transform="translate(589,613)"/>
<path d="M0 0 C1.9375 0.125 1.9375 0.125 4 1 C5.25 3.5625 5.25 3.5625 6 6 C3.69 5.67 1.38 5.34 -1 5 C-1 1 -1 1 0 0 Z " fill="#175F56" transform="translate(571,452)"/>
<path d="M0 0 C0.33 0 0.66 0 1 0 C1 6.27 1 12.54 1 19 C-0.9811362 15.0377276 -2.47740841 11.15252251 -4 7 C-3.34 7 -2.68 7 -2 7 C-1.67 7.66 -1.34 8.32 -1 9 C-0.67 6.03 -0.34 3.06 0 0 Z " fill="#C7DFD5" transform="translate(610,426)"/>
<path d="M0 0 C1.32 0 2.64 0 4 0 C4 0.66 4 1.32 4 2 C4.66 2 5.32 2 6 2 C5.67 2.99 5.34 3.98 5 5 C4.34 4.67 3.68 4.34 3 4 C3 4.66 3 5.32 3 6 C2.34 6 1.68 6 1 6 C0.67 6.99 0.34 7.98 0 9 C0 6.03 0 3.06 0 0 Z " fill="#126459" transform="translate(594,685)"/>
<path d="M0 0 C0.91007813 0.00902344 1.82015625 0.01804687 2.7578125 0.02734375 C3.45648437 0.03894531 4.15515625 0.05054688 4.875 0.0625 C1.99412454 2.46322955 -0.68904834 4.53541037 -4.125 6.0625 C-4.455 5.0725 -4.785 4.0825 -5.125 3.0625 C-5.785 3.0625 -6.445 3.0625 -7.125 3.0625 C-7.125 2.4025 -7.125 1.7425 -7.125 1.0625 C-4.60024538 -0.19987731 -2.81299534 -0.03606404 0 0 Z " fill="#257669" transform="translate(526.125,373.9375)"/>
<path d="M0 0 C0.66 0.33 1.32 0.66 2 1 C-0.31 5.62 -2.62 10.24 -5 15 C-5.66 13.68 -6.32 12.36 -7 11 C-6.01 10.67 -5.02 10.34 -4 10 C-3.896875 9.278125 -3.79375 8.55625 -3.6875 7.8125 C-2.94013068 4.75508007 -1.71954811 2.61670365 0 0 Z " fill="#2B7168" transform="translate(351,263)"/>
<path d="M0 0 C-1.25125384 3.75376152 -2.5652404 4.24073289 -6 6 C-6.66 6 -7.32 6 -8 6 C-7.625 3.0625 -7.625 3.0625 -7 0 C-4.3333581 -1.33332095 -2.83319697 -0.67102033 0 0 Z " fill="#1D675E" transform="translate(465,146)"/>
<path d="M0 0 C0 0.66 0 1.32 0 2 C0.99 2 1.98 2 3 2 C3 2.66 3 3.32 3 4 C0.36 4 -2.28 4 -5 4 C-5 4.66 -5 5.32 -5 6 C-5.66 6 -6.32 6 -7 6 C-6.6875 4.125 -6.6875 4.125 -6 2 C-3 0 -3 0 0 0 Z " fill="#17665D" transform="translate(417,142)"/>
<path d="M0 0 C0 4.95 0 9.9 0 15 C-0.33 15 -0.66 15 -1 15 C-1.33 10.71 -1.66 6.42 -2 2 C-4.64 2 -7.28 2 -10 2 C-10 1.67 -10 1.34 -10 1 C-6.56484998 0.37542727 -3.50935186 0 0 0 Z " fill="#116459" transform="translate(722,645)"/>
<path d="M0 0 C3.64824138 0.60943163 5.8159523 2.15450092 8.6875 4.4375 C9.47511719 5.05496094 10.26273438 5.67242187 11.07421875 6.30859375 C13 8 13 8 14 10 C11.08654095 8.5532709 8.18604692 7.08714225 5.3125 5.5625 C4.52488281 5.15128906 3.73726562 4.74007813 2.92578125 4.31640625 C1 3 1 3 0 0 Z " fill="#1A6459" transform="translate(573,474)"/>
<path d="M0 0 C0.33 0.99 0.66 1.98 1 3 C0.34 3.66 -0.32 4.32 -1 5 C-2.32 5 -3.64 5 -5 5 C-5.66 6.32 -6.32 7.64 -7 9 C-8.32 8.67 -9.64 8.34 -11 8 C-7.37 5.36 -3.74 2.72 0 0 Z " fill="#2A7D71" transform="translate(663,390)"/>
<path d="M0 0 C4.62 0 9.24 0 14 0 C13.67 3.63 13.34 7.26 13 11 C12.67 11 12.34 11 12 11 C11.67 8.03 11.34 5.06 11 2 C7.37 1.67 3.74 1.34 0 1 C0 0.67 0 0.34 0 0 Z " fill="#0F5E53" transform="translate(555,615)"/>
<path d="M0 0 C1.65 0 3.3 0 5 0 C5 1.65 5 3.3 5 5 C0.545 5.495 0.545 5.495 -4 6 C-2.68 5.67 -1.36 5.34 0 5 C0 3.35 0 1.7 0 0 Z " fill="#146A5F" transform="translate(496,611)"/>
<path d="M0 0 C0 3 0 3 -1.53125 4.82421875 C-2.1809375 5.43910156 -2.830625 6.05398438 -3.5 6.6875 C-4.1496875 7.31011719 -4.799375 7.93273437 -5.46875 8.57421875 C-5.9740625 9.04472656 -6.479375 9.51523437 -7 10 C-8.5 8.625 -8.5 8.625 -10 7 C-10 6.34 -10 5.68 -10 5 C-8.9171875 5.1546875 -8.9171875 5.1546875 -7.8125 5.3125 C-3.87958411 4.87550935 -2.53678077 2.89917803 0 0 Z " fill="#176058" transform="translate(693,522)"/>
<path d="M0 0 C0.33 0 0.66 0 1 0 C1 2.31 1 4.62 1 7 C1.66 7 2.32 7 3 7 C2.67 8.65 2.34 10.3 2 12 C1.67 12 1.34 12 1 12 C0.67 13.65 0.34 15.3 0 17 C-0.33 17 -0.66 17 -1 17 C-0.67 11.39 -0.34 5.78 0 0 Z " fill="#397B6D" transform="translate(923,422)"/>
<path d="M0 0 C0.66 0.33 1.32 0.66 2 1 C2 2.32 2 3.64 2 5 C1.34 5.66 0.68 6.32 0 7 C-2.125 6.625 -2.125 6.625 -4 6 C-4 5.01 -4 4.02 -4 3 C-2 1.3125 -2 1.3125 0 0 Z " fill="#217567" transform="translate(829,196)"/>
<path d="M0 0 C0.66 0.33 1.32 0.66 2 1 C0.23762479 4.03520175 -0.61659622 4.89045606 -4.0625 5.875 C-5.031875 5.91625 -6.00125 5.9575 -7 6 C-7.66 5.34 -8.32 4.68 -9 4 C-7.54618103 3.30300448 -6.08677047 2.61766134 -4.625 1.9375 C-3.40683594 1.36322266 -3.40683594 1.36322266 -2.1640625 0.77734375 C-1.44992187 0.52082031 -0.73578125 0.26429687 0 0 Z " fill="#29776A" transform="translate(481,102)"/>
<path d="M0 0 C0.33 0 0.66 0 1 0 C1.38063221 2.3260857 1.71269945 4.66055264 2 7 C1.67 7.33 1.34 7.66 1 8 C1 9.99750448 1.00355875 11.99555281 1.0625 13.9921875 C1 16 1 16 0 19 C-0.66 19 -1.32 19 -2 19 C-1.34 12.73 -0.68 6.46 0 0 Z " fill="#3D7F72" transform="translate(921,443)"/>
<path d="M0 0 C0.66 0 1.32 0 2 0 C0.74874616 3.75376152 -0.5652404 4.24073289 -4 6 C-4.66 6 -5.32 6 -6 6 C-6 5.34 -6 4.68 -6 4 C-6.66 4 -7.32 4 -8 4 C-8 3.34 -8 2.68 -8 2 C-6.865625 1.855625 -5.73125 1.71125 -4.5625 1.5625 C-1.19222799 1.38828522 -1.19222799 1.38828522 0 0 Z " fill="#18645B" transform="translate(633,389)"/>
<path d="M0 0 C0.66 0 1.32 0 2 0 C4.27678571 8.03571429 4.27678571 8.03571429 3 12 C2.34 11.67 1.68 11.34 1 11 C0.5859375 8.49609375 0.5859375 8.49609375 0.375 5.4375 C0.30023437 4.42558594 0.22546875 3.41367187 0.1484375 2.37109375 C0.09945312 1.58863281 0.05046875 0.80617188 0 0 Z " fill="#2D7668" transform="translate(945,321)"/>
<path d="M0 0 C1.98 0.66 3.96 1.32 6 2 C5.67 2.99 5.34 3.98 5 5 C2.69 4.67 0.38 4.34 -2 4 C-1.34 2.68 -0.68 1.36 0 0 Z " fill="#146357" transform="translate(677,210)"/>
<path d="M0 0 C5.53846154 0.61538462 5.53846154 0.61538462 7.875 2.5625 C8.431875 3.2740625 8.431875 3.2740625 9 4 C5.625 4.625 5.625 4.625 2 5 C1.34 4.34 0.68 3.68 0 3 C0 2.01 0 1.02 0 0 Z " fill="#C9D7D6" transform="translate(429,688)"/>
<path d="M0 0 C3 3 3 3 3.1875 6.1875 C3.125625 7.115625 3.06375 8.04375 3 9 C1.35 9 -0.3 9 -2 9 C-1.34 6.03 -0.68 3.06 0 0 Z M1 3 C2 5 2 5 2 5 Z " fill="#227666" transform="translate(629,431)"/>
<path d="M0 0 C0 4.95 0 9.9 0 15 C-1.81248985 11.3750203 -2.31888915 9.62740416 -2.625 5.75 C-2.69976563 4.85796875 -2.77453125 3.9659375 -2.8515625 3.046875 C-2.92503906 2.03367187 -2.92503906 2.03367187 -3 1 C-1 0 -1 0 0 0 Z " fill="#4C8B7F" transform="translate(921,348)"/>
<path d="M0 0 C0.33 0.66 0.66 1.32 1 2 C1.66 2 2.32 2 3 2 C3 4.64 3 7.28 3 10 C2.01 10.33 1.02 10.66 0 11 C0 7.37 0 3.74 0 0 Z " fill="#1E695A" transform="translate(947,331)"/>
<path d="M0 0 C1.29550413 2.59100826 0.96400816 4.19424369 0.6875 7.0625 C0.60886719 7.96097656 0.53023438 8.85945313 0.44921875 9.78515625 C0.30097656 10.51605469 0.15273438 11.24695313 0 12 C-0.99 12.495 -0.99 12.495 -2 13 C-2 12.34 -2 11.68 -2 11 C-2.66 11 -3.32 11 -4 11 C-3.67 9.68 -3.34 8.36 -3 7 C-2.34 7 -1.68 7 -1 7 C-1.020625 6.030625 -1.04125 5.06125 -1.0625 4.0625 C-1 1 -1 1 0 0 Z " fill="#15675C" transform="translate(302,300)"/>
<path d="M0 0 C1.43836751 0.11458693 2.87570966 0.24209116 4.3125 0.375 C5.51326172 0.47941406 5.51326172 0.47941406 6.73828125 0.5859375 C9 1 9 1 12 3 C7.05632546 4.20577428 3.79137588 3.6290678 -1 2 C-0.67 1.34 -0.34 0.68 0 0 Z " fill="#267265" transform="translate(703,115)"/>
<path d="M0 0 C0 3 0 3 -1 5 C-4.06146896 6.96808719 -6.40164967 7.19990835 -10 7 C-6.80331012 4.3513141 -3.60513403 2.06007659 0 0 Z " fill="#D3E6DC" transform="translate(681,535)"/>
<path d="M0 0 C-0.66 1.32 -1.32 2.64 -2 4 C-2.99 4 -3.98 4 -5 4 C-5 4.99 -5 5.98 -5 7 C-5.66 7 -6.32 7 -7 7 C-7 6.34 -7 5.68 -7 5 C-7.66 4.67 -8.32 4.34 -9 4 C-3.375 0 -3.375 0 0 0 Z " fill="#247267" transform="translate(587,358)"/>
<path d="M0 0 C0.33 0 0.66 0 1 0 C1 4.29 1 8.58 1 13 C0.01 13.33 -0.98 13.66 -2 14 C-1.85795259 12.41632253 -1.71119847 10.83306682 -1.5625 9.25 C-1.48128906 8.36828125 -1.40007812 7.4865625 -1.31640625 6.578125 C-1.03761535 4.30649548 -0.61209423 2.20148177 0 0 Z " fill="#3B8276" transform="translate(289,340)"/>
<path d="M0 0 C-1.29598789 2.89104992 -2.49296136 5.03018393 -5 7 C-8.1875 8.1875 -8.1875 8.1875 -11 9 C-9.33333333 7.33333333 -7.66666667 5.66666667 -6 4 C-5.278125 3.236875 -4.55625 2.47375 -3.8125 1.6875 C-2 0 -2 0 0 0 Z " fill="#27756B" transform="translate(408,148)"/>
<path d="M0 0 C1.32 0.66 2.64 1.32 4 2 C1.36 4.31 -1.28 6.62 -4 9 C-4.66 8.67 -5.32 8.34 -6 8 C-4.02 5.36 -2.04 2.72 0 0 Z " fill="#E0EDE8" transform="translate(703,512)"/>
<path d="M0 0 C0.66 0.99 1.32 1.98 2 3 C0.02 5.31 -1.96 7.62 -4 10 C-4.66 9.67 -5.32 9.34 -6 9 C-4.02 6.03 -2.04 3.06 0 0 Z " fill="#287269" transform="translate(636,499)"/>
<path d="M0 0 C2.49505962 2.49505962 2.35948376 3.67328888 2.625 7.125 C2.69976563 8.03507812 2.77453125 8.94515625 2.8515625 9.8828125 C2.92503906 10.93082031 2.92503906 10.93082031 3 12 C2.34 12 1.68 12 1 12 C-1.83022097 8.00439392 -0.76210446 4.57262677 0 0 Z " fill="#136055" transform="translate(915,480)"/>
<path d="M0 0 C0.33 0 0.66 0 1 0 C2.33500455 5.34001821 1.512545 8.83955235 0 14 C-0.66 13.34 -1.32 12.68 -2 12 C-1.6171896 7.9422098 -0.84527244 3.98485578 0 0 Z " fill="#38796D" transform="translate(917,468)"/>
<path d="M0 0 C0.66 0.33 1.32 0.66 2 1 C1.33501617 5.38889325 -0.18757677 8.9811485 -2 13 C-3.18771723 9.57056481 -2.80226223 7.62215325 -1.5625 4.25 C-1.27503906 3.45078125 -0.98757813 2.6515625 -0.69140625 1.828125 C-0.46324219 1.22484375 -0.23507812 0.6215625 0 0 Z " fill="#2F736B" transform="translate(341,281)"/>
<path d="M0 0 C0.66 0 1.32 0 2 0 C2 0.99 2 1.98 2 3 C2.66 3.33 3.32 3.66 4 4 C5 5 5 5 5.0625 8.5625 C5.041875 9.696875 5.02125 10.83125 5 12 C3 11 3 11 2.1484375 8.49609375 C1.89320313 7.48675781 1.63796875 6.47742188 1.375 5.4375 C1.11460937 4.42558594 0.85421875 3.41367187 0.5859375 2.37109375 C0.39257812 1.58863281 0.19921875 0.80617188 0 0 Z " fill="#D0E0D7" transform="translate(606,261)"/>
<path d="M0 0 C0.66 0.33 1.32 0.66 2 1 C1.34 1.66 0.68 2.32 0 3 C0.66 4.32 1.32 5.64 2 7 C-0.31 6.67 -2.62 6.34 -5 6 C-3.35 4.02 -1.7 2.04 0 0 Z " fill="#166257" transform="translate(652,227)"/>
<path d="M0 0 C0 0.66 0 1.32 0 2 C-2.1875 3.5078125 -2.1875 3.5078125 -5 5.125 C-5.928125 5.66382813 -6.85625 6.20265625 -7.8125 6.7578125 C-8.8953125 7.37269531 -8.8953125 7.37269531 -10 8 C-9.3989083 4.51073599 -9.12082221 4.09455652 -6.125 1.75 C-3 0 -3 0 0 0 Z " fill="#257067" transform="translate(456,152)"/>
<path d="M0 0 C1.3778771 3.13153887 0.90076044 4.28779473 -0.25 7.625 C-2 11 -2 11 -5 13 C-4.54554036 11.58208592 -4.08625056 10.16571954 -3.625 8.75 C-3.24214844 7.56664062 -3.24214844 7.56664062 -2.8515625 6.359375 C-2.04826333 4.13372042 -1.10288338 2.09068328 0 0 Z " fill="#B8CBCB" transform="translate(925,552)"/>
<path d="M0 0 C0.66 0.33 1.32 0.66 2 1 C-0.19412227 4.46440358 -2.02694801 5.9074107 -6 7 C-6.99 6.67 -7.98 6.34 -9 6 C-6.03 4.02 -3.06 2.04 0 0 Z " fill="#D2E4DB" transform="translate(405,542)"/>
<path d="M0 0 C0.66 0 1.32 0 2 0 C0.55527654 3.80881639 -1.32603071 5.29742886 -5 7 C-5.99 6.67 -6.98 6.34 -8 6 C-7.67 5.34 -7.34 4.68 -7 4 C-4.6859378 3.26924352 -2.35171131 2.59861742 0 2 C0 1.34 0 0.68 0 0 Z " fill="#1A6359" transform="translate(681,532)"/>
<path d="M0 0 C-0.99 0.33 -1.98 0.66 -3 1 C-3 1.99 -3 2.98 -3 4 C-4.32 3.34 -5.64 2.68 -7 2 C-7 1.01 -7 0.02 -7 -1 C-3.51418144 -2.2020064 -3.32007656 -2.21338437 0 0 Z " fill="#166659" transform="translate(556,529)"/>
<path d="M0 0 C0.33 0.99 0.66 1.98 1 3 C-1.31 4.98 -3.62 6.96 -6 9 C-6.66 8.67 -7.32 8.34 -8 8 C-5.36 5.36 -2.72 2.72 0 0 Z " fill="#C3DED7" transform="translate(696,521)"/>
<path d="M0 0 C4.01679467 2.00839734 5.57952851 3.32446922 8 7 C7.67 7.99 7.34 8.98 7 10 C7 9.34 7 8.68 7 8 C6.01 8 5.02 8 4 8 C2.68 5.36 1.36 2.72 0 0 Z " fill="#1C655A" transform="translate(592,490)"/>
<path d="M0 0 C1.79068573 2.6860286 2.66055791 4.6626589 3.625 7.6875 C3.88539063 8.49574219 4.14578125 9.30398438 4.4140625 10.13671875 C4.60742188 10.75160156 4.80078125 11.36648438 5 12 C4.01 11.67 3.02 11.34 2 11 C2 10.34 2 9.68 2 9 C1.34 9 0.68 9 0 9 C0 6.03 0 3.06 0 0 Z " fill="#C8DFD5" transform="translate(521,490)"/>
<path d="M0 0 C-1.0975223 2.99324263 -1.67682892 3.84610901 -4.625 5.25 C-5.40875 5.4975 -6.1925 5.745 -7 6 C-7.66 5.34 -8.32 4.68 -9 4 C-3.375 0 -3.375 0 0 0 Z " fill="#297169" transform="translate(387,490)"/>
<path d="M0 0 C2.09454478 0.8251237 4.07841042 1.74959487 6.0625 2.8125 C6.0625 3.4725 6.0625 4.1325 6.0625 4.8125 C1.3125 4.0625 1.3125 4.0625 -0.9375 1.8125 C-3.04570797 2.1310177 -3.04570797 2.1310177 -4.9375 2.8125 C-2.49438623 -0.24139222 -2.49438623 -0.24139222 0 0 Z " fill="#2C7368" transform="translate(554.9375,463.1875)"/>
<path d="M0 0 C0.66 0.33 1.32 0.66 2 1 C1.67 4.3 1.34 7.6 1 11 C0.34 11 -0.32 11 -1 11 C-1.14285714 3.57142857 -1.14285714 3.57142857 0 0 Z " fill="#CDD7DA" transform="translate(286,344)"/>
<path d="M0 0 C2.0343459 1.41519715 2.90410393 2.54982123 3.421875 4.98046875 C3.66273952 6.98176954 3.83532741 8.9909944 4 11 C3.34 11 2.68 11 2 11 C0.57741188 7.17679443 -0.24042276 4.08718695 0 0 Z " fill="#18635A" transform="translate(915,331)"/>
<path d="M0 0 C0.99 0.33 1.98 0.66 3 1 C3 1.66 3 2.32 3 3 C0.1875 5.1875 0.1875 5.1875 -3 7 C-3.99 6.67 -4.98 6.34 -6 6 C-5.01 5.67 -4.02 5.34 -3 5 C-2.67 4.01 -2.34 3.02 -2 2 C-1.34 2 -0.68 2 0 2 C0 1.34 0 0.68 0 0 Z " fill="#267268" transform="translate(743,315)"/>
<path d="M0 0 C0.66 0.33 1.32 0.66 2 1 C-1.49087093 5.0042343 -3.64951939 6.62671065 -9 7 C-6.25604436 4.05278838 -3.61662784 1.80831392 0 0 Z " fill="#D4E8E0" transform="translate(779,295)"/>
<path d="M0 0 C4.46840411 0.49648935 5.68987756 0.68987756 9 4 C5.37 3.67 1.74 3.34 -2 3 C-1.34 2.67 -0.68 2.34 0 2 C0 1.34 0 0.68 0 0 Z " fill="#186259" transform="translate(557,211)"/>
<path d="M0 0 C0 0.99 0 1.98 0 3 C-6.625 3.25 -6.625 3.25 -10 1 C-6.78548731 -0.60725635 -3.56387464 -0.05748185 0 0 Z " fill="#398174" transform="translate(589,741)"/>
<path d="M0 0 C0.66 0.33 1.32 0.66 2 1 C1.625 3.4375 1.625 3.4375 1 6 C0.01 6.495 0.01 6.495 -1 7 C-1.66 5.35 -2.32 3.7 -3 2 C-2.01 1.34 -1.02 0.68 0 0 Z " fill="#347F74" transform="translate(616,679)"/>
<path d="M0 0 C0 3 0 3 -1.75 4.82421875 C-2.4925 5.43910156 -3.235 6.05398438 -4 6.6875 C-4.7425 7.31011719 -5.485 7.93273437 -6.25 8.57421875 C-6.8275 9.04472656 -7.405 9.51523437 -8 10 C-8.66 9.67 -9.32 9.34 -10 9 C-6.7 6.03 -3.4 3.06 0 0 Z " fill="#B8CECC" transform="translate(851,654)"/>
<path d="M0 0 C3 3.625 3 3.625 3 7 C1.68 7.33 0.36 7.66 -1 8 C-1.93065133 5.39417629 -2.14917407 4.35801776 -1.0625 1.75 C-0.711875 1.1725 -0.36125 0.595 0 0 Z " fill="#19665B" transform="translate(470,616)"/>
<path d="M0 0 C3.875 4.75 3.875 4.75 5 7 C3.35 7.66 1.7 8.32 0 9 C-1.125 3.375 -1.125 3.375 0 0 Z " fill="#2A776E" transform="translate(744,603)"/>
<path d="M0 0 C0.5625 1.9375 0.5625 1.9375 1 4 C0 5 0 5 -1.84765625 5.09765625 C-3.8984375 5.06510417 -5.94921875 5.03255208 -8 5 C-6.68 4.67 -5.36 4.34 -4 4 C-4 3.34 -4 2.68 -4 2 C-2.68 1.34 -1.36 0.68 0 0 Z " fill="#C5DED3" transform="translate(516,587)"/>
<path d="M0 0 C2.31 0 4.62 0 7 0 C6.67 0.99 6.34 1.98 6 3 C4.35 3.33 2.7 3.66 1 4 C0.67 2.68 0.34 1.36 0 0 Z " fill="#156059" transform="translate(419,527)"/>
<path d="M0 0 C0.33 0.99 0.66 1.98 1 3 C-1.25 4.5625 -1.25 4.5625 -4 6 C-5.32 5.67 -6.64 5.34 -8 5 C-4.04 2.525 -4.04 2.525 0 0 Z " fill="#2B736A" transform="translate(515,404)"/>
<path d="M0 0 C0.93619813 3.15506142 1.1057123 5.96586502 1.0625 9.25 C1.05347656 10.14203125 1.04445313 11.0340625 1.03515625 11.953125 C1.02355469 12.62859375 1.01195312 13.3040625 1 14 C0.67 13.34 0.34 12.68 0 12 C-0.66 12 -1.32 12 -2 12 C-1.85831863 10.56208484 -1.71148957 9.1246763 -1.5625 7.6875 C-1.48128906 6.88699219 -1.40007812 6.08648437 -1.31640625 5.26171875 C-1 3 -1 3 0 0 Z " fill="#398075" transform="translate(292,327)"/>
<path d="M0 0 C1.46726798 3.81489674 0.43336419 6.29011622 -1 10 C-1.66 10 -2.32 10 -3 10 C-3.36923077 4.58461538 -3.36923077 4.58461538 -1.5 1.625 C-1.005 1.08875 -0.51 0.5525 0 0 Z " fill="#1C635A" transform="translate(336,294)"/>
<path d="M0 0 C4.95 0 9.9 0 15 0 C15.33 0.99 15.66 1.98 16 3 C10.72 2.34 5.44 1.68 0 1 C0 0.67 0 0.34 0 0 Z " fill="#C0DCD2" transform="translate(525,200)"/>
<path d="M0 0 C0.66 0 1.32 0 2 0 C1.60196439 2.88575819 1.20990931 3.82189513 -1.0625 5.75 C-1.701875 6.1625 -2.34125 6.575 -3 7 C-3.66 6.34 -4.32 5.68 -5 5 C-3.625 3.5 -3.625 3.5 -2 2 C-1.34 2 -0.68 2 0 2 C0 1.34 0 0.68 0 0 Z " fill="#C6D6D5" transform="translate(376,173)"/>
<path d="M0 0 C1.17175781 0.03480469 2.34351563 0.06960937 3.55078125 0.10546875 C5.32001953 0.14607422 5.32001953 0.14607422 7.125 0.1875 C8.02863281 0.22230469 8.93226563 0.25710937 9.86328125 0.29296875 C9.86328125 0.62296875 9.86328125 0.95296875 9.86328125 1.29296875 C4.58328125 1.95296875 -0.69671875 2.61296875 -6.13671875 3.29296875 C-3.13671875 0.29296875 -3.13671875 0.29296875 0 0 Z " fill="#A8C3BF" transform="translate(572.13671875,73.70703125)"/>
<path d="M0 0 C0.99 0.33 1.98 0.66 3 1 C1.68 3.64 0.36 6.28 -1 9 C-1.33 9 -1.66 9 -2 9 C-2.25 3.375 -2.25 3.375 0 0 Z " fill="#DCEBE1" transform="translate(628,507)"/>
<path d="M0 0 C-0.33 1.32 -0.66 2.64 -1 4 C-0.34 4 0.32 4 1 4 C1 4.66 1 5.32 1 6 C-1.31 5.34 -3.62 4.68 -6 4 C-2.25 0 -2.25 0 0 0 Z " fill="#2D796C" transform="translate(588,459)"/>
<path d="M0 0 C1.98 0 3.96 0 6 0 C6 3.3 6 6.6 6 10 C5.67 10 5.34 10 5 10 C4.89042969 9.36191406 4.78085937 8.72382813 4.66796875 8.06640625 C4.50941406 7.24011719 4.35085938 6.41382813 4.1875 5.5625 C3.96126953 4.32693359 3.96126953 4.32693359 3.73046875 3.06640625 C3.48941406 2.38449219 3.24835937 1.70257813 3 1 C2.01 0.67 1.02 0.34 0 0 Z " fill="#5A9D93" transform="translate(714,371)"/>
<path d="M0 0 C0 0.66 0 1.32 0 2 C-2.75078884 2.91692961 -4.35948913 3.10886083 -7.1875 3.0625 C-9.0746875 3.0315625 -9.0746875 3.0315625 -11 3 C-7.11595442 0.41063628 -4.5725325 -0.12358196 0 0 Z " fill="#165A53" transform="translate(644,292)"/>
<path d="M0 0 C0.66 0.33 1.32 0.66 2 1 C-0.31 3.64 -2.62 6.28 -5 9 C-5.66 8.67 -6.32 8.34 -7 8 C-4.69 5.36 -2.38 2.72 0 0 Z " fill="#E2F0E6" transform="translate(430,171)"/>
<path d="M0 0 C1.5 1.25 1.5 1.25 3 3 C3 4.32 3 5.64 3 7 C2.01 7.33 1.02 7.66 0 8 C-0.38063221 5.6739143 -0.71269945 3.33944736 -1 1 C-0.67 0.67 -0.34 0.34 0 0 Z " fill="#287E70" transform="translate(756,590)"/>
<path d="M0 0 C1.0326802 2.78823655 1.04509293 3.8677274 0.0625 6.75 C-0.288125 7.4925 -0.63875 8.235 -1 9 C-1.99 9 -2.98 9 -4 9 C-2.80100302 5.9168649 -1.52299523 2.93720508 0 0 Z " fill="#D5E5DF" transform="translate(708,503)"/>
<path d="M0 0 C0.99 0.33 1.98 0.66 3 1 C0.38485683 3.12038635 -2.19637616 5.13091744 -5 7 C-5 5.68 -5 4.36 -5 3 C-3.35 2.67 -1.7 2.34 0 2 C0 1.34 0 0.68 0 0 Z " fill="#28746B" transform="translate(545,447)"/>
<path d="M0 0 C0 0.66 0 1.32 0 2 C-1.32 2.33 -2.64 2.66 -4 3 C-4 3.66 -4 4.32 -4 5 C-5.65 5 -7.3 5 -9 5 C-4.16129032 0 -4.16129032 0 0 0 Z " fill="#276F67" transform="translate(667,305)"/>
<path d="M0 0 C1.8125 0.05078125 1.8125 0.05078125 4 0.3125 C4.721875 0.39113281 5.44375 0.46976563 6.1875 0.55078125 C7.0846875 0.77314453 7.0846875 0.77314453 8 1 C8.33 1.66 8.66 2.32 9 3 C2.375 3.25 2.375 3.25 -1 1 C-0.67 0.67 -0.34 0.34 0 0 Z " fill="#21635A" transform="translate(533,202)"/>
<path d="M0 0 C1.32 0.33 2.64 0.66 4 1 C4 1.66 4 2.32 4 3 C4.639375 3.2475 5.27875 3.495 5.9375 3.75 C8 5 8 5 8.62890625 7.078125 C8.81259766 8.02945313 8.81259766 8.02945313 9 9 C7.87105124 8.06725891 6.74699124 7.12859878 5.625 6.1875 C4.99851562 5.66542969 4.37203125 5.14335937 3.7265625 4.60546875 C2 3 2 3 0 0 Z " fill="#ABCAC1" transform="translate(851,163)"/>
<path d="M0 0 C0.99 0.66 1.98 1.32 3 2 C1.68 4.31 0.36 6.62 -1 9 C-1.33 9 -1.66 9 -2 9 C-1.125 2.25 -1.125 2.25 0 0 Z " fill="#DDEEE3" transform="translate(600,132)"/>
<path d="M0 0 C2.64 0 5.28 0 8 0 C7.01 0.495 7.01 0.495 6 1 C6 1.66 6 2.32 6 3 C3.69 2.67 1.38 2.34 -1 2 C-0.67 1.34 -0.34 0.68 0 0 Z " fill="#136657" transform="translate(537,732)"/>
<path d="M0 0 C3.465 1.485 3.465 1.485 7 3 C7 3.99 7 4.98 7 6 C3.62496331 4.8141763 1.35277269 3.72426311 -1 1 C-0.67 0.67 -0.34 0.34 0 0 Z " fill="#307871" transform="translate(450,697)"/>
<path d="M0 0 C2.3125 -0.3125 2.3125 -0.3125 5 0 C6.8125 2.5 6.8125 2.5 8 5 C5 5 5 5 2.3125 2.5 C1.549375 1.675 0.78625 0.85 0 0 Z " fill="#2C7970" transform="translate(396,660)"/>
<path d="M0 0 C1.98 0.99 1.98 0.99 4 2 C3.67 4.31 3.34 6.62 3 9 C0.87491756 5.81237635 0.4979837 3.73487777 0 0 Z " fill="#30796F" transform="translate(294,492)"/>
<path d="M0 0 C0.66 0 1.32 0 2 0 C2.33 1.65 2.66 3.3 3 5 C2.01 4.67 1.02 4.34 0 4 C-0.99 4.66 -1.98 5.32 -3 6 C-2.42655063 3.13275314 -2.1385485 2.1385485 0 0 Z " fill="#196157" transform="translate(641,493)"/>
<path d="M0 0 C0.66 0.66 1.32 1.32 2 2 C-0.97 3.65 -3.94 5.3 -7 7 C-4.91100178 2.82200357 -3.94455388 2.07608099 0 0 Z " fill="#237469" transform="translate(478,492)"/>
<path d="M0 0 C0.66 0.33 1.32 0.66 2 1 C1.34 3.64 0.68 6.28 0 9 C-0.66 8.34 -1.32 7.68 -2 7 C-1.6730244 4.38419521 -1.17960932 2.35921863 0 0 Z " fill="#297063" transform="translate(715,480)"/>
<path d="M0 0 C0.66 0.33 1.32 0.66 2 1 C1.01 3.97 0.02 6.94 -1 10 C-1.33 10 -1.66 10 -2 10 C-1.85950482 8.52031676 -1.71245174 7.04125484 -1.5625 5.5625 C-1.48128906 4.73878906 -1.40007812 3.91507812 -1.31640625 3.06640625 C-1 1 -1 1 0 0 Z " fill="#B1C8C4" transform="translate(310,270)"/>
<path d="M0 0 C0.99 0 1.98 0 3 0 C2.1875 2.9375 2.1875 2.9375 1 6 C0.01 6.33 -0.98 6.66 -2 7 C-1.34 4.69 -0.68 2.38 0 0 Z " fill="#166357" transform="translate(634,225)"/>
<path d="M0 0 C0.66 0.33 1.32 0.66 2 1 C0.95125002 3.62187494 0.35068687 4.79371361 -2.125 6.25 C-2.74375 6.4975 -3.3625 6.745 -4 7 C-4 4 -4 4 -2 1.8125 C-1.34 1.214375 -0.68 0.61625 0 0 Z " fill="#266D66" transform="translate(420,176)"/>
<path d="M0 0 C0.99 0 1.98 0 3 0 C2.8125 1.875 2.8125 1.875 2 4 C-0.5625 5.25 -0.5625 5.25 -3 6 C-2.01 4.02 -1.02 2.04 0 0 Z " fill="#22675F" transform="translate(431,166)"/>
<path d="M0 0 C0.66 0 1.32 0 2 0 C4.42857143 6.28571429 4.42857143 6.28571429 3 10 C3 9.01 3 8.02 3 7 C2.34 7 1.68 7 1 7 C0.67 4.69 0.34 2.38 0 0 Z " fill="#2E7569" transform="translate(641,152)"/>
<path d="M0 0 C0.99 0 1.98 0 3 0 C3.66 1.32 4.32 2.64 5 4 C1.7 3.67 -1.6 3.34 -5 3 C-5 2.67 -5 2.34 -5 2 C-3.35 2 -1.7 2 0 2 C0 1.34 0 0.68 0 0 Z " fill="#2E786A" transform="translate(680,108)"/>
<path d="M0 0 C1.37562854 1.28965176 2.70766393 2.62689293 4 4 C4 4.66 4 5.32 4 6 C2.68 6.33 1.36 6.66 0 7 C-1.33332095 4.3333581 -0.67102033 2.83319697 0 0 Z " fill="#29776A" transform="translate(754,619)"/>
<path d="M0 0 C0 0.66 0 1.32 0 2 C-5.41176471 6 -5.41176471 6 -8 6 C-6.72879117 2.18637351 -4.19078006 0 0 0 Z " fill="#227267" transform="translate(492,484)"/>
<path d="M0 0 C-5.75 4 -5.75 4 -8 4 C-8 3.01 -8 2.02 -8 1 C-4.93251126 -0.86240388 -3.40254489 -1.2151946 0 0 Z " fill="#247269" transform="translate(518,469)"/>
<path d="M0 0 C0.33 0.99 0.66 1.98 1 3 C-0.75 4.5625 -0.75 4.5625 -3 6 C-4.32 5.67 -5.64 5.34 -7 5 C-4.69 3.35 -2.38 1.7 0 0 Z " fill="#D2E8DC" transform="translate(555,443)"/>
<path d="M0 0 C0.33 0.99 0.66 1.98 1 3 C-0.98 4.32 -2.96 5.64 -5 7 C-5.33 6.01 -5.66 5.02 -6 4 C-4.02 2.68 -2.04 1.36 0 0 Z " fill="#2C756C" transform="translate(522,399)"/>
<path d="M0 0 C0.66 0.99 1.32 1.98 2 3 C-0.31 4.32 -2.62 5.64 -5 7 C-4.60196439 4.11424181 -4.20990931 3.17810487 -1.9375 1.25 C-1.298125 0.8375 -0.65875 0.425 0 0 Z " fill="#297269" transform="translate(735,321)"/>
<path d="M0 0 C-0.66 0 -1.32 0 -2 0 C-2 0.66 -2 1.32 -2 2 C-4.97 2 -7.94 2 -11 2 C-4.31914894 -1.34042553 -4.31914894 -1.34042553 0 0 Z " fill="#DBE9DE" transform="translate(637,297)"/>
<path d="M0 0 C3.04860014 1.01620005 3.86666922 1.77391571 6 4 C6.66 4.33 7.32 4.66 8 5 C8 5.66 8 6.32 8 7 C4.21388773 6.45912682 2.44599233 4.88277668 0 2 C0 1.34 0 0.68 0 0 Z " fill="#19635A" transform="translate(549,269)"/>
<path d="M0 0 C-0.5625 1.875 -0.5625 1.875 -2 4 C-5.625 5.25 -5.625 5.25 -9 6 C-3.2 0 -3.2 0 0 0 Z " fill="#CBE7DC" transform="translate(829,263)"/>
<path d="M0 0 C0.99 0.33 1.98 0.66 3 1 C1.9024777 3.99324263 1.32317108 4.84610901 -1.625 6.25 C-2.40875 6.4975 -3.1925 6.745 -4 7 C-2.68 4.69 -1.36 2.38 0 0 Z " fill="#E3EDE9" transform="translate(703,249)"/>
<path d="M0 0 C0.66 0.66 1.32 1.32 2 2 C0.02 4.64 -1.96 7.28 -4 10 C-4.33 9.34 -4.66 8.68 -5 8 C-4.00390625 6.0546875 -4.00390625 6.0546875 -2.5625 3.875 C-2.08941406 3.15054688 -1.61632812 2.42609375 -1.12890625 1.6796875 C-0.75636719 1.12539062 -0.38382812 0.57109375 0 0 Z " fill="#D2E3D7" transform="translate(364,244)"/>
<path d="M0 0 C0.33 0.66 0.66 1.32 1 2 C0.0625 4.125 0.0625 4.125 -1 6 C-1.99 6 -2.98 6 -4 6 C-3.6875 4.125 -3.6875 4.125 -3 2 C-2.01 1.34 -1.02 0.68 0 0 Z " fill="#196357" transform="translate(644,237)"/>
<path d="M0 0 C2.4375 0.625 2.4375 0.625 5 2 C5.8125 5.125 5.8125 5.125 6 8 C1.125 3.375 1.125 3.375 0 0 Z " fill="#C3D1D1" transform="translate(890,206)"/>
<path d="M0 0 C0.33 0 0.66 0 1 0 C1.17835515 4.54805635 0.99785435 7.8794254 -1 12 C-1.33 12 -1.66 12 -2 12 C-1.85831863 10.56208484 -1.71148957 9.1246763 -1.5625 7.6875 C-1.48128906 6.88699219 -1.40007813 6.08648437 -1.31640625 5.26171875 C-1 3 -1 3 0 0 Z " fill="#155A51" transform="translate(593,157)"/>
<path d="M0 0 C2.64 0 5.28 0 8 0 C8 0.66 8 1.32 8 2 C6.02 2.33 4.04 2.66 2 3 C2 2.34 2 1.68 2 1 C1.34 0.67 0.68 0.34 0 0 Z " fill="#136257" transform="translate(518,118)"/>
<path d="M0 0 C2.125 0.9375 2.125 0.9375 4 2 C3.67 2.99 3.34 3.98 3 5 C1.0625 4.6875 1.0625 4.6875 -1 4 C-1.33 3.01 -1.66 2.02 -2 1 C-1.34 0.67 -0.68 0.34 0 0 Z " fill="#126555" transform="translate(685,107)"/>
<path d="M0 0 C1.98 0 3.96 0 6 0 C6 0.66 6 1.32 6 2 C3.69 2.33 1.38 2.66 -1 3 C-0.67 2.01 -0.34 1.02 0 0 Z " fill="#2D7A6C" transform="translate(676,738)"/>
<path d="M0 0 C1.32 0.99 2.64 1.98 4 3 C3.67 3.66 3.34 4.32 3 5 C1.35 4.67 -0.3 4.34 -2 4 C-2 3.34 -2 2.68 -2 2 C-1.34 2 -0.68 2 0 2 C0 1.34 0 0.68 0 0 Z " fill="#1F7565" transform="translate(498,588)"/>
<path d="M0 0 C5.75 1.625 5.75 1.625 8 5 C4.5625 4.1875 4.5625 4.1875 1 3 C0.67 2.01 0.34 1.02 0 0 Z " fill="#33786C" transform="translate(567,541)"/>
<path d="M0 0 C2.475 0.495 2.475 0.495 5 1 C4 4 4 4 2 7 C1.34 4.69 0.68 2.38 0 0 Z " fill="#DEEADC" transform="translate(332,501)"/>
<path d="M0 0 C0.66 0.33 1.32 0.66 2 1 C1.34 2.32 0.68 3.64 0 5 C-1.32 4.67 -2.64 4.34 -4 4 C-3.67 3.01 -3.34 2.02 -3 1 C-2.01 0.67 -1.02 0.34 0 0 Z " fill="#D6E8DB" transform="translate(631,424)"/>
<path d="M0 0 C1.32 0.66 2.64 1.32 4 2 C2.68 3.32 1.36 4.64 0 6 C-0.66 5.01 -1.32 4.02 -2 3 C-1.34 2.01 -0.68 1.02 0 0 Z " fill="#14665B" transform="translate(587,317)"/>
<path d="M0 0 C0.99 0.66 1.98 1.32 3 2 C0.69 3.32 -1.62 4.64 -4 6 C-3.6875 4.125 -3.6875 4.125 -3 2 C-2.01 1.34 -1.02 0.68 0 0 Z " fill="#267369" transform="translate(784,289)"/>
<path d="M0 0 C0.66 1.32 1.32 2.64 2 4 C0.02 4.99 0.02 4.99 -2 6 C-2 5.01 -2 4.02 -2 3 C-2.66 2.67 -3.32 2.34 -4 2 C-2.68 1.34 -1.36 0.68 0 0 Z " fill="#28786C" transform="translate(813,207)"/>
<path d="M0 0 C0.66 0 1.32 0 2 0 C0.75023244 3.65316671 0.32901247 4.78065836 -3 7 C-2.25 2.25 -2.25 2.25 0 0 Z " fill="#176258" transform="translate(604,132)"/>
<path d="M0 0 C1.98 0 3.96 0 6 0 C5.67 0.99 5.34 1.98 5 3 C3.02 3 1.04 3 -1 3 C-0.67 2.01 -0.34 1.02 0 0 Z " fill="#136A59" transform="translate(705,84)"/>
</svg>
