<?xml version="1.0" encoding="UTF-8"?>
<svg version="1.1" xmlns="http://www.w3.org/2000/svg" viewBox="410 202 428 433" width="428" height="433">
<path d="M0 0 C2.47387608 0.80935154 4.95819865 1.5768266 7.44580078 2.34277344 C25.79701627 8.18625369 43.15964762 17.17635412 58.50439453 28.81933594 C59.56400391 29.59664063 60.62361328 30.37394531 61.71533203 31.17480469 C88.69070518 51.17378823 108.02800403 76.64125506 122.50439453 106.81933594 C123.21595703 108.27146484 123.21595703 108.27146484 123.94189453 109.75292969 C129.37898892 121.18781882 133.17335573 133.38524761 135.50439453 145.81933594 C135.67358398 146.70459961 135.84277344 147.58986328 136.01708984 148.50195312 C142.66561298 184.23630952 141.49700002 225.445189 125.50439453 258.81933594 C124.73883247 260.48673631 123.97464167 262.1547666 123.21142578 263.82324219 C118.87700967 273.21114037 114.52643701 282.37605989 108.50439453 290.81933594 C108.11171387 291.3775 107.7190332 291.93566406 107.31445312 292.51074219 C90.07151902 316.9452573 70.45600354 336.63413769 44.50439453 351.81933594 C43.71548828 352.3259375 42.92658203 352.83253906 42.11376953 353.35449219 C27.34021808 362.7764 10.68314934 368.36734587 -6.32763672 372.10839844 C-8.65905169 372.6316013 -10.97954774 373.20406171 -13.29248047 373.80371094 C-63.21201743 386.2998508 -116.8634854 374.31669276 -160.46972656 348.65771484 C-163.93268153 346.53641784 -167.23099137 344.23210467 -170.49560547 341.81933594 C-171.54490234 341.05234375 -172.59419922 340.28535156 -173.67529297 339.49511719 C-190.93906836 326.66448365 -205.33787781 311.5439525 -217.49560547 293.81933594 C-217.91696777 293.20638672 -218.33833008 292.5934375 -218.77246094 291.96191406 C-235.93668687 266.62775786 -246.45620329 238.07117491 -250.49560547 207.81933594 C-250.59655518 207.12171143 -250.69750488 206.42408691 -250.80151367 205.70532227 C-257.14557101 157.20030989 -243.52964938 107.28539471 -214.02978516 68.49731445 C-209.18201076 62.27476335 -203.97697689 56.49081273 -198.49560547 50.81933594 C-197.62419922 49.89636719 -196.75279297 48.97339844 -195.85498047 48.02246094 C-165.68429343 16.79315331 -125.92002167 -0.66199529 -83.49560547 -7.18066406 C-82.27228516 -7.3753125 -81.04896484 -7.56996094 -79.78857422 -7.77050781 C-53.45738834 -10.87120803 -25.09999817 -8.22299766 0 0 Z " fill="#0F7061" transform="translate(680.49560546875,233.1806640625)"/>
<path d="M0 0 C0.78707336 0.00187317 1.57414673 0.00374634 2.3850708 0.00567627 C42.42222976 0.21081883 80.02458353 12.67792515 111.6875 37.375 C110.49911934 40.94014199 109.46293332 41.53625863 106.5 43.75 C102.01822194 47.22657927 97.86784056 50.92245966 93.75 54.8125 C88.79474246 59.48145377 83.71607245 63.87558569 78.3984375 68.1328125 C75.39845565 70.6140655 72.53596349 73.22364307 69.6875 75.875 C65.97890465 79.32664054 62.20243923 82.64022294 58.25 85.8125 C53.46967779 89.65739225 48.99267044 93.74717972 44.51928711 97.93774414 C41.21572241 101.01478985 37.84338594 103.93157769 34.3125 106.75 C29.72948418 110.4244296 25.45155476 114.34183916 21.1875 118.375 C16.05541536 123.2286294 10.81920754 127.82304428 5.296875 132.234375 C2.50318484 134.52620465 -0.15458778 136.92731812 -2.8125 139.375 C-6.36920244 142.64918423 -9.98411811 145.78142433 -13.75 148.8125 C-18.87997127 152.95311967 -23.717148 157.3476732 -28.55078125 161.82421875 C-33.12420939 166.04833272 -37.82920681 170.10932248 -42.5625 174.15234375 C-43.7709254 175.18478808 -44.97925619 176.21734316 -46.1875 177.25 C-47.09725586 178.02754639 -47.09725586 178.02754639 -48.02539062 178.82080078 C-52.44425409 182.60721144 -56.78926674 186.46741809 -61.1015625 190.375 C-69.59644528 198.05941693 -78.36921506 205.435169 -87.07275391 212.88085938 C-93.6925057 218.54477812 -100.2979548 224.2240135 -106.875 229.9375 C-112.00965483 234.39728812 -117.16176542 238.83423006 -122.38769531 243.18701172 C-125.39216131 245.70055792 -128.30857734 248.27955702 -131.17578125 250.94921875 C-132.16191406 251.85027344 -132.16191406 251.85027344 -133.16796875 252.76953125 C-134.43943322 253.93440589 -135.69696423 255.11474133 -136.9375 256.3125 C-140.19173946 259.26502189 -142.27411909 260.72742972 -146.76171875 260.73828125 C-148.51935547 260.55845703 -148.51935547 260.55845703 -150.3125 260.375 C-154.40018106 252.51769952 -158.12944024 244.70485345 -161.1953125 236.37890625 C-162.17989433 233.73155161 -163.25810866 231.15559268 -164.375 228.5625 C-179.72759577 189.87148244 -176.27931334 142.68971908 -160.46875 104.86328125 C-147.79135702 75.98498861 -127.21224172 50.42249729 -101.3125 32.375 C-100.4457666 31.7577002 -100.4457666 31.7577002 -99.56152344 31.12792969 C-81.40258625 18.23245255 -61.87864383 10.36432426 -40.4375 4.5625 C-39.7261792 4.36760986 -39.0148584 4.17271973 -38.28198242 3.97192383 C-25.63958791 0.71330823 -12.98355662 -0.04027563 0 0 Z " fill="#FBFBF0" transform="translate(621.3125,243.625)"/>
<path d="M0 0 C1.26171875 1.30664062 1.26171875 1.30664062 2.6875 3.15625 C3.21666016 3.84122559 3.74582031 4.52620117 4.29101562 5.23193359 C5.13696289 6.35462646 5.13696289 6.35462646 6 7.5 C6.86915039 8.64782959 6.86915039 8.64782959 7.75585938 9.81884766 C15.72774271 20.4896827 23.08663022 31.56616628 28 44 C28.24202148 44.6084375 28.48404297 45.216875 28.73339844 45.84375 C31.6996 53.35274976 34.43572342 60.84427759 36.41015625 68.68359375 C36.92026084 70.68685217 37.54396872 72.66053608 38.1875 74.625 C39.19702738 78.81842143 39.1750416 82.71148074 39 87 C39.66 87 40.32 87 41 87 C42.12068386 95.12271664 42.20138869 103.18506252 42.1875 111.375 C42.18656342 112.08520294 42.18562683 112.79540588 42.18466187 113.52713013 C42.13381004 131.32651985 40.53006339 147.05531859 35 164 C34.67386719 165.14597656 34.34773438 166.29195312 34.01171875 167.47265625 C32.88022486 171.41759442 31.63586311 175.30348306 30.3125 179.1875 C30.09400391 179.86619141 29.87550781 180.54488281 29.65039062 181.24414062 C29.16633507 182.65455587 28.63221783 184.04873761 28.05076694 185.42187119 C26.93102866 188.04158279 26.93102866 188.04158279 26.11865902 191.03067398 C24.56354101 194.98225441 23.20621134 197.17410678 20 200 C12.46813186 202.39786045 3.95838483 201.51069807 -3.83569336 201.36230469 C-6.30959915 201.35891919 -8.783517 201.360821 -11.25741577 201.36761475 C-16.58062312 201.37034592 -21.90164856 201.33636054 -27.22428703 201.26876068 C-34.91945662 201.17109242 -42.61377356 201.13996988 -50.30949575 201.12490478 C-62.79576377 201.09866266 -75.28108926 201.01886465 -87.7668457 200.90527344 C-99.89309992 200.7950678 -112.01909783 200.71015586 -124.14575195 200.65917969 C-125.26759719 200.65445066 -125.26759719 200.65445066 -126.41210597 200.64962611 C-130.1642118 200.63396527 -133.91631945 200.61880087 -137.6684283 200.60388327 C-168.77963752 200.47954966 -199.88967542 200.26735933 -231 200 C-230.07142808 198.89336298 -229.13943159 197.78959907 -228.20605469 196.68701172 C-227.68742859 196.07203827 -227.16880249 195.45706482 -226.63446045 194.82345581 C-224.0767955 191.97004384 -221.1971964 189.56328072 -218.25 187.125 C-217.00823074 186.08047693 -215.76735009 185.03489657 -214.52734375 183.98828125 C-213.92519043 183.48119629 -213.32303711 182.97411133 -212.70263672 182.45166016 C-210.36031778 180.45460991 -208.08486337 178.38853117 -205.8125 176.3125 C-202.4991692 173.30185521 -199.11058071 170.43434822 -195.625 167.625 C-191.58805075 164.36241619 -187.73387108 160.97159181 -183.9375 157.4375 C-179.61247317 153.41165837 -175.14448422 149.66501161 -170.4921875 146.0234375 C-166.77359861 143.00426972 -163.29462533 139.73720374 -159.7734375 136.4921875 C-157.14242644 134.12798319 -154.44827231 131.89773707 -151.6875 129.6875 C-146.63083286 125.61186956 -141.91651697 121.2463704 -137.19213867 116.79760742 C-132.89891399 112.77670758 -128.43762791 109.05010233 -123.84375 105.375 C-120.44364475 102.53535166 -117.22418938 99.53606812 -114 96.5 C-109.02059367 91.81238742 -103.91819066 87.38767322 -98.578125 83.109375 C-95.9757371 80.98014854 -93.48424498 78.76550643 -91 76.5 C-86.78067696 72.65882384 -82.42025263 69.04118424 -77.98828125 65.44921875 C-70.43664562 59.25983896 -63.03560157 52.88208286 -55.8125 46.3125 C-52.4991692 43.30185521 -49.11058071 40.43434822 -45.625 37.625 C-40.48096957 33.46321017 -35.62273902 29.05401238 -30.7734375 24.55859375 C-27.91506426 21.92164379 -25.00396221 19.35954545 -22.0625 16.81640625 C-19.4820964 14.54389172 -16.96470338 12.20648247 -14.4375 9.875 C-3.59908537 0 -3.59908537 0 0 0 Z " fill="#FBFBF0" transform="translate(758,304)"/>
<path d="M0 0 C1.23841141 -0.0159874 2.47682281 -0.03197479 3.75276184 -0.04844666 C5.10169054 -0.05482435 6.45062421 -0.06021678 7.79956055 -0.06469727 C9.18955072 -0.07366991 10.57953994 -0.08279186 11.9695282 -0.09205627 C14.8822158 -0.10853138 17.79478868 -0.11624345 20.70751953 -0.11914062 C24.426668 -0.12451805 28.144727 -0.16217558 31.86356831 -0.20788479 C34.73506024 -0.23773813 37.60629267 -0.24486597 40.47792625 -0.24586678 C41.84819711 -0.25005404 43.21846981 -0.26242828 44.58858681 -0.28338432 C52.63232439 -0.39660558 57.91379068 -0.39095762 63.8737793 5.30639648 C67.03269824 8.97481849 67.39777001 12.32649014 67.2253418 17.02124023 C66.62534169 20.92124094 65.26053802 23.14555385 62.8737793 26.30639648 C60.22924805 27.49780273 60.22924805 27.49780273 57.8737793 28.30639648 C58.16623535 28.9915332 58.45869141 29.67666992 58.76000977 30.38256836 C60.09571201 33.5212832 61.42230001 36.66377337 62.7487793 39.80639648 C63.20897461 40.88405273 63.66916992 41.96170898 64.14331055 43.07202148 C69.05096838 54.73659953 69.05096838 54.73659953 69.8737793 60.30639648 C68.8269043 62.40014648 68.8269043 62.40014648 67.1237793 63.80639648 C66.57206055 64.29108398 66.0203418 64.77577148 65.4519043 65.27514648 C63.8737793 66.30639648 63.8737793 66.30639648 61.8737793 66.30639648 C58.15806649 58.34786976 54.79084786 50.28536427 51.5612793 42.11889648 C50.0144043 38.22077148 48.4675293 34.32264648 46.8737793 30.30639648 C32.3537793 30.30639648 17.8337793 30.30639648 2.8737793 30.30639648 C1.2237793 34.59639648 -0.4262207 38.88639648 -2.1262207 43.30639648 C-4.41528135 48.52740291 -6.73823625 53.72762031 -9.10864258 58.91186523 C-13.98327016 69.77921679 -17.64632496 80.33299774 -18.1262207 92.30639648 C-16.81911133 91.90807617 -16.81911133 91.90807617 -15.4855957 91.50170898 C-14.29450195 91.14850586 -13.1034082 90.79530273 -11.8762207 90.43139648 C-10.71606445 90.08334961 -9.5559082 89.73530273 -8.3605957 89.37670898 C2.84294566 86.40205108 13.62489244 86.0488805 25.1237793 86.18139648 C26.65892965 86.1914556 28.19408645 86.20057622 29.72924805 86.20874023 C33.44422857 86.2305003 37.15896091 86.26486515 40.8737793 86.30639648 C40.8737793 88.30639648 40.8737793 88.30639648 39.49511719 90.00439453 C33.9066058 95.35080434 29.90535625 96.27060578 22.3112793 96.11889648 C20.35287685 96.14546491 18.39453258 96.17672865 16.4362793 96.21264648 C15.48624023 96.22295898 14.53620117 96.23327148 13.55737305 96.24389648 C2.56655304 96.499869 -9.21600663 98.35128945 -19.1262207 103.30639648 C-19.11461914 104.35504883 -19.10301758 105.40370117 -19.09106445 106.48413086 C-19.05832774 110.40594314 -19.07851257 114.32606378 -19.11401367 118.24780273 C-19.12208332 119.93920104 -19.11614053 121.63073037 -19.09545898 123.32202148 C-18.91773326 139.18638088 -18.91773326 139.18638088 -24.0637207 144.46264648 C-27.57302921 147.30639648 -27.57302921 147.30639648 -30.1262207 147.30639648 C-30.22893343 139.53673805 -30.29822763 131.76725909 -30.34594727 123.99707031 C-30.36358406 121.36197274 -30.39301873 118.72778514 -30.42797852 116.09277344 C-30.67644096 96.86251076 -30.14380348 78.99037186 -22.3137207 61.11889648 C-21.97115234 60.30066406 -21.62858398 59.48243164 -21.27563477 58.6394043 C-20.24318015 56.18720565 -19.18722431 53.74635428 -18.1262207 51.30639648 C-17.48110148 49.79492856 -16.83655009 48.28321811 -16.19262695 46.77124023 C-13.36606107 40.18365086 -10.43886144 33.6666667 -7.1262207 27.30639648 C-8.2709082 26.96608398 -8.2709082 26.96608398 -9.4387207 26.61889648 C-12.79050469 24.98197872 -13.5018479 23.62961189 -15.1262207 20.30639648 C-15.87821361 15.65030707 -16.23024254 10.59767991 -14.1418457 6.26342773 C-10.0926436 1.20192511 -6.25343724 0.06108685 0 0 Z " fill="#12695C" transform="translate(597.126220703125,267.693603515625)"/>
<path d="M0 0 C0.6273236 21.35903389 1.12529849 42.72163139 1.23217773 64.090271 C1.24400116 66.1035331 1.26103916 68.11677173 1.28344727 70.12994385 C1.3133709 72.96438389 1.32335105 75.79823243 1.328125 78.6328125 C1.34043152 79.46449951 1.35273804 80.29618652 1.36541748 81.15307617 C1.34155737 87.48915364 0.30618073 93.11088223 -3.76171875 98.20703125 C-8.34391266 102.02707526 -12.27264142 104.28179243 -18 106 C-18.60661972 106.18455246 -19.21323944 106.36910492 -19.83824158 106.55924988 C-22.69608389 107.14192107 -25.42123246 107.1516003 -28.33813477 107.17700195 C-29.62369766 107.18983719 -30.90926056 107.20267242 -32.23377991 107.21589661 C-33.63631806 107.22406818 -35.03886063 107.23151111 -36.44140625 107.23828125 C-37.50753301 107.24439454 -37.50753301 107.24439454 -38.59519768 107.25063133 C-42.3620461 107.27146789 -46.12885843 107.28577633 -49.89575195 107.29516602 C-53.76003359 107.30618631 -57.62373238 107.34054138 -61.48780918 107.38033772 C-64.48124658 107.40666807 -67.47454899 107.41487257 -70.46809196 107.41844749 C-71.89086756 107.42327636 -73.31363866 107.43478289 -74.73629951 107.45348549 C-86.60676151 107.59975669 -96.83908282 105.99143839 -106 98 C-107.4375 95.1875 -107.4375 95.1875 -108 93 C-105.69 91.35 -103.38 89.7 -101 88 C-100.49210938 88.40992188 -99.98421875 88.81984375 -99.4609375 89.2421875 C-98.77257812 89.78101563 -98.08421875 90.31984375 -97.375 90.875 C-96.70210937 91.40867187 -96.02921875 91.94234375 -95.3359375 92.4921875 C-90.62949532 95.53012509 -86.09771193 96.251498 -80.57080078 96.2746582 C-79.31574738 96.28419022 -78.06069397 96.29372223 -76.76760864 96.30354309 C-75.41017631 96.30328161 -74.05274396 96.30234428 -72.6953125 96.30078125 C-71.28815587 96.30467368 -69.88100041 96.30900947 -68.47384644 96.31376648 C-65.53021429 96.32120891 -62.58670211 96.32095211 -59.64306641 96.31567383 C-55.88847542 96.30988566 -52.1343788 96.32680352 -48.37986946 96.3500185 C-45.47489598 96.36481958 -42.57003976 96.36561887 -39.66503525 96.36250877 C-38.2816762 96.36301892 -36.89831005 96.3681985 -35.51498795 96.37832069 C-28.04540613 96.42627051 -21.74404058 96.40655823 -15 93 C-10.42571253 88.19113368 -9.86952668 85.04670506 -10.01342773 78.63208008 C-10.03976426 77.05744213 -10.06591407 75.48280106 -10.09190369 73.90815735 C-10.10737684 73.07123163 -10.12285 72.23430592 -10.13879204 71.37201881 C-10.21503861 66.94292991 -10.25637506 62.51346932 -10.30273438 58.08398438 C-10.36269207 52.44562806 -10.4333104 46.8081806 -10.54858398 41.1706543 C-10.64078336 36.61658706 -10.69353275 32.06354703 -10.72007942 27.5086422 C-10.73732802 25.77537607 -10.76890403 24.04218935 -10.81527519 22.30945778 C-11.16670163 8.76247191 -11.16670163 8.76247191 -8.23831177 4.3387146 C-3.44996911 0 -3.44996911 0 0 0 Z " fill="#12655A" transform="translate(678,386)"/>
<path d="M0 0 C0 0.66 0 1.32 0 2 C0.89138672 2.01401855 0.89138672 2.01401855 1.80078125 2.02832031 C4.53464645 2.08252993 7.26689199 2.16607278 10 2.25 C10.93457031 2.26417969 11.86914062 2.27835938 12.83203125 2.29296875 C18.79881176 2.50159744 24.19089837 3.17622183 29 7 C31.37605887 10.78806107 31.74203704 14.63022629 31 19 C29.9609375 20.7578125 29.9609375 20.7578125 28.75 22.4375 C26.65133712 25.72219564 26.65133712 25.72219564 27.625 28.33203125 C28.35850187 29.9085509 29.14355424 31.462383 29.984375 32.984375 C31 35 31 35 31 38 C28.36 38 25.72 38 23 38 C22.66226563 37.21753906 22.32453125 36.43507813 21.9765625 35.62890625 C21.53054688 34.61699219 21.08453125 33.60507812 20.625 32.5625 C20.18414063 31.55316406 19.74328125 30.54382813 19.2890625 29.50390625 C18.24923714 26.87856453 18.24923714 26.87856453 16 26 C16 29.96 16 33.92 16 38 C13.75390625 38.22786458 11.5078125 38.45572917 9.26171875 38.68359375 C6.83912821 38.95265693 6.83912821 38.95265693 4 40 C0.7 39.34 -2.6 38.68 -6 38 C-6 29.42 -6 20.84 -6 12 C-6.66 12 -7.32 12 -8 12 C-8 13.65 -8 15.3 -8 17 C-8.66 17 -9.32 17 -10 17 C-10 16.01 -10 15.02 -10 14 C-10.99 14 -11.98 14 -13 14 C-12.84853516 14.54938232 -12.69707031 15.09876465 -12.54101562 15.66479492 C-11.85412621 18.17062036 -11.17698869 20.67898246 -10.5 23.1875 C-10.14228516 24.48397461 -10.14228516 24.48397461 -9.77734375 25.80664062 C-9.55175781 26.64775391 -9.32617188 27.48886719 -9.09375 28.35546875 C-8.88427734 29.12528076 -8.67480469 29.89509277 -8.45898438 30.68823242 C-7.96461271 33.17823523 -7.92166481 35.46781499 -8 38 C-10.31 38 -12.62 38 -15 38 C-15.66 36.02 -16.32 34.04 -17 32 C-19.64 32 -22.28 32 -25 32 C-25.66 33.98 -26.32 35.96 -27 38 C-29.31 38 -31.62 38 -34 38 C-33.32425641 31.02294745 -31.73473764 24.4084788 -30 17.625 C-29.72671875 16.53316406 -29.4534375 15.44132813 -29.171875 14.31640625 C-27.14074248 6.28148496 -27.14074248 6.28148496 -26 4 C-22.7 4 -19.4 4 -16 4 C-15.67 4.99 -15.34 5.98 -15 7 C-12.58354218 7.16687448 -12.58354218 7.16687448 -10 7 C-7.93553 5.15404514 -7.93553 5.15404514 -7 2.9375 C-5.24285824 -0.46696215 -3.85568634 0 0 0 Z " fill="#246B5E" transform="translate(574,519)"/>
<path d="M0 0 C0.103125 0.5775 0.20625 1.155 0.3125 1.75 C0.87117946 4.10262555 0.87117946 4.10262555 2.625 5.9375 C4 8 4 8 3.73364258 10.28515625 C2.94780518 13.1931469 1.89180338 15.76180451 0.63671875 18.5 C0.16169922 19.55316406 -0.31332031 20.60632813 -0.80273438 21.69140625 C-1.79542331 23.86684616 -2.79015656 26.04135457 -3.78710938 28.21484375 C-8.74458277 39.22403769 -12.51336093 49.8583551 -13 62 C-11.69289063 61.60167969 -11.69289063 61.60167969 -10.359375 61.1953125 C-9.16828125 60.84210938 -7.9771875 60.48890625 -6.75 60.125 C-5.58984375 59.77695312 -4.4296875 59.42890625 -3.234375 59.0703125 C7.96916636 56.0956546 18.75111315 55.74248402 30.25 55.875 C31.78515035 55.88505911 33.32030715 55.89417973 34.85546875 55.90234375 C38.57044927 55.92410381 42.28518161 55.95846866 46 56 C46 58 46 58 44.62133789 59.69799805 C39.03282651 65.04440785 35.03157695 65.96420929 27.4375 65.8125 C25.47909756 65.83906842 23.52075328 65.87033217 21.5625 65.90625 C20.61246094 65.9165625 19.66242187 65.926875 18.68359375 65.9375 C7.69277374 66.19347252 -4.08978592 68.04489296 -14 73 C-13.98839844 74.04865234 -13.97679687 75.09730469 -13.96484375 76.17773438 C-13.93210704 80.09954666 -13.95229186 84.01966729 -13.98779297 87.94140625 C-13.99586262 89.63280456 -13.98991983 91.32433389 -13.96923828 93.015625 C-13.79151256 108.87998439 -13.79151256 108.87998439 -18.9375 114.15625 C-22.44680851 117 -22.44680851 117 -25 117 C-25.10271272 109.23034156 -25.17200692 101.4608626 -25.21972656 93.69067383 C-25.23736336 91.05557626 -25.26679802 88.42138866 -25.30175781 85.78637695 C-25.55020971 66.5569311 -25.01863249 48.68299084 -17.1875 30.8125 C-16.84565674 29.99716797 -16.50381348 29.18183594 -16.15161133 28.34179688 C-15.11706323 25.88734165 -14.05937108 23.44382173 -13 21 C-12.34248716 19.44193857 -11.68620106 17.88335879 -11.03125 16.32421875 C-10.41817657 14.88216964 -9.80366835 13.4407294 -9.1875 12 C-8.90994873 11.34749268 -8.63239746 10.69498535 -8.34643555 10.02270508 C-6.89279721 6.70243788 -5.46003157 3.68601872 -3 1 C-2.01 0.67 -1.02 0.34 0 0 Z " fill="#10695D" transform="translate(592,298)"/>
<path d="M0 0 C0.66 0 1.32 0 2 0 C2.51046875 1.17755859 2.51046875 1.17755859 3.03125 2.37890625 C8.05320028 13.26425062 13.78827324 18.82155554 25 23 C25 23.66 25 24.32 25 25 C24.21496094 25.3403125 23.42992187 25.680625 22.62109375 26.03125 C11.73574938 31.05320028 6.17844446 36.78827324 2 48 C1.34 48 0.68 48 0 48 C-0.3403125 47.21496094 -0.680625 46.42992187 -1.03125 45.62109375 C-6.05320028 34.73574938 -11.78827324 29.17844446 -23 25 C-23 24.34 -23 23.68 -23 23 C-22.21496094 22.6596875 -21.42992187 22.319375 -20.62109375 21.96875 C-9.73574938 16.94679972 -4.17844446 11.21172676 0 0 Z " fill="#EBECEE" transform="translate(1191,752)"/>
<path d="M0 0 C15 0 15 0 21 3 C25.61474474 7.933003 25.28557581 13.56719577 25.21484375 20.01953125 C24.91835369 24.13265698 24.13586676 26.46477227 22 30 C17 34 17 34 0 34 C0 22.78 0 11.56 0 0 Z " fill="#F1F5EE" transform="translate(513,523)"/>
<path d="M0 0 C16 0 16 0 21 3 C23.32288406 5.98656523 23.39276154 9.20804131 23.3515625 12.9296875 C22.94919011 15.29921381 22.14499161 16.50251164 20.75 18.4375 C18.65133712 21.72219564 18.65133712 21.72219564 19.625 24.33203125 C20.35850187 25.9085509 21.14355424 27.462383 21.984375 28.984375 C23 31 23 31 23 34 C20.36 34 17.72 34 15 34 C14.66226563 33.21753906 14.32453125 32.43507813 13.9765625 31.62890625 C13.53054688 30.61699219 13.08453125 29.60507812 12.625 28.5625 C11.96371094 27.04849609 11.96371094 27.04849609 11.2890625 25.50390625 C10.24923714 22.87856453 10.24923714 22.87856453 8 22 C8 25.96 8 29.92 8 34 C5.36 34 2.72 34 0 34 C0 22.78 0 11.56 0 0 Z " fill="#EFF2EC" transform="translate(582,523)"/>
<path d="M0 0 C5.61 0 11.22 0 17 0 C22 5 22 5 22.59375 7.75390625 C22.54734375 9.14416016 22.54734375 9.14416016 22.5 10.5625 C22.4896875 11.49191406 22.479375 12.42132812 22.46875 13.37890625 C21.93708078 16.35182328 20.87785831 17.6903347 19 20 C19.27160135 24.75302369 21.4461477 29.51435091 23 34 C20.36 34 17.72 34 15 34 C14.35165346 32.730447 13.70642185 31.45930294 13.0625 30.1875 C12.70285156 29.47980469 12.34320312 28.77210938 11.97265625 28.04296875 C11 26 11 26 10 23 C9.01 22.67 8.02 22.34 7 22 C7 25.96 7 29.92 7 34 C4.69 34 2.38 34 0 34 C0 22.78 0 11.56 0 0 Z " fill="#F2F4F0" transform="translate(669,523)"/>
<path d="M0 0 C1.09453491 -0.00630432 2.18906982 -0.01260864 3.31677246 -0.019104 C5.09646423 -0.01303131 5.09646423 -0.01303131 6.91210938 -0.00683594 C8.1253186 -0.00874939 9.33852783 -0.01066284 10.58850098 -0.01263428 C13.15747281 -0.01399728 15.7264515 -0.01029286 18.29541016 -0.00195312 C22.23941441 0.00874446 26.18296313 -0.00184487 30.12695312 -0.01464844 C32.61783955 -0.01332686 35.1087257 -0.01076452 37.59960938 -0.00683594 C38.78607056 -0.0108844 39.97253174 -0.01493286 41.19494629 -0.019104 C42.83674866 -0.00964752 42.83674866 -0.00964752 44.51171875 0 C45.96161194 0.00238678 45.96161194 0.00238678 47.4407959 0.00482178 C49.75585938 0.25878906 49.75585938 0.25878906 51.75585938 2.25878906 C52.00585938 5.25878906 52.00585938 5.25878906 51.75585938 8.25878906 C49.18526312 10.82938532 48.1914353 10.51604656 44.61938477 10.53344727 C43.5480983 10.54297928 42.47681183 10.55251129 41.37306213 10.56233215 C40.21161179 10.56142075 39.05016144 10.56050934 37.85351562 10.55957031 C36.66487411 10.56385544 35.4762326 10.56814056 34.25157166 10.57255554 C31.73388304 10.57830725 29.21617779 10.57879295 26.69848633 10.57446289 C22.83776598 10.57130494 18.9778129 10.59474589 15.1171875 10.62011719 C12.67513118 10.62239021 10.23307279 10.62309366 7.79101562 10.62207031 C6.63158951 10.63128006 5.47216339 10.64048981 4.27760315 10.64997864 C3.20316452 10.64374985 2.12872589 10.63752106 1.02172852 10.63110352 C0.07511856 10.63173294 -0.87149139 10.63236237 -1.8467865 10.63301086 C-4.24414062 10.25878906 -4.24414062 10.25878906 -6.0537262 8.89567566 C-7.72766732 6.59391274 -7.60006122 5.03496973 -7.24414062 2.25878906 C-4.65227227 -0.3330793 -3.60587435 0.0059359 0 0 Z " fill="#F3F7EE" transform="translate(600.244140625,277.7412109375)"/>
<path d="M0 0 C3.3 0 6.6 0 10 0 C12.29101417 7.11676742 14.40059935 14.25679383 16.25 21.5 C16.42499023 22.16966797 16.59998047 22.83933594 16.78027344 23.52929688 C17.67226586 27.09367705 18.19789704 30.3247692 18 34 C15.69 34 13.38 34 11 34 C10.34 32.02 9.68 30.04 9 28 C6.36 28 3.72 28 1 28 C0.34 29.98 -0.32 31.96 -1 34 C-3.31 34 -5.62 34 -8 34 C-7.32425641 27.02294745 -5.73473764 20.4084788 -4 13.625 C-3.72671875 12.53316406 -3.4534375 11.44132813 -3.171875 10.31640625 C-1.14074248 2.28148496 -1.14074248 2.28148496 0 0 Z " fill="#F1F3EC" transform="translate(548,523)"/>
<path d="M0 0 C0.66 0.33 1.32 0.66 2 1 C-0.31 3.31 -2.62 5.62 -5 8 C119.74 8.495 119.74 8.495 247 9 C247 9.66 247 10.32 247 11 C214.80334395 11.04558755 182.60669704 11.08099988 150.41001628 11.10213066 C146.61221132 11.10463219 142.81440642 11.10722082 139.01660156 11.10986328 C137.88245019 11.11065021 137.88245019 11.11065021 136.72538666 11.11145304 C124.46942697 11.12016475 112.21348596 11.13593892 99.95753737 11.15430559 C87.38953096 11.17298336 74.82153437 11.18411222 62.25351465 11.18817699 C54.49321554 11.19092647 46.73296925 11.19962234 38.9726864 11.21583293 C33.03037935 11.22761649 27.08809967 11.22891673 21.14578056 11.22621536 C18.70198045 11.22676802 16.25817844 11.23077834 13.81439018 11.23841095 C10.49130736 11.24828539 7.16845501 11.24599647 3.84536743 11.24050903 C2.8667832 11.24633472 1.88819896 11.2521604 0.87996066 11.25816262 C-0.00532052 11.25418052 -0.8906017 11.25019842 -1.80270958 11.24609566 C-2.57050409 11.2468551 -3.33829859 11.24761454 -4.1293596 11.24839699 C-6 11 -6 11 -8 9 C-7.80987828 6.14817424 -6.99682424 4.99629494 -5.125 2.8125 C-3 1 -3 1 0 0 Z " fill="#0C5A4E" transform="translate(533,495)"/>
<path d="M0 0 C6.6 0 13.2 0 20 0 C20 2.31 20 4.62 20 7 C15.71 7 11.42 7 7 7 C7 9.31 7 11.62 7 14 C10.63 14 14.26 14 18 14 C18 16.31 18 18.62 18 21 C14.7 21 11.4 21 8 21 C8 22.98 8 24.96 8 27 C11.96 27 15.92 27 20 27 C20 29.31 20 31.62 20 34 C13.4 34 6.8 34 0 34 C0 22.78 0 11.56 0 0 Z " fill="#EBF0E9" transform="translate(720,523)"/>
<path d="M0 0 C6.6 0 13.2 0 20 0 C20 2.31 20 4.62 20 7 C16.04 7 12.08 7 8 7 C8 9.31 8 11.62 8 14 C11.3 14 14.6 14 18 14 C18 15.98 18 17.96 18 20 C14.37 20 10.74 20 7 20 C7 22.31 7 24.62 7 27 C11.29 27 15.58 27 20 27 C20 29.31 20 31.62 20 34 C13.4 34 6.8 34 0 34 C0 22.78 0 11.56 0 0 Z " fill="#EEF2EA" transform="translate(696,523)"/>
<path d="M0 0 C16.17 0 32.34 0 49 0 C49 2.64 49 5.28 49 8 C34.48 8.33 19.96 8.66 5 9 C4.01 11.64 3.02 14.28 2 17 C1.34 17 0.68 17 0 17 C-2.29648649 14.4385343 -3 13.52032428 -3 10 C-3.99 10.33 -4.98 10.66 -6 11 C-5.51602818 6.64425364 -4.20957142 4.9086741 -1 2 C-0.67 1.34 -0.34 0.68 0 0 Z " fill="#0C6357" transform="translate(595,289)"/>
<path d="M0 0 C2.97 0 5.94 0 9 0 C10.32 3.96 11.64 7.92 13 12 C13.639375 10.205625 14.27875 8.41125 14.9375 6.5625 C16.875 1.125 16.875 1.125 18 0 C20.67058851 -0.14115161 23.32432238 -0.04247107 26 0 C24.4455249 4.9906832 22.75694134 9.53408417 20.375 14.1875 C17.33573371 20.61285577 17.11275739 26.97828984 17 34 C14.36 34 11.72 34 9 34 C9.020625 33.22140625 9.04125 32.4428125 9.0625 31.640625 C8.84757382 19.98087978 4.65438192 10.53862331 0 0 Z " fill="#F0F2EC" transform="translate(606,523)"/>
<path d="M0 0 C6.27 0 12.54 0 19 0 C19 2.31 19 4.62 19 7 C15.37 7 11.74 7 8 7 C8 9.31 8 11.62 8 14 C10.97 14 13.94 14 17 14 C17 15.98 17 17.96 17 20 C14.03 20 11.06 20 8 20 C8 24.62 8 29.24 8 34 C5.36 34 2.72 34 0 34 C0 22.78 0 11.56 0 0 Z " fill="#EFF4EC" transform="translate(646,523)"/>
<path d="M0 0 C4.31714145 3.98505364 5.78031124 6.00462826 6.203125 11.76953125 C6.31363519 18.94348429 6.08117334 24.17934505 1.4375 29.9375 C0 31 0 31 -2 31 C-2 29.68 -2 28.36 -2 27 C-6.455 26.01 -6.455 26.01 -11 25 C-11 18.07 -11 11.14 -11 4 C-5.555 3.505 -5.555 3.505 0 3 C0 2.01 0 1.02 0 0 Z " fill="#EEF3EC" transform="translate(532,525)"/>
<path d="M0 0 C0.99 0.33 1.98 0.66 3 1 C3 10.9 3 20.8 3 31 C9.93 31 16.86 31 24 31 C24 28.69 24 26.38 24 24 C23.34 23.67 22.68 23.34 22 23 C23.32 23 24.64 23 26 23 C26 26.3 26 29.6 26 33 C11.48 33 -3.04 33 -18 33 C-18 32.67 -18 32.34 -18 32 C-9.585 31.505 -9.585 31.505 -1 31 C-0.67 28.69 -0.34 26.38 0 24 C-4.29 24 -8.58 24 -13 24 C-13 21.69 -13 19.38 -13 17 C-9.37 17 -5.74 17 -2 17 C-2 15.02 -2 13.04 -2 11 C-5.3 11 -8.6 11 -12 11 C-12 8.69 -12 6.38 -12 4 C-8.04 4 -4.08 4 0 4 C0 2.68 0 1.36 0 0 Z " fill="#176556" transform="translate(716,526)"/>
<path d="M0 0 C1.06025391 0.15847412 2.12050781 0.31694824 3.21289062 0.48022461 C8.99286663 1.19907943 14.7759821 1.23110935 20.59375 1.31640625 C21.78101685 1.33718735 22.96828369 1.35796844 24.19152832 1.37937927 C27.96096352 1.44443855 31.73046471 1.5035559 35.5 1.5625 C38.06511082 1.60572675 40.63021512 1.64934233 43.1953125 1.69335938 C49.46347317 1.80007491 55.73169857 1.90192004 62 2 C62 2.33 62 2.66 62 3 C61.3257045 3.01030746 60.651409 3.02061493 59.9566803 3.03123474 C52.96556418 3.13905769 45.97458333 3.25367443 38.98364258 3.37231445 C36.37136656 3.41574124 33.75906072 3.45741038 31.14672852 3.49731445 C27.40111281 3.55483007 23.65564831 3.61857764 19.91015625 3.68359375 C18.14612206 3.70866249 18.14612206 3.70866249 16.34645081 3.73423767 C15.26540573 3.75418289 14.18436066 3.77412811 13.07055664 3.79467773 C12.11347305 3.81022202 11.15638947 3.8257663 10.17030334 3.84178162 C8.02137306 3.7606861 8.02137306 3.7606861 7 5 C6.7499227 7.45809998 6.7499227 7.45809998 7 10 C9.50622199 12.50622199 10.35021151 12.2665861 13.81689453 12.31884766 C14.81778107 12.33871735 15.8186676 12.35858704 16.84988403 12.37905884 C18.47493362 12.39638565 18.47493362 12.39638565 20.1328125 12.4140625 C21.23978485 12.43342865 22.3467572 12.4527948 23.48727417 12.4727478 C27.03310369 12.53266754 30.57896545 12.57897873 34.125 12.625 C36.52475397 12.66316835 38.92449408 12.70221939 41.32421875 12.7421875 C47.21602302 12.83837916 53.10791036 12.92339015 59 13 C59 13.33 59 13.66 59 14 C42.17 14 25.34 14 8 14 C7.34 15.65 6.68 17.3 6 19 C3.6875 20.125 3.6875 20.125 1 20 C-2.08617938 17.47494414 -3.73289132 15.80132605 -5 12 C-4.01 12 -3.02 12 -2 12 C-2 9.03 -2 6.06 -2 3 C-1.34 3 -0.68 3 0 3 C0 2.01 0 1.02 0 0 Z " fill="#2D7D6E" transform="translate(587,275)"/>
<path d="M0 0 C2.64 0 5.28 0 8 0 C8 11.22 8 22.44 8 34 C5.36 34 2.72 34 0 34 C0 22.78 0 11.56 0 0 Z " fill="#EDF2EB" transform="translate(569,523)"/>
<path d="M0 0 C0.58007812 0.40992188 1.16015625 0.81984375 1.7578125 1.2421875 C2.92957031 2.05042969 2.92957031 2.05042969 4.125 2.875 C5.27355469 3.67550781 5.27355469 3.67550781 6.4453125 4.4921875 C11.33830626 7.38010125 15.827242 8.25093063 21.46435547 8.31884766 C22.72520966 8.33871735 23.98606384 8.35858704 25.28512573 8.37905884 C26.64581121 8.39093243 28.00649854 8.40259545 29.3671875 8.4140625 C30.77109902 8.43279034 32.17499947 8.45236495 33.57888794 8.4727478 C37.25799005 8.5239046 40.93712858 8.5636178 44.61639404 8.60089111 C48.37716562 8.64103447 52.13778783 8.69207947 55.8984375 8.7421875 C63.26552223 8.83875172 70.63267971 8.92321824 78 9 C78 9.33 78 9.66 78 10 C58.53 10.33 39.06 10.66 19 11 C19.66 11.66 20.32 12.32 21 13 C17.18243176 14.37432457 13.92744671 13.67975039 10 13 C9.67 14.32 9.34 15.64 9 17 C3.9374154 15.6417456 -0.16343388 13.56324874 -4 10 C-5.4375 7.1875 -5.4375 7.1875 -6 5 C-4.02 3.35 -2.04 1.7 0 0 Z " fill="#318272" transform="translate(576,474)"/>
<path d="M0 0 C0.66 0 1.32 0 2 0 C2 8.58 2 17.16 2 26 C4.97 26.33 7.94 26.66 11 27 C11 27.33 11 27.66 11 28 C4.4 28 -2.2 28 -9 28 C-9.33 26.68 -9.66 25.36 -10 24 C-12.43717258 24.27034634 -12.43717258 24.27034634 -15 25 C-15.66 25.99 -16.32 26.98 -17 28 C-19.1640625 28.29296875 -19.1640625 28.29296875 -21.625 28.1875 C-22.85089844 28.14689453 -22.85089844 28.14689453 -24.1015625 28.10546875 C-24.72804688 28.07066406 -25.35453125 28.03585937 -26 28 C-26 27.67 -26 27.34 -26 27 C-24.88625 26.79375 -23.7725 26.5875 -22.625 26.375 C-18.73400805 25.38371699 -18.73400805 25.38371699 -17.5625 21.875 C-17.376875 20.92625 -17.19125 19.9775 -17 19 C-14.36 19 -11.72 19 -9 19 C-8.34 21.31 -7.68 23.62 -7 26 C-4.69 26 -2.38 26 0 26 C-0.15146484 25.37955811 -0.30292969 24.75911621 -0.45898438 24.11987305 C-1.14286096 21.30992938 -1.82148723 18.49874344 -2.5 15.6875 C-2.73847656 14.71103516 -2.97695313 13.73457031 -3.22265625 12.72851562 C-3.44824219 11.79072266 -3.67382812 10.85292969 -3.90625 9.88671875 C-4.11572266 9.02264404 -4.32519531 8.15856934 -4.54101562 7.26831055 C-5 5 -5 5 -5 2 C-4.01 2 -3.02 2 -2 2 C-2 2.99 -2 3.98 -2 5 C-1.34 5 -0.68 5 0 5 C0 3.35 0 1.7 0 0 Z " fill="#156454" transform="translate(566,531)"/>
<path d="M0 0 C0.33 0 0.66 0 1 0 C1 3.3 1 6.6 1 10 C1.99 9.67 2.98 9.34 4 9 C4 9.99 4 10.98 4 12 C4.99 11.67 5.98 11.34 7 11 C7 11.66 7 12.32 7 13 C7.66 13 8.32 13 9 13 C8.47025975 17.04015231 7.39041516 19.21717871 4.6875 22.25 C4.09324219 22.93578125 3.49898437 23.6215625 2.88671875 24.328125 C0.88206032 26.10450969 -0.38378142 26.60727845 -3 27 C-3 26.34 -3 25.68 -3 25 C-4.98 25.33 -6.96 25.66 -9 26 C-9.33 24.35 -9.66 22.7 -10 21 C-11.32 20.67 -12.64 20.34 -14 20 C-12.7625 19.608125 -11.525 19.21625 -10.25 18.8125 C-5.54783401 17.06479229 -3.24075712 14.48151424 -1 10 C-0.77377919 8.29636178 -0.59111527 6.58671299 -0.4375 4.875 C-0.35371094 3.96492188 -0.26992188 3.05484375 -0.18359375 2.1171875 C-0.12300781 1.41851562 -0.06242188 0.71984375 0 0 Z " fill="#136F64" transform="translate(669,462)"/>
<path d="M0 0 C6.6 0 13.2 0 20 0 C14 7 14 7 11.45800781 7.87060547 C10.63139648 7.86947754 9.80478516 7.86834961 8.953125 7.8671875 C7.5609375 7.89425781 7.5609375 7.89425781 6.140625 7.921875 C4.70976563 7.89867187 4.70976563 7.89867187 3.25 7.875 C1.35935133 7.89058227 -0.53127753 7.90879692 -2.421875 7.9296875 C-3.34162109 7.93194336 -4.26136719 7.93419922 -5.20898438 7.93652344 C-9.50017866 8.03411883 -13.7405481 8.49049063 -18 9 C-18 8.01 -18 7.02 -18 6 C-18.66 5.67 -19.32 5.34 -20 5 C-15.47849025 3.28878246 -11.44382847 2.64776388 -6.625 2.375 C-4.75714844 2.26285156 -4.75714844 2.26285156 -2.8515625 2.1484375 C-1.44003906 2.07496094 -1.44003906 2.07496094 0 2 C0 1.34 0 0.68 0 0 Z " fill="#0E675A" transform="translate(616,356)"/>
<path d="M0 0 C0.33 0 0.66 0 1 0 C1 11.22 1 22.44 1 34 C7.27 34 13.54 34 20 34 C20 34.33 20 34.66 20 35 C19.42668945 35.02505615 18.85337891 35.0501123 18.26269531 35.07592773 C2.61329839 35.76266388 2.61329839 35.76266388 -13 37 C-13.33 36.34 -13.66 35.68 -14 35 C-15.485 35.495 -15.485 35.495 -17 36 C-18.39439664 36.06665376 -19.79169875 36.08538199 -21.1875 36.0625 C-22.445625 36.041875 -23.70375 36.02125 -25 36 C-25 35.67 -25 35.34 -25 35 C-23.02 35 -21.04 35 -19 35 C-19 30.71 -19 26.42 -19 22 C-17.68 22.33 -16.36 22.66 -15 23 C-13.734375 25.28515625 -13.734375 25.28515625 -12.75 28.0625 C-12.41484375 28.98160156 -12.0796875 29.90070312 -11.734375 30.84765625 C-11.49203125 31.55792969 -11.2496875 32.26820313 -11 33 C-8.36 33.33 -5.72 33.66 -3 34 C-3.66 32.35 -4.32 30.7 -5 29 C-3.68 28.67 -2.36 28.34 -1 28 C-1.33 29.32 -1.66 30.64 -2 32 C-1.34 32 -0.68 32 0 32 C0 21.44 0 10.88 0 0 Z " fill="#0B5E4E" transform="translate(695,523)"/>
<path d="M0 0 C0.66 0 1.32 0 2 0 C2 8.25 2 16.5 2 25 C1.34 24.67 0.68 24.34 0 24 C0 22.02 0 20.04 0 18 C-4.29 18 -8.58 18 -13 18 C-13 15.69 -13 13.38 -13 11 C-9.37 11 -5.74 11 -2 11 C-2 9.02 -2 7.04 -2 5 C-5.3 5 -8.6 5 -12 5 C-12 4.67 -12 4.34 -12 4 C-8.04 4 -4.08 4 0 4 C-0.33 3.01 -0.66 2.02 -1 1 C-0.67 0.67 -0.34 0.34 0 0 Z " fill="#177362" transform="translate(716,532)"/>
<path d="M0 0 C1.98958219 0.0050324 3.97916563 0.00959218 5.96875 0.01367188 C10.77086518 0.02452276 15.57291809 0.0416882 20.375 0.0625 C20.375 0.7225 20.375 1.3825 20.375 2.0625 C16.27165829 2.42669665 12.1672563 2.7771393 8.0625 3.125 C6.89525391 3.22876953 5.72800781 3.33253906 4.52539062 3.43945312 C2.84799805 3.57963867 2.84799805 3.57963867 1.13671875 3.72265625 C-0.4107605 3.85619507 -0.4107605 3.85619507 -1.98950195 3.99243164 C-4.625 4.0625 -4.625 4.0625 -7.625 3.0625 C-10.13868055 2.9778183 -12.62369374 2.94648115 -15.13671875 2.96484375 C-16.22905571 2.96696617 -16.22905571 2.96696617 -17.34346008 2.96913147 C-19.66651539 2.97472341 -21.98947388 2.98727438 -24.3125 3 C-25.88867048 3.00501604 -27.46484248 3.00957877 -29.04101562 3.01367188 C-32.90238098 3.0246902 -36.76367408 3.04194926 -40.625 3.0625 C-40.625 2.4025 -40.625 1.7425 -40.625 1.0625 C-27.07000007 0.12828983 -13.58378336 -0.06070325 0 0 Z " fill="#0F6457" transform="translate(633.625,267.9375)"/>
<path d="M0 0 C7 1 7 1 8 2 C8.12682623 4.47163686 8.18520251 6.90290611 8.1875 9.375 C8.19974609 10.06078125 8.21199219 10.7465625 8.22460938 11.453125 C8.23552331 15.19296797 8.1266842 16.8099737 6 20 C4.02 20 2.04 20 0 20 C0 13.4 0 6.8 0 0 Z " fill="#1A6557" transform="translate(521,530)"/>
<path d="M0 0 C0 0.66 0 1.32 0 2 C6.93 2.33 13.86 2.66 21 3 C21 3.33 21 3.66 21 4 C16.71 4 12.42 4 8 4 C8 5.65 8 7.3 8 9 C7.67 7.68 7.34 6.36 7 5 C3.04 4.67 -0.92 4.34 -5 4 C-5 15.22 -5 26.44 -5 38 C-5.33 38 -5.66 38 -6 38 C-6 29.42 -6 20.84 -6 12 C-6.66 12 -7.32 12 -8 12 C-8 13.65 -8 15.3 -8 17 C-8.66 17 -9.32 17 -10 17 C-10 16.01 -10 15.02 -10 14 C-11.32 13.67 -12.64 13.34 -14 13 C-14.33 11.35 -14.66 9.7 -15 8 C-14.05125 7.773125 -13.1025 7.54625 -12.125 7.3125 C-8.80353159 6.33026976 -8.80353159 6.33026976 -7.8125 3.4375 C-7.544375 2.633125 -7.27625 1.82875 -7 1 C-4 0 -4 0 0 0 Z " fill="#207A67" transform="translate(574,519)"/>
<path d="M0 0 C0.33 0 0.66 0 1 0 C1 11.22 1 22.44 1 34 C0.67 34 0.34 34 0 34 C0 31.69 0 29.38 0 27 C-0.66 27 -1.32 27 -2 27 C-2 24.69 -2 22.38 -2 20 C-2.33 20 -2.66 20 -3 20 C-3 18.02 -3 16.04 -3 14 C-6.3 14 -9.6 14 -13 14 C-13 11.69 -13 9.38 -13 7 C-9.04 7 -5.08 7 -1 7 C-0.67 4.69 -0.34 2.38 0 0 Z " fill="#0D6051" transform="translate(667,523)"/>
<path d="M0 0 C0.103125 0.5775 0.20625 1.155 0.3125 1.75 C0.87117946 4.10262555 0.87117946 4.10262555 2.625 5.9375 C4 8 4 8 3.9375 10.1875 C2.58090766 14.25727701 0.81838815 18.11795273 -1 22 C-1.33 21.01 -1.66 20.02 -2 19 C-2.66 19 -3.32 19 -4 19 C-6.77580434 12.97863981 -7.34983714 9.04729448 -5.15234375 2.75 C-4 1 -4 1 -1.87890625 0.25 C-1.25886719 0.1675 -0.63882813 0.085 0 0 Z " fill="#167366" transform="translate(592,298)"/>
<path d="M0 0 C0.33 0 0.66 0 1 0 C1 11.22 1 22.44 1 34 C-0.32 34 -1.64 34 -3 34 C-3 23.77 -3 13.54 -3 3 C-2.34 3 -1.68 3 -1 3 C-0.67 2.01 -0.34 1.02 0 0 Z " fill="#096153" transform="translate(511,523)"/>
<path d="M0 0 C0.33 0 0.66 0 1 0 C2.33257403 9.41002278 2.33257403 9.41002278 1 14 C0.34 14 -0.32 14 -1 14 C-1 30.83 -1 47.66 -1 65 C-0.34 64.34 0.32 63.68 1 63 C1.66 63.66 2.32 64.32 3 65 C2.77870194 67.87687481 2.36521506 69.53951144 0.5625 71.8125 C-1 73 -1 73 -3 73 C-3.07681806 65.17535784 -3.12891827 57.35081488 -3.16479492 49.52587891 C-3.17805814 46.87042218 -3.20015588 44.21546797 -3.22631836 41.56005859 C-3.49791465 13.2607903 -3.49791465 13.2607903 0 0 Z " fill="#28786B" transform="translate(570,342)"/>
<path d="M0 0 C2.25597827 2.25597827 2.96574192 4.04603867 4.125 7 C4.47820313 7.886875 4.83140625 8.77375 5.1953125 9.6875 C6 12 6 12 6 14 C4.125 14.625 4.125 14.625 2 15 C1.34 14.34 0.68 13.68 0 13 C-0.2475 13.94875 -0.495 14.8975 -0.75 15.875 C-2 19 -2 19 -4.125 20.375 C-4.74375 20.58125 -5.3625 20.7875 -6 21 C-7.25 18.375 -7.25 18.375 -8 15 C-6.1875 12 -6.1875 12 -4 9 C-3.20929452 5.76961158 -3.20929452 5.76961158 -3 3 C-2.67 4.32 -2.34 5.64 -2 7 C-1.34 7 -0.68 7 0 7 C0 4.69 0 2.38 0 0 Z " fill="#1C7464" transform="translate(608,529)"/>
<path d="M0 0 C0.72680969 0.0028299 1.45361938 0.00565979 2.20245361 0.00857544 C4.51534751 0.01973727 6.82784888 0.04483399 9.140625 0.0703125 C10.71223398 0.08034749 12.28384904 0.08947244 13.85546875 0.09765625 C17.70067122 0.11966346 21.54558164 0.15416535 25.390625 0.1953125 C25.390625 0.8553125 25.390625 1.5153125 25.390625 2.1953125 C17.89887035 3.2726666 10.90157316 3.0341641 3.390625 2.1953125 C3.390625 2.8553125 3.390625 3.5153125 3.390625 4.1953125 C-1.65939722 5.23121449 -6.48353889 5.29782922 -11.609375 5.1953125 C-11.609375 4.2053125 -11.609375 3.2153125 -11.609375 2.1953125 C-7.89562804 -0.21112891 -4.27088666 -0.06287391 0 0 Z " fill="#1E7165" transform="translate(612.609375,353.8046875)"/>
<path d="M0 0 C0.33 0 0.66 0 1 0 C2.8622102 9.14478225 3.19271981 18.06938568 3.1875 27.375 C3.18814453 28.49181152 3.18878906 29.60862305 3.18945312 30.75927734 C3.15104531 36.5946466 2.87747897 42.22969829 2 48 C1.67 48 1.34 48 1 48 C-0.13012105 37.74099813 -0.11660861 27.55309541 -0.0625 17.25 C-0.05747197 15.57031384 -0.05291138 13.89062622 -0.04882812 12.2109375 C-0.03793264 8.14058804 -0.02074084 4.07031071 0 0 Z " fill="#3A8276" transform="translate(817,391)"/>
<path d="M0 0 C0.33 0 0.66 0 1 0 C1 10.56 1 21.12 1 32 C0.34 32 -0.32 32 -1 32 C-1 31.01 -1 30.02 -1 29 C-1.99 29 -2.98 29 -4 29 C-5.32789969 26.8128711 -6.04752686 25.52279544 -5.8125 22.9375 C-5 21 -5 21 -3.48828125 19.8828125 C-1.14633412 16.92003424 -1.4649013 13.56887033 -1.375 9.9375 C-1.10300378 2.20600757 -1.10300378 2.20600757 0 0 Z " fill="#106454" transform="translate(694,523)"/>
<path d="M0 0 C0.99 0.33 1.98 0.66 3 1 C4.55266653 1.1464714 6.10995662 1.24694074 7.66796875 1.31640625 C9.00698242 1.37924805 9.00698242 1.37924805 10.37304688 1.44335938 C11.76620117 1.50233398 11.76620117 1.50233398 13.1875 1.5625 C14.12787109 1.60568359 15.06824219 1.64886719 16.03710938 1.69335938 C18.35792854 1.79938665 20.67885325 1.90145029 23 2 C23 2.33 23 2.66 23 3 C16.73 3 10.46 3 4 3 C4 14.22 4 25.44 4 37 C3.67 37 3.34 37 3 37 C2.67 27.1 2.34 17.2 2 7 C1.34 6.67 0.68 6.34 0 6 C0 5.01 0 4.02 0 3 C-6.27 3 -12.54 3 -19 3 C-19 2.67 -19 2.34 -19 2 C-17.71222656 1.93941406 -16.42445313 1.87882813 -15.09765625 1.81640625 C-13.41925841 1.73201753 -11.74087364 1.6473687 -10.0625 1.5625 C-8.78729492 1.50352539 -8.78729492 1.50352539 -7.48632812 1.44335938 C-6.67744141 1.40146484 -5.86855469 1.35957031 -5.03515625 1.31640625 C-3.91185913 1.26141968 -3.91185913 1.26141968 -2.76586914 1.20532227 C-0.97538674 1.18228937 -0.97538674 1.18228937 0 0 Z " fill="#559082" transform="translate(716,520)"/>
<path d="M0 0 C2.3014284 0.0100492 4.60286104 0.01917162 6.90429688 0.02734375 C12.49879169 0.04920498 18.09312565 0.082529 23.6875 0.125 C23.6875 0.455 23.6875 0.785 23.6875 1.125 C22.51880371 1.14481934 21.35010742 1.16463867 20.14599609 1.18505859 C15.74362294 1.26205054 11.34154087 1.35060996 6.93945312 1.44238281 C5.04660861 1.4802911 3.15370135 1.51520472 1.26074219 1.546875 C-8.72300946 1.71591206 -18.4632137 1.97952573 -28.31787109 3.70947266 C-31.67919273 4.17588138 -34.92323215 4.19027007 -38.3125 4.125 C-38.3125 3.465 -38.3125 2.805 -38.3125 2.125 C-25.67634527 -0.67601693 -12.86217916 -0.09799403 0 0 Z " fill="#0A5A49" transform="translate(621.3125,242.875)"/>
<path d="M0 0 C0.33 0 0.66 0 1 0 C1 11.22 1 22.44 1 34 C7.27 34 13.54 34 20 34 C20 34.33 20 34.66 20 35 C16.35471652 35.19937616 12.70877772 35.38229958 9.0625 35.5625 C8.04091797 35.61857422 7.01933594 35.67464844 5.96679688 35.73242188 C-0.17004306 36.02651964 -5.91418417 35.85671026 -12 35 C-11.67 34.34 -11.34 33.68 -11 33 C-8.36 33.33 -5.72 33.66 -3 34 C-3.66 32.35 -4.32 30.7 -5 29 C-3.68 28.67 -2.36 28.34 -1 28 C-1.33 29.32 -1.66 30.64 -2 32 C-1.34 32 -0.68 32 0 32 C0 21.44 0 10.88 0 0 Z " fill="#347966" transform="translate(695,523)"/>
<path d="M0 0 C1.11658501 4.68965706 0.80619523 7.53763531 -1 12 C-1.66 12 -2.32 12 -3 12 C-4.62514468 13.45833358 -4.62514468 13.45833358 -6 15 C-6.33 13.02 -6.66 11.04 -7 9 C-8.32 9 -9.64 9 -11 9 C-10.67 7.02 -10.34 5.04 -10 3 C-9.67 3.66 -9.34 4.32 -9 5 C-0.59090909 0 -0.59090909 0 0 0 Z " fill="#167667" transform="translate(582,333)"/>
<path d="M0 0 C0.66 0.33 1.32 0.66 2 1 C-0.31 3.31 -2.62 5.62 -5 8 C19.255 8.495 19.255 8.495 44 9 C44 9.33 44 9.66 44 10 C27.17 10 10.34 10 -7 10 C-7.33 8.68 -7.66 7.36 -8 6 C-5.46183391 2.96830161 -3.77491089 1.25830363 0 0 Z " fill="#1E675A" transform="translate(533,495)"/>
<path d="M0 0 C0.99 0 1.98 0 3 0 C3 1.65 3 3.3 3 5 C3.66 5 4.32 5 5 5 C3.91103333 10.75762166 2.70663707 16.39247819 1 22 C-0.65 22 -2.3 22 -4 22 C-3.505 20.515 -3.505 20.515 -3 19 C-2.01 19.33 -1.02 19.66 0 20 C-0.33 19.01 -0.66 18.02 -1 17 C-1.02172852 15.09887695 -1.02172852 15.09887695 -0.87890625 12.98828125 C-0.83056641 12.23095703 -0.78222656 11.47363281 -0.73242188 10.69335938 C-0.67634766 9.90767578 -0.62027344 9.12199219 -0.5625 8.3125 C-0.51029297 7.51521484 -0.45808594 6.71792969 -0.40429688 5.89648438 C-0.27480978 3.93063478 -0.13809959 1.96526335 0 0 Z " fill="#227160" transform="translate(540,530)"/>
<path d="M0 0 C-2.4763556 3.53765086 -4.92635431 4.43879783 -9 5.25 C-15.00472316 6.17380356 -20.93923058 6.19039066 -27 6 C-26.67 5.34 -26.34 4.68 -26 4 C-23.26953125 3.18359375 -23.26953125 3.18359375 -19.8125 2.4375 C-18.12060547 2.06431641 -18.12060547 2.06431641 -16.39453125 1.68359375 C-10.81369348 0.55971963 -5.70785587 -0.11415712 0 0 Z " fill="#126B5C" transform="translate(594,228)"/>
<path d="M0 0 C6.6 0 13.2 0 20 0 C20 0.66 20 1.32 20 2 C19.34 2 18.68 2 18 2 C18 5.3 18 8.6 18 12 C14.37 12 10.74 12 7 12 C7 11.67 7 11.34 7 11 C10.3 11 13.6 11 17 11 C17 8.69 17 6.38 17 4 C10.73 4 4.46 4 -2 4 C-1.01 3.34 -0.02 2.68 1 2 C0.67 1.34 0.34 0.68 0 0 Z " fill="#267C6D" transform="translate(648,519)"/>
<path d="M0 0 C0.66 0 1.32 0 2 0 C2 4.62 2 9.24 2 14 C-2.62 13.34 -7.24 12.68 -12 12 C-12 13.98 -12 15.96 -12 18 C-12.33 18 -12.66 18 -13 18 C-13 15.69 -13 13.38 -13 11 C-9.37 11 -5.74 11 -2 11 C-2 9.02 -2 7.04 -2 5 C-5.3 5 -8.6 5 -12 5 C-12 4.67 -12 4.34 -12 4 C-8.04 4 -4.08 4 0 4 C-0.33 3.01 -0.66 2.02 -1 1 C-0.67 0.67 -0.34 0.34 0 0 Z " fill="#246E5D" transform="translate(716,532)"/>
<path d="M0 0 C0.66 0 1.32 0 2 0 C2.66 2.97 3.32 5.94 4 9 C4.66 9 5.32 9 6 9 C6 9.99 6 10.98 6 12 C5.34 12 4.68 12 4 12 C3.67 12.99 3.34 13.98 3 15 C2.01 15.33 1.02 15.66 0 16 C-0.68025637 14.00458132 -1.34490497 12.00382009 -2 10 C-2.268125 9.34 -2.53625 8.68 -2.8125 8 C-3.10971035 4.82975627 -1.53118594 2.69488725 0 0 Z " fill="#0C6056" transform="translate(584,308)"/>
<path d="M0 0 C0.66 0.33 1.32 0.66 2 1 C2.04254356 2.99954746 2.04080783 5.00041636 2 7 C1.67 7.33 1.34 7.66 1 8 C-0.093125 7.9175 -1.18625 7.835 -2.3125 7.75 C-6.15057817 7.59831107 -6.15057817 7.59831107 -8.4375 10.5 C-8.953125 11.325 -9.46875 12.15 -10 13 C-11.32 12.67 -12.64 12.34 -14 12 C-12.04417252 10.18472893 -10.08550123 8.37271109 -8.125 6.5625 C-7.56941406 6.04623047 -7.01382812 5.52996094 -6.44140625 4.99804688 C-2.2265625 1.11328125 -2.2265625 1.11328125 0 0 Z M-16 13 C-14 14 -14 14 -14 14 Z " fill="#126157" transform="translate(506,480)"/>
<path d="M0 0 C4.29 0 8.58 0 13 0 C12.34 1.32 11.68 2.64 11 4 C10.01 3.67 9.02 3.34 8 3 C8.33 2.67 8.66 2.34 9 2 C7.35 2 5.7 2 4 2 C3.67 2.66 3.34 3.32 3 4 C5.97 4.33 8.94 4.66 12 5 C12.33 6.98 12.66 8.96 13 11 C12.01 11.495 12.01 11.495 11 12 C11 10.35 11 8.7 11 7 C7.37 7 3.74 7 0 7 C0 4.69 0 2.38 0 0 Z " fill="#297667" transform="translate(727,530)"/>
<path d="M0 0 C1.32 1.32 2.64 2.64 4 4 C2.68 4 1.36 4 0 4 C0.02525184 6.91038542 0.02525184 6.91038542 1 10 C3.95071844 11.93469849 3.95071844 11.93469849 7 13 C5.02 13.99 5.02 13.99 3 15 C-4.66742597 10.18223235 -4.66742597 10.18223235 -6 5 C-4.02 3.35 -2.04 1.7 0 0 Z " fill="#19685B" transform="translate(576,474)"/>
<path d="M0 0 C2.64 0 5.28 0 8 0 C5.09638794 3.11590445 2.12455671 5.33698235 -1.5 7.5625 C-5.4345228 9.98651981 -5.4345228 9.98651981 -9.15625 12.71484375 C-11 14 -11 14 -14 14 C-13.67 13.01 -13.34 12.02 -13 11 C-12.34 11 -11.68 11 -11 11 C-11 10.34 -11 9.68 -11 9 C-10.28972656 8.68546875 -9.57945312 8.3709375 -8.84765625 8.046875 C-7.92855469 7.61890625 -7.00945313 7.1909375 -6.0625 6.75 C-5.14597656 6.33234375 -4.22945312 5.9146875 -3.28515625 5.484375 C-0.83550383 4.21446051 -0.83550383 4.21446051 -0.18359375 1.828125 C-0.12300781 1.22484375 -0.06242188 0.6215625 0 0 Z " fill="#19645F" transform="translate(530,264)"/>
<path d="M0 0 C13.86 0 27.72 0 42 0 C42 0.33 42 0.66 42 1 C37.87576495 1.36348436 33.75054384 1.71421062 29.625 2.0625 C27.8615625 2.2181543 27.8615625 2.2181543 26.0625 2.37695312 C24.38027344 2.51713867 24.38027344 2.51713867 22.6640625 2.66015625 C21.62717285 2.74918213 20.5902832 2.83820801 19.52197266 2.92993164 C17 3 17 3 15 2 C12.45384991 1.76827173 9.92603775 1.58105471 7.375 1.4375 C6.66859375 1.39431641 5.9621875 1.35113281 5.234375 1.30664062 C3.48981463 1.20055249 1.74493303 1.09977111 0 1 C0 0.67 0 0.34 0 0 Z " fill="#07594E" transform="translate(612,269)"/>
<path d="M0 0 C1.99954746 -0.04254356 4.00041636 -0.04080783 6 0 C7 1 7 1 7.25 3.9375 C7.1675 4.948125 7.085 5.95875 7 7 C4 9 4 9 0 9 C0 6.03 0 3.06 0 0 Z " fill="#296858" transform="translate(590,530)"/>
<path d="M0 0 C3.43680414 6.87360828 4.27716268 13.37802619 4 21 C3.34 21 2.68 21 2 21 C2 23.97 2 26.94 2 30 C1.67 30 1.34 30 1 30 C0.67 20.1 0.34 10.2 0 0 Z " fill="#105F52" transform="translate(448,438)"/>
<path d="M0 0 C0.66 0.33 1.32 0.66 2 1 C-2.84131128 6.93621274 -7.88745607 12.77340216 -15 16 C-15.99 15.67 -16.98 15.34 -18 15 C-17.28714844 14.41992188 -16.57429687 13.83984375 -15.83984375 13.2421875 C-10.50367741 8.88994416 -5.20369116 4.50986567 0 0 Z " fill="#1B685C" transform="translate(709,303)"/>
<path d="M0 0 C0.33 0 0.66 0 1 0 C1.33 3.3 1.66 6.6 2 10 C2.33 10 2.66 10 3 10 C2.67 13.3 2.34 16.6 2 20 C1.01 20.33 0.02 20.66 -1 21 C-1.02888146 17.68751813 -1.04675799 14.37506833 -1.0625 11.0625 C-1.07087891 10.11697266 -1.07925781 9.17144531 -1.08789062 8.19726562 C-1.09111328 7.29814453 -1.09433594 6.39902344 -1.09765625 5.47265625 C-1.10289307 4.64000244 -1.10812988 3.80734863 -1.11352539 2.94946289 C-1 1 -1 1 0 0 Z " fill="#0B6657" transform="translate(450,360)"/>
<path d="M0 0 C2.97 0 5.94 0 9 0 C8.01 1.485 8.01 1.485 7 3 C10.63 4.65 14.26 6.3 18 8 C18 8.66 18 9.32 18 10 C13.49730715 9.4530062 10.15674026 8.30781065 6.1875 6.125 C5.23230469 5.61195313 4.27710938 5.09890625 3.29296875 4.5703125 C1 3 1 3 0 0 Z " fill="#1A6457" transform="translate(693,255)"/>
<path d="M0 0 C0.99 0.99 1.98 1.98 3 3 C1.25 7.875 1.25 7.875 -1 9 C-1.4683265 11.58605332 -1.4683265 11.58605332 -1.625 14.5625 C-1.69976563 15.57441406 -1.77453125 16.58632813 -1.8515625 17.62890625 C-1.90054688 18.41136719 -1.94953125 19.19382812 -2 20 C-2.33 20 -2.66 20 -3 20 C-3.33 15.71 -3.66 11.42 -4 7 C-6.31 6.34 -8.62 5.68 -11 5 C-11 4.67 -11 4.34 -11 4 C-5.555 3.505 -5.555 3.505 0 3 C0 2.01 0 1.02 0 0 Z " fill="#D7E4DA" transform="translate(532,525)"/>
<path d="M0 0 C1 3 1 3 0.375 5.125 C-1.49991284 7.68169932 -2.9267646 7.49970586 -6 8 C-8.78545622 9.52536888 -11.35695191 11.23796794 -14 13 C-12.50838873 9.41207019 -10.46967132 7.35687162 -7.5625 4.8125 C-6.38880859 3.77029297 -6.38880859 3.77029297 -5.19140625 2.70703125 C-3 1 -3 1 0 0 Z " fill="#1C6459" transform="translate(731,285)"/>
<path d="M0 0 C0.33 0 0.66 0 1 0 C2.33257403 9.41002278 2.33257403 9.41002278 1 14 C0.34 14 -0.32 14 -1 14 C-1.33 19.94 -1.66 25.88 -2 32 C-2.33 32 -2.66 32 -3 32 C-3.39782446 20.91985206 -2.41706541 10.81924515 0 0 Z " fill="#3F8377" transform="translate(570,342)"/>
<path d="M0 0 C0.33 0 0.66 0 1 0 C2.26305335 5.07476794 3.27036084 9.72796354 3 15 C0.00468461 15.99843846 -1.17255732 16.00732761 -4.1875 15.5625 C-5.445625 15.376875 -6.70375 15.19125 -8 15 C-8 14.67 -8 14.34 -8 14 C-5.69 14 -3.38 14 -1 14 C-1.01160156 13.24074219 -1.02320313 12.48148438 -1.03515625 11.69921875 C-1.04417969 10.70535156 -1.05320312 9.71148438 -1.0625 8.6875 C-1.07410156 7.70136719 -1.08570313 6.71523438 -1.09765625 5.69921875 C-1 3 -1 3 0 0 Z " fill="#237262" transform="translate(578,543)"/>
<path d="M0 0 C3.3 0 6.6 0 10 0 C10.33 0.66 10.66 1.32 11 2 C10.34 2 9.68 2 9 2 C9 2.99 9 3.98 9 5 C4.545 5.495 4.545 5.495 0 6 C0 4.02 0 2.04 0 0 Z " fill="#0E5E53" transform="translate(728,544)"/>
<path d="M0 0 C0.99 0 1.98 0 3 0 C3 0.99 3 1.98 3 3 C3.66 3 4.32 3 5 3 C6.42857143 11.42857143 6.42857143 11.42857143 4 16 C3.67 16 3.34 16 3 16 C2.49595192 13.89679937 1.99689492 11.79240209 1.5 9.6875 C1.08234375 7.92986328 1.08234375 7.92986328 0.65625 6.13671875 C0 3 0 3 0 0 Z " fill="#1D6A5A" transform="translate(561,533)"/>
<path d="M0 0 C0.99 1.485 0.99 1.485 2 3 C2.66 2.67 3.32 2.34 4 2 C4 7.94 4 13.88 4 20 C0.91228043 16.91228043 0.05479578 14.96878935 -0.1953125 10.546875 C-0.17210937 9.29390625 -0.14890625 8.0409375 -0.125 6.75 C-0.10695313 5.48671875 -0.08890625 4.2234375 -0.0703125 2.921875 C-0.04710937 1.95765625 -0.02390625 0.9934375 0 0 Z " fill="#1E6155" transform="translate(577,532)"/>
<path d="M0 0 C0.99 0.66 1.98 1.32 3 2 C3.33 1.34 3.66 0.68 4 0 C4.66 0 5.32 0 6 0 C3.94235079 6.45353615 1.57616518 12.7361263 -1 19 C-1.33 19 -1.66 19 -2 19 C-1.7834375 17.081875 -1.7834375 17.081875 -1.5625 15.125 C-1.00185355 10.08719116 -0.49498469 5.04463121 0 0 Z " fill="#1A625C" transform="translate(459,340)"/>
<path d="M0 0 C2.99477556 4.49216334 2.11965526 8.40884445 1.69140625 13.65625 C0.99266483 17.03547404 0.56003377 18.24225386 -2.0625 20.375 C-3.031875 20.91125 -4.00125 21.4475 -5 22 C-4.38722388 19.03824877 -3.74627478 17.61941217 -2 15 C-1.75780685 12.02550392 -1.75780685 12.02550392 -1.875 8.8125 C-1.89304687 7.72582031 -1.91109375 6.63914062 -1.9296875 5.51953125 C-1.95289063 4.68808594 -1.97609375 3.85664062 -2 3 C-1.34 3 -0.68 3 0 3 C0 2.01 0 1.02 0 0 Z " fill="#32806E" transform="translate(692,524)"/>
<path d="M0 0 C0.66 0 1.32 0 2 0 C3.29188056 5.32900731 3.69057861 10.71694183 2 16 C1.34 16 0.68 16 0 16 C-1.88259397 13.23147945 -1.99761714 11.97378855 -1.6875 8.5625 C-1.460625 7.386875 -1.23375 6.21125 -1 5 C-0.814375 4.030625 -0.62875 3.06125 -0.4375 2.0625 C-0.293125 1.381875 -0.14875 0.70125 0 0 Z " fill="#156455" transform="translate(631,522)"/>
<path d="M0 0 C1.0013988 3.00419641 1.51421457 5.87709365 2 9 C0.02 9.33 -1.96 9.66 -4 10 C-4.33 8.35 -4.66 6.7 -5 5 C-6.32 4.67 -7.64 4.34 -9 4 C-8.43410156 3.79503906 -7.86820313 3.59007812 -7.28515625 3.37890625 C-6.55167969 3.10949219 -5.81820312 2.84007812 -5.0625 2.5625 C-4.33160156 2.29566406 -3.60070312 2.02882813 -2.84765625 1.75390625 C-1.01694322 1.14613052 -1.01694322 1.14613052 0 0 Z " fill="#21796D" transform="translate(664,478)"/>
<path d="M0 0 C2.25597827 2.25597827 2.96574192 4.04603867 4.125 7 C4.47820313 7.886875 4.83140625 8.77375 5.1953125 9.6875 C6 12 6 12 6 14 C4.68 14.33 3.36 14.66 2 15 C-0.02558881 11.65060119 -0.21738987 9.13037449 -0.125 5.25 C-0.09792969 3.77273438 -0.09792969 3.77273438 -0.0703125 2.265625 C-0.04710937 1.51796875 -0.02390625 0.7703125 0 0 Z " fill="#2A7E6F" transform="translate(608,529)"/>
<path d="M0 0 C1.66611905 -0.042721 3.33382885 -0.04063832 5 0 C6 1 6 1 6.125 4 C6 7 6 7 5 8 C3.33382885 8.04063832 1.66611905 8.042721 0 8 C0 5.36 0 2.72 0 0 Z " fill="#1B6D58" transform="translate(677,530)"/>
<path d="M0 0 C0.66 0.66 1.32 1.32 2 2 C-1.3 2 -4.6 2 -8 2 C-8.309375 3.588125 -8.61875 5.17625 -8.9375 6.8125 C-9.48923795 9.64475482 -10.08592978 12.25778934 -11 15 C-11.66 15 -12.32 15 -13 15 C-12.81531187 10.24428073 -12.58736396 6.17472792 -10.4375 1.875 C-6.80053248 -0.92266732 -4.51881395 -0.51018867 0 0 Z " fill="#146758" transform="translate(556,520)"/>
<path d="M0 0 C0.99 0.33 1.98 0.66 3 1 C3 4.3 3 7.6 3 11 C-3.93 11 -10.86 11 -18 11 C-18 10.67 -18 10.34 -18 10 C-12.06 9.67 -6.12 9.34 0 9 C0.33 6.69 0.66 4.38 1 2 C0.34 1.67 -0.32 1.34 -1 1 C-0.67 0.67 -0.34 0.34 0 0 Z " fill="#075C4F" transform="translate(739,548)"/>
<path d="M0 0 C2.29013653 3.4352048 2.17842973 4.985331 2 9 C2.66 9 3.32 9 4 9 C4.25 14.625 4.25 14.625 2 18 C1.34 18 0.68 18 0 18 C0 12.06 0 6.12 0 0 Z " fill="#0C6656" transform="translate(810,364)"/>
<path d="M0 0 C-1 3 -1 3 -2.9609375 3.984375 C-3.75757813 4.23703125 -4.55421875 4.4896875 -5.375 4.75 C-6.56222656 5.14445313 -6.56222656 5.14445313 -7.7734375 5.546875 C-10 6 -10 6 -13 5 C-11.28158532 2.13597554 -10.15883902 1.07097062 -7.0625 -0.3125 C-4.12938515 -0.97095435 -2.7534603 -1.05902319 0 0 Z " fill="#127867" transform="translate(578,247)"/>
<path d="M0 0 C0.66 0 1.32 0 2 0 C2 0.99 2 1.98 2 3 C2.7425 3.0825 3.485 3.165 4.25 3.25 C7.51221354 4.1396946 8.80954878 5.48503749 11 8 C10.34 8 9.68 8 9 8 C8.67 8.66 8.34 9.32 8 10 C6.65555841 9.09970429 5.32468562 8.17911978 4 7.25 C3.2575 6.73953125 2.515 6.2290625 1.75 5.703125 C1.1725 5.14109375 0.595 4.5790625 0 4 C0 2.68 0 1.36 0 0 Z " fill="#197568" transform="translate(501,564)"/>
<path d="M0 0 C0.66 0 1.32 0 2 0 C2.66 3.96 3.32 7.92 4 12 C2.02 12 0.04 12 -2 12 C-1.34 8.04 -0.68 4.08 0 0 Z " fill="#4B8471" transform="translate(552,532)"/>
<path d="M0 0 C2.9375 0.375 2.9375 0.375 6 1 C6.33 1.66 6.66 2.32 7 3 C6.01 4.485 6.01 4.485 5 6 C4.01 5.67 3.02 5.34 2 5 C-0.56634861 4.77281504 -3.11678107 4.58391816 -5.6875 4.4375 C-6.7403418 4.37272461 -6.7403418 4.37272461 -7.81445312 4.30664062 C-9.54275206 4.2008264 -11.2713511 4.09993419 -13 4 C-13 3.67 -13 3.34 -13 3 C-8.71 3 -4.42 3 0 3 C0 2.01 0 1.02 0 0 Z " fill="#2D7F70" transform="translate(526,519)"/>
<path d="M0 0 C0.66 0 1.32 0 2 0 C0.4422692 3.82352106 -1.91595258 6.29205593 -5 9 C-5.99 9 -6.98 9 -8 9 C-8.33 7.02 -8.66 5.04 -9 3 C-8.2575 3.020625 -7.515 3.04125 -6.75 3.0625 C-4.29537721 3.00671312 -2.33890739 2.6930096 0 2 C0 1.34 0 0.68 0 0 Z " fill="#146258" transform="translate(555,475)"/>
<path d="M0 0 C2.475 0.495 2.475 0.495 5 1 C5 4.96 5 8.92 5 13 C2.4375 10.8125 2.4375 10.8125 0 8 C0.25 5.375 0.25 5.375 1 3 C0.67 2.01 0.34 1.02 0 0 Z " fill="#135E50" transform="translate(524,531)"/>
<path d="M0 0 C0.33 0 0.66 0 1 0 C1.50690584 2.06081361 2.00524619 4.12373526 2.5 6.1875 C2.7784375 7.33605469 3.056875 8.48460937 3.34375 9.66796875 C3.91495385 12.56818829 4.13283779 15.06096385 4 18 C2.0549 15.08235 1.54723683 13.37462715 1 10 C0.34 10 -0.32 10 -1 10 C-1.33 10.99 -1.66 11.98 -2 13 C-2 10.36 -2 7.72 -2 5 C-1.34 5 -0.68 5 0 5 C0 3.35 0 1.7 0 0 Z " fill="#1D6E5E" transform="translate(452,454)"/>
<path d="M0 0 C4.62 0 9.24 0 14 0 C12.02 2.31 10.04 4.62 8 7 C7.67 6.01 7.34 5.02 7 4 C3.48809191 2.77030122 3.48809191 2.77030122 0 2 C0 1.34 0 0.68 0 0 Z " fill="#176A5C" transform="translate(622,356)"/>
<path d="M0 0 C0.66 0.99 1.32 1.98 2 3 C2.99 3 3.98 3 5 3 C5 5.97 5 8.94 5 12 C2 11 2 11 0.25 7.6875 C-1.33072237 3.02436902 -1.33072237 3.02436902 0 0 Z " fill="#0E5E52" transform="translate(786,344)"/>
<path d="M0 0 C3.40320742 1.01176437 4.75725331 1.64843582 6.8125 4.625 C7.204375 5.40875 7.59625 6.1925 8 7 C7.01 8.485 7.01 8.485 6 10 C5.34 10 4.68 10 4 10 C1.04696841 6.92884715 0.47348414 4.1666604 0 0 Z " fill="#1A756A" transform="translate(654,269)"/>
<path d="M0 0 C-1.50349377 3.66786393 -3.63728792 5.68910393 -6.625 8.25 C-7.44226563 8.95640625 -8.25953125 9.6628125 -9.1015625 10.390625 C-9.72804688 10.92171875 -10.35453125 11.4528125 -11 12 C-11.33 11.01 -11.66 10.02 -12 9 C-10.35 7.68 -8.7 6.36 -7 5 C-7.33 4.01 -7.66 3.02 -8 2 C-2.25 0 -2.25 0 0 0 Z " fill="#1A645F" transform="translate(701,350)"/>
<path d="M0 0 C1.03930664 0.07831055 1.03930664 0.07831055 2.09960938 0.15820312 C3.79604437 0.28689819 5.49184863 0.42386184 7.1875 0.5625 C6.8575 1.5525 6.5275 2.5425 6.1875 3.5625 C-0.0825 2.9025 -6.3525 2.2425 -12.8125 1.5625 C-12.8125 1.2325 -12.8125 0.9025 -12.8125 0.5625 C-8.46757229 -0.57646163 -4.42629215 -0.36850471 0 0 Z " fill="#216B5E" transform="translate(652.8125,243.4375)"/>
<path d="M0 0 C0.94746094 -0.01417969 1.89492188 -0.02835938 2.87109375 -0.04296875 C5.60751644 0.19135482 7.22678123 0.79048617 9.5625 2.1875 C3.22008005 3.34066726 -3.00438704 3.28257063 -9.4375 3.1875 C-7.55470809 -0.57808382 -3.75995257 0.0255085 0 0 Z " fill="#0A6053" transform="translate(576.4375,230.8125)"/>
<path d="M0 0 C0.99 0.33 1.98 0.66 3 1 C-0.35973367 5.11018964 -3.60282237 8.94640442 -8 12 C-8.66 12 -9.32 12 -10 12 C-10 11.01 -10 10.02 -10 9 C-7.06973918 6.2650899 -4.82272915 4.27424305 -1 3 C-0.67 2.01 -0.34 1.02 0 0 Z " fill="#18685D" transform="translate(728,324)"/>
<path d="M0 0 C0.66 0.33 1.32 0.66 2 1 C0.90344712 2.31886772 -0.20253423 3.62990057 -1.3125 4.9375 C-1.92738281 5.66839844 -2.54226563 6.39929688 -3.17578125 7.15234375 C-5 9 -5 9 -8 10 C-8 9.34 -8 8.68 -8 8 C-8.99 7.67 -9.98 7.34 -11 7 C-9.21475351 5.80286983 -7.4215972 4.61752721 -5.625 3.4375 C-4.62726562 2.77621094 -3.62953125 2.11492187 -2.6015625 1.43359375 C-1.74304688 0.96050781 -0.88453125 0.48742187 0 0 Z " fill="#217769" transform="translate(525,250)"/>
<path d="M0 0 C0.66 0 1.32 0 2 0 C3.1845131 3.55353929 3.26641894 6.27013478 3 10 C1.5 11.9375 1.5 11.9375 0 13 C-0.83796731 8.34462607 -1.0161692 4.62921525 0 0 Z " fill="#1E7965" transform="translate(433,373)"/>
<path d="M0 0 C2.0625 1.75 2.0625 1.75 4 4 C3.67 5.32 3.34 6.64 3 8 C-1.29 7.34 -5.58 6.68 -10 6 C-10 7.98 -10 9.96 -10 12 C-10.33 12 -10.66 12 -11 12 C-11 9.69 -11 7.38 -11 5 C-7.37 5 -3.74 5 0 5 C0 3.35 0 1.7 0 0 Z " fill="#488A79" transform="translate(714,538)"/>
<path d="M0 0 C0.66 0 1.32 0 2 0 C0.52278578 3.45201639 -1.43794001 5.64961936 -4.125 8.25 C-4.84945313 8.95640625 -5.57390625 9.6628125 -6.3203125 10.390625 C-6.87460937 10.92171875 -7.42890625 11.4528125 -8 12 C-8.99 11.34 -9.98 10.68 -11 10 C-10.34 9.34 -9.68 8.68 -9 8 C-8.01 8 -7.02 8 -6 8 C-5.67 6.68 -5.34 5.36 -5 4 C-4.01 4 -3.02 4 -2 4 C-1.34 2.68 -0.68 1.36 0 0 Z " fill="#247369" transform="translate(501,289)"/>
<path d="M0 0 C3.40312738 1.05875074 6.01353231 2.00902154 9 4 C8.67 4.99 8.34 5.98 8 7 C4.7 6.34 1.4 5.68 -2 5 C-2 4.34 -2 3.68 -2 3 C-1.34 3 -0.68 3 0 3 C0 2.01 0 1.02 0 0 Z " fill="#116858" transform="translate(715,248)"/>
<path d="M0 0 C0.99 0.99 1.98 1.98 3 3 C2.731875 3.515625 2.46375 4.03125 2.1875 4.5625 C0.67650593 7.66401415 -0.65572726 10.82262806 -2 14 C-4 11 -4 11 -3.57421875 8.80859375 C-3.28160156 8.02613281 -2.98898437 7.24367188 -2.6875 6.4375 C-2.40261719 5.65246094 -2.11773438 4.86742187 -1.82421875 4.05859375 C-1 2 -1 2 0 0 Z " fill="#217565" transform="translate(628,532)"/>
<path d="M0 0 C0 0.33 0 0.66 0 1 C-4.29 1 -8.58 1 -13 1 C-13 2.65 -13 4.3 -13 6 C-13.33 4.68 -13.66 3.36 -14 2 C-17.63 1.67 -21.26 1.34 -25 1 C-25 0.67 -25 0.34 -25 0 C-16.56758584 -1.35520942 -8.46334215 -0.67499048 0 0 Z " fill="#328171" transform="translate(595,522)"/>
<path d="M0 0 C0.66 0.33 1.32 0.66 2 1 C1.625 3.4375 1.625 3.4375 1 6 C0.01 6.495 0.01 6.495 -1 7 C-1.33 6.34 -1.66 5.68 -2 5 C-3.98 5.99 -3.98 5.99 -6 7 C-5.8125 5.1875 -5.8125 5.1875 -5 3 C-2.5625 1.1875 -2.5625 1.1875 0 0 Z " fill="#106353" transform="translate(538,551)"/>
<path d="M0 0 C0.99 0.33 1.98 0.66 3 1 C-0.63 4.96 -4.26 8.92 -8 13 C-8.33 12.01 -8.66 11.02 -9 10 C-8.34 10 -7.68 10 -7 10 C-6.731875 9.4225 -6.46375 8.845 -6.1875 8.25 C-4.97070811 5.94449957 -3.69666121 3.97943808 -2 2 C-1.34 2 -0.68 2 0 2 C0 1.34 0 0.68 0 0 Z " fill="#267870" transform="translate(772,542)"/>
<path d="M0 0 C0.99 0.66 1.98 1.32 3 2 C-1.95 4.97 -1.95 4.97 -7 8 C-7.33 7.34 -7.66 6.68 -8 6 C-7.34 6 -6.68 6 -6 6 C-6.33 5.01 -6.66 4.02 -7 3 C-4.66785852 1.79371992 -2.50357861 0.8345262 0 0 Z " fill="#1C7468" transform="translate(732,577)"/>
<path d="M0 0 C0.99 0.33 1.98 0.66 3 1 C4.1875 4.0625 4.1875 4.0625 5 7 C4.360625 7.103125 3.72125 7.20625 3.0625 7.3125 C2.381875 7.539375 1.70125 7.76625 1 8 C0.67 8.99 0.34 9.98 0 11 C0 7.37 0 3.74 0 0 Z " fill="#2A735F" transform="translate(590,545)"/>
<path d="M0 0 C1.32 0.33 2.64 0.66 4 1 C4.33 2.65 4.66 4.3 5 6 C4.01 6.495 4.01 6.495 3 7 C2.34 6.67 1.68 6.34 1 6 C1 7.98 1 9.96 1 12 C0.67 12 0.34 12 0 12 C0 8.04 0 4.08 0 0 Z " fill="#4C8473" transform="translate(676,545)"/>
<path d="M0 0 C0 2.64 0 5.28 0 8 C-1.32 8.33 -2.64 8.66 -4 9 C-4.75 6.75 -4.75 6.75 -5 4 C-1.75675676 0 -1.75675676 0 0 0 Z " fill="#176555" transform="translate(693,541)"/>
<path d="M0 0 C0.33 0 0.66 0 1 0 C1 4.29 1 8.58 1 13 C0.34 13 -0.32 13 -1 13 C-1 12.01 -1 11.02 -1 10 C-1.99 10 -2.98 10 -4 10 C-3.67 9.01 -3.34 8.02 -3 7 C-2.34 7 -1.68 7 -1 7 C-1.020625 6.030625 -1.04125 5.06125 -1.0625 4.0625 C-1 1 -1 1 0 0 Z " fill="#0B5A4D" transform="translate(694,542)"/>
<path d="M0 0 C0.99 0 1.98 0 3 0 C3 1.65 3 3.3 3 5 C3.66 5 4.32 5 5 5 C4.67 5.99 4.34 6.98 4 8 C3.34 8 2.68 8 2 8 C1.34 8.99 0.68 9.98 0 11 C0 7.37 0 3.74 0 0 Z " fill="#267D6B" transform="translate(540,530)"/>
<path d="M0 0 C0.66 0.33 1.32 0.66 2 1 C1.39305845 4.15330554 0.3583335 6.18888867 -1.5625 8.75 C-2.24505859 9.67039062 -2.24505859 9.67039062 -2.94140625 10.609375 C-3.29074219 11.06828125 -3.64007812 11.5271875 -4 12 C-5.2077558 8.37673261 -4.54311128 7.35853631 -3 4 C-2.34 4 -1.68 4 -1 4 C-0.67 2.68 -0.34 1.36 0 0 Z " fill="#14685C" transform="translate(785,523)"/>
<path d="M0 0 C1.0625 1.875 1.0625 1.875 2 4 C1.67 4.66 1.34 5.32 1 6 C1 7.32 1 8.64 1 10 C-2 9 -2 9 -3.25 6.625 C-4 4 -4 4 -3 1 C-2.34 1.66 -1.68 2.32 -1 3 C-0.67 2.01 -0.34 1.02 0 0 Z " fill="#0F645A" transform="translate(654,309)"/>
<path d="M0 0 C0.66 0.33 1.32 0.66 2 1 C0.90220176 2.15193623 -0.20349446 3.29634937 -1.3125 4.4375 C-1.92738281 5.07558594 -2.54226563 5.71367187 -3.17578125 6.37109375 C-5 8 -5 8 -8 9 C-7.45712148 5.19985035 -5.88535357 3.46103687 -3 1 C-2.01 0.67 -1.02 0.34 0 0 Z " fill="#0F6556" transform="translate(533,495)"/>
<path d="M0 0 C0.99 0.33 1.98 0.66 3 1 C-0.82185842 5.10495904 -4.98339837 7.58459921 -10 10 C-10 9.34 -10 8.68 -10 8 C-7.91796875 6.01953125 -7.91796875 6.01953125 -5.1875 3.8125 C-4.29417969 3.07644531 -3.40085937 2.34039062 -2.48046875 1.58203125 C-1.66191406 1.05996094 -0.84335937 0.53789062 0 0 Z " fill="#17665D" transform="translate(549,443)"/>
<path d="M0 0 C3.3 0 6.6 0 10 0 C10.33 0.66 10.66 1.32 11 2 C4.25 3.125 4.25 3.125 2 2 C1.34 3.32 0.68 4.64 0 6 C0 4.02 0 2.04 0 0 Z " fill="#0E5F53" transform="translate(704,544)"/>
<path d="M0 0 C-0.33 1.32 -0.66 2.64 -1 4 C-1.99 4 -2.98 4 -4 4 C-4.103125 4.61875 -4.20625 5.2375 -4.3125 5.875 C-5 8 -5 8 -8 10 C-7.7312159 6.05783322 -7.44655191 4.43510186 -4.5625 1.625 C-2 0 -2 0 0 0 Z " fill="#0F5851" transform="translate(677,387)"/>
<path d="M0 0 C1.485 0.99 1.485 0.99 3 2 C5.27538323 2.66613335 5.27538323 2.66613335 7.6875 3.125 C8.89986328 3.37636719 8.89986328 3.37636719 10.13671875 3.6328125 C10.75160156 3.75398437 11.36648438 3.87515625 12 4 C12 4.33 12 4.66 12 5 C10.20906809 5.08086147 8.41710372 5.13912702 6.625 5.1875 C5.12839844 5.23970703 5.12839844 5.23970703 3.6015625 5.29296875 C2.74304688 5.19628906 1.88453125 5.09960938 1 5 C0.34 4.01 -0.32 3.02 -1 2 C-0.67 1.34 -0.34 0.68 0 0 Z " fill="#0D6353" transform="translate(595,555)"/>
<path d="M0 0 C0.99 0 1.98 0 3 0 C3 1.98 3 3.96 3 6 C3.66 6 4.32 6 5 6 C5 5.34 5 4.68 5 4 C5.66 4 6.32 4 7 4 C6.67 4.99 6.34 5.98 6 7 C4.02 7 2.04 7 0 7 C0 4.69 0 2.38 0 0 Z " fill="#226F5F" transform="translate(521,543)"/>
<path d="M0 0 C0.33 0 0.66 0 1 0 C1.33 4.62 1.66 9.24 2 14 C0.02 14.66 -1.96 15.32 -4 16 C-3.2884375 14.824375 -3.2884375 14.824375 -2.5625 13.625 C-0.60263251 9.07810742 -0.28089128 4.90106856 0 0 Z " fill="#217266" transform="translate(669,462)"/>
<path d="M0 0 C3 0 3 0 6 1 C6 2.32 6 3.64 6 5 C4.35 5.33 2.7 5.66 1 6 C-0.0625 4.125 -0.0625 4.125 -1 2 C-0.67 1.34 -0.34 0.68 0 0 Z " fill="#0C6154" transform="translate(774,322)"/>
<path d="M0 0 C0 3.3 0 6.6 0 10 C-0.99 10 -1.98 10 -3 10 C-3 7.03 -3 4.06 -3 1 C-1 0 -1 0 0 0 Z " fill="#055A4F" transform="translate(585,277)"/>
<path d="M0 0 C-1.32338632 0.68620031 -2.65949948 1.34786461 -4 2 C-4.721875 2.37125 -5.44375 2.7425 -6.1875 3.125 C-10.1382247 4.35411435 -13.89535484 4.16096648 -18 4 C-12.50312124 1.03343051 -6.25589769 -0.4036063 0 0 Z " fill="#C1D8C9" transform="translate(595,246)"/>
<path d="M0 0 C3.63 0 7.26 0 11 0 C11 0.99 11 1.98 11 3 C9.741875 3.020625 8.48375 3.04125 7.1875 3.0625 C6.47980469 3.07410156 5.77210938 3.08570313 5.04296875 3.09765625 C3 3 3 3 0 2 C0 1.34 0 0.68 0 0 Z " fill="#2B7B6D" transform="translate(584,605)"/>
<path d="M0 0 C0.33 0.66 0.66 1.32 1 2 C1.99 2 2.98 2 4 2 C4 2.66 4 3.32 4 4 C0.04 4 -3.92 4 -8 4 C-8.33 3.34 -8.66 2.68 -9 2 C-6.94921875 1.77213542 -4.8984375 1.54427083 -2.84765625 1.31640625 C-0.98859771 1.18113386 -0.98859771 1.18113386 0 0 Z " fill="#095C51" transform="translate(479,503)"/>
<path d="M0 0 C0.33 0.99 0.66 1.98 1 3 C1.66 3 2.32 3 3 3 C3 4.65 3 6.3 3 8 C1.02 8.99 1.02 8.99 -1 10 C-2.27351308 7.45297384 -1.80191925 6.5717055 -1.0625 3.875 C-0.86785156 3.15054687 -0.67320312 2.42609375 -0.47265625 1.6796875 C-0.31667969 1.12539063 -0.16070313 0.57109375 0 0 Z " fill="#2D7067" transform="translate(796,454)"/>
<path d="M0 0 C3.96 0 7.92 0 12 0 C12 0.66 12 1.32 12 2 C7.545 2.495 7.545 2.495 3 3 C3 2.34 3 1.68 3 1 C2.01 0.67 1.02 0.34 0 0 Z " fill="#0F5347" transform="translate(656,245)"/>
<path d="M0 0 C2.69082872 0.17635452 5.32851446 0.61835921 8 1 C6.25 3 6.25 3 4 5 C2.68 5 1.36 5 0 5 C-0.5625 3.0625 -0.5625 3.0625 -1 1 C-0.67 0.67 -0.34 0.34 0 0 Z " fill="#11685A" transform="translate(557,468)"/>
<path d="M0 0 C0.66 0.33 1.32 0.66 2 1 C2 4.63 2 8.26 2 12 C1.67 11.01 1.34 10.02 1 9 C0.34 9 -0.32 9 -1 9 C-0.67 6.03 -0.34 3.06 0 0 Z " fill="#12574D" transform="translate(798,448)"/>
<path d="M0 0 C0 0.66 0 1.32 0 2 C-0.66 2 -1.32 2 -2 2 C-1.67 2.99 -1.34 3.98 -1 5 C-5.75 6.125 -5.75 6.125 -8 5 C-3.375 0 -3.375 0 0 0 Z " fill="#0F5E53" transform="translate(675,335)"/>
<path d="M0 0 C2.97 0.495 2.97 0.495 6 1 C6 1.66 6 2.32 6 3 C6.66 3.33 7.32 3.66 8 4 C3.545 4.495 3.545 4.495 -1 5 C-0.67 3.35 -0.34 1.7 0 0 Z " fill="#0E665A" transform="translate(577,244)"/>
<path d="M0 0 C2.97 0.495 2.97 0.495 6 1 C5.34 3.64 4.68 6.28 4 9 C2 8 2 8 1.3671875 6.15234375 C1.20476563 5.42144531 1.04234375 4.69054687 0.875 3.9375 C0.70742188 3.20402344 0.53984375 2.47054687 0.3671875 1.71484375 C0.24601563 1.14894531 0.12484375 0.58304688 0 0 Z " fill="#397869" transform="translate(616,527)"/>
<path d="M0 0 C0.99 0.33 1.98 0.66 3 1 C3 6.28 3 11.56 3 17 C2.67 17 2.34 17 2 17 C1.93941406 16.19175781 1.87882813 15.38351562 1.81640625 14.55078125 C1.73261719 13.48214844 1.64882813 12.41351562 1.5625 11.3125 C1.48128906 10.25675781 1.40007813 9.20101562 1.31640625 8.11328125 C1.03548319 5.34913703 0.59843148 2.71054259 0 0 Z " fill="#0F5F4D" transform="translate(716,526)"/>
<path d="M0 0 C0.66 0.33 1.32 0.66 2 1 C-1.75 6.875 -1.75 6.875 -4 8 C-4.66 7.34 -5.32 6.68 -6 6 C-4.02 4.02 -2.04 2.04 0 0 Z " fill="#1E6E65" transform="translate(556,436)"/>
<path d="M0 0 C0.99 0.33 1.98 0.66 3 1 C0.03 3.64 -2.94 6.28 -6 9 C-6.33 8.01 -6.66 7.02 -7 6 C-6.01 5.67 -5.02 5.34 -4 5 C-3.30062468 3.68352881 -2.63270867 2.34977849 -2 1 C-1.34 0.67 -0.68 0.34 0 0 Z " fill="#DDECDE" transform="translate(589,405)"/>
<path d="M0 0 C-0.33 0.99 -0.66 1.98 -1 3 C-1.33 2.34 -1.66 1.68 -2 1 C-4.31 2.32 -6.62 3.64 -9 5 C-9 3.68 -9 2.36 -9 1 C-5.64919071 -1.10976881 -3.77897651 -1.0497157 0 0 Z " fill="#246F63" transform="translate(760,303)"/>
<path d="M0 0 C0.33 1.32 0.66 2.64 1 4 C-0.1875 5.8125 -0.1875 5.8125 -2 7 C-3.32 6.67 -4.64 6.34 -6 6 C-4.02 4.02 -2.04 2.04 0 0 Z M-8 7 C-6 8 -6 8 -6 8 Z " fill="#1D675D" transform="translate(498,486)"/>
<path d="M0 0 C0.33 0 0.66 0 1 0 C0.67 3.3 0.34 6.6 0 10 C-0.99 10.33 -1.98 10.66 -3 11 C-2.53199289 6.94393835 -2.12046792 3.53411321 0 0 Z " fill="#095A4F" transform="translate(452,370)"/>
<path d="M0 0 C2.32472205 2.85306797 3.7508258 5.54074837 5 9 C4.01 9.495 4.01 9.495 3 10 C2.67 9.01 2.34 8.02 2 7 C1.01 6.67 0.02 6.34 -1 6 C-1.33 5.01 -1.66 4.02 -2 3 C-1.34 2.01 -0.68 1.02 0 0 Z " fill="#1A7463" transform="translate(794,324)"/>
<path d="M0 0 C0.33 0.66 0.66 1.32 1 2 C1.66 2 2.32 2 3 2 C3 4.64 3 7.28 3 10 C0.47411298 7.63707344 -0.88820837 6.33537489 -2 3 C-1.34 3 -0.68 3 0 3 C0 2.01 0 1.02 0 0 Z " fill="#15685C" transform="translate(777,325)"/>
<path d="M0 0 C0 0.33 0 0.66 0 1 C-4.0527516 1.98248524 -7.83861737 2.08159574 -12 2 C-12 1.34 -12 0.68 -12 0 C-7.74433453 -1.16063604 -4.3164922 -0.76173392 0 0 Z " fill="#0A5249" transform="translate(595,245)"/>
<path d="M0 0 C-2.49505962 2.49505962 -3.67328888 2.35948376 -7.125 2.625 C-8.03507813 2.69976563 -8.94515625 2.77453125 -9.8828125 2.8515625 C-10.93082031 2.92503906 -10.93082031 2.92503906 -12 3 C-11.01 2.67 -10.02 2.34 -9 2 C-9 1.34 -9 0.68 -9 0 C-5.62182575 -0.84454356 -3.32534757 -1.10844919 0 0 Z " fill="#2E7C6F" transform="translate(671,605)"/>
<path d="M0 0 C3.3 0.33 6.6 0.66 10 1 C10 2.32 10 3.64 10 5 C9.34 5 8.68 5 8 5 C8 4.34 8 3.68 8 3 C5.36 2.67 2.72 2.34 0 2 C0 1.34 0 0.68 0 0 Z " fill="#0B6055" transform="translate(553,595)"/>
<path d="M0 0 C2 2 2 2 2 5 C-0.64 5 -3.28 5 -6 5 C-5.34 4.67 -4.68 4.34 -4 4 C-4 3.34 -4 2.68 -4 2 C-2.68 1.34 -1.36 0.68 0 0 Z " fill="#E3EBE3" transform="translate(603,552)"/>
<path d="M0 0 C0.33 0 0.66 0 1 0 C1.33 4.29 1.66 8.58 2 13 C1.01 12.67 0.02 12.34 -1 12 C-1.08159574 7.83861737 -0.98248524 4.0527516 0 0 Z " fill="#367D6E" transform="translate(448,429)"/>
<path d="M0 0 C-0.75 2.9375 -0.75 2.9375 -2 6 C-4.125 6.875 -4.125 6.875 -6 7 C-5.6875 4.625 -5.6875 4.625 -5 2 C-2 0 -2 0 0 0 Z " fill="#14655B" transform="translate(608,393)"/>
<path d="M0 0 C0.99 0.33 1.98 0.66 3 1 C3.33 2.98 3.66 4.96 4 7 C3.34 6.67 2.68 6.34 2 6 C1.34 6.99 0.68 7.98 0 9 C0 6.03 0 3.06 0 0 Z " fill="#116558" transform="translate(801,341)"/>
<path d="M0 0 C1.485 0.99 1.485 0.99 3 2 C3.33 1.34 3.66 0.68 4 0 C4.66 0 5.32 0 6 0 C5.34 1.98 4.68 3.96 4 6 C2.68 6 1.36 6 0 6 C0 4.02 0 2.04 0 0 Z " fill="#105E56" transform="translate(459,340)"/>
<path d="M0 0 C0.33 0.99 0.66 1.98 1 3 C1.66 3 2.32 3 3 3 C3.33 4.65 3.66 6.3 4 8 C3.01 8.33 2.02 8.66 1 9 C-1.125 2.25 -1.125 2.25 0 0 Z " fill="#166259" transform="translate(658,325)"/>
<path d="M0 0 C0.66 0 1.32 0 2 0 C2.33 1.98 2.66 3.96 3 6 C1.35 6.66 -0.3 7.32 -2 8 C-2 4.79604584 -1.25664978 2.90600261 0 0 Z " fill="#16655B" transform="translate(584,308)"/>
<path d="M0 0 C0 0.99 0 1.98 0 3 C-2.31 3 -4.62 3 -7 3 C-7 3.66 -7 4.32 -7 5 C-8.65 5 -10.3 5 -12 5 C-8.24532309 1.94063363 -4.91886939 0 0 0 Z " fill="#D9EADB" transform="translate(559,256)"/>
<path d="M0 0 C1.32 0.66 2.64 1.32 4 2 C3 5 3 5 1 6 C-0.99960012 6.039992 -3.00047242 6.04346799 -5 6 C-4.34 5.34 -3.68 4.68 -3 4 C-2.01 4 -1.02 4 0 4 C0 2.68 0 1.36 0 0 Z " fill="#155C54" transform="translate(548,254)"/>
<path d="M0 0 C6.52307692 0.61538462 6.52307692 0.61538462 8.9375 2.5625 C9.288125 3.036875 9.63875 3.51125 10 4 C8 5 8 5 6.0546875 4.44140625 C5.33539062 4.15136719 4.61609375 3.86132812 3.875 3.5625 C3.15054688 3.27503906 2.42609375 2.98757812 1.6796875 2.69140625 C0.84824219 2.34916016 0.84824219 2.34916016 0 2 C0 1.34 0 0.68 0 0 Z " fill="#2C7669" transform="translate(684,253)"/>
<path d="M0 0 C0.33 1.32 0.66 2.64 1 4 C1.66 4 2.32 4 3 4 C3.33 3.01 3.66 2.02 4 1 C5.32 1.33 6.64 1.66 8 2 C7.67 2.99 7.34 3.98 7 5 C4.69 5 2.38 5 0 5 C0 3.35 0 1.7 0 0 Z " fill="#D7E3D9" transform="translate(540,552)"/>
<path d="M0 0 C2 1 2 1 3.125 4.0625 C3.41375 5.031875 3.7025 6.00125 4 7 C3.34 7.66 2.68 8.32 2 9 C-1.07692308 4.56923077 -1.07692308 4.56923077 -0.6875 1.6875 C-0.460625 1.130625 -0.23375 0.57375 0 0 Z " fill="#0E6454" transform="translate(604,548)"/>
<path d="M0 0 C0.33 0 0.66 0 1 0 C1.33 4.95 1.66 9.9 2 15 C1.01 15 0.02 15 -1 15 C-0.67 10.05 -0.34 5.1 0 0 Z " fill="#176352" transform="translate(538,535)"/>
<path d="M0 0 C0.33 0 0.66 0 1 0 C1.66 3.3 2.32 6.6 3 10 C0.525 9.01 0.525 9.01 -2 8 C-1.47731534 5.23723823 -0.89130413 2.6739124 0 0 Z " fill="#E0E5DD" transform="translate(561,536)"/>
<path d="M0 0 C0.33 1.32 0.66 2.64 1 4 C-0.75 5.5625 -0.75 5.5625 -3 7 C-4.32 6.67 -5.64 6.34 -7 6 C-4.69 4.02 -2.38 2.04 0 0 Z " fill="#1B6A60" transform="translate(618,382)"/>
<path d="M0 0 C0.66 0 1.32 0 2 0 C2 0.66 2 1.32 2 2 C2.66 2.33 3.32 2.66 4 3 C3.25 7.75 3.25 7.75 1 10 C0.67 6.7 0.34 3.4 0 0 Z " fill="#136559" transform="translate(795,372)"/>
<path d="M0 0 C0.66 0.33 1.32 0.66 2 1 C1.01 4.3 0.02 7.6 -1 11 C-1.66 10.01 -2.32 9.02 -3 8 C-2.24451463 5.1524013 -1.31613642 2.63227284 0 0 Z " fill="#C5D3D1" transform="translate(444,334)"/>
<path d="M0 0 C0 0.99 0 1.98 0 3 C-0.66 3 -1.32 3 -2 3 C-2.66 4.65 -3.32 6.3 -4 8 C-4.33 7.34 -4.66 6.68 -5 6 C-5.66 5.67 -6.32 5.34 -7 5 C-2.25 0 -2.25 0 0 0 Z " fill="#207465" transform="translate(717,297)"/>
<path d="M0 0 C1 2 1 2 0.375 5 C-1 8 -1 8 -3.625 9.375 C-4.40875 9.58125 -5.1925 9.7875 -6 10 C-4.6302836 6.00499382 -2.74277578 3.19990508 0 0 Z " fill="#237368" transform="translate(470,297)"/>
<path d="M0 0 C0.33 0.66 0.66 1.32 1 2 C-0.45635371 2.22174933 -1.91522956 2.42698698 -3.375 2.625 C-4.18710937 2.74101562 -4.99921875 2.85703125 -5.8359375 2.9765625 C-6.55007813 2.98429688 -7.26421875 2.99203125 -8 3 C-8.66 2.34 -9.32 1.68 -10 1 C-6.52674819 -0.1577506 -3.63932552 -0.06866652 0 0 Z " fill="#1B5F54" transform="translate(603,243)"/>
<path d="M0 0 C3.125 -0.1875 3.125 -0.1875 6 0 C6 0.99 6 1.98 6 3 C3.36 3 0.72 3 -2 3 C-1.34 2.01 -0.68 1.02 0 0 Z " fill="#0C695A" transform="translate(644,606)"/>
<path d="M0 0 C0.99 0.33 1.98 0.66 3 1 C-0.32307692 4.93846154 -0.32307692 4.93846154 -3.75 5.25 C-4.4925 5.1675 -5.235 5.085 -6 5 C-2.25 1.125 -2.25 1.125 0 0 Z " fill="#C4D4D2" transform="translate(735,578)"/>
<path d="M0 0 C0.33 0.99 0.66 1.98 1 3 C0.01 2.67 -0.98 2.34 -2 2 C-1.34 1.34 -0.68 0.68 0 0 Z M-6 1 C-5.01 1.33 -4.02 1.66 -3 2 C-3 2.99 -3 3.98 -3 5 C-3.99 5.495 -3.99 5.495 -5 6 C-5.33 4.35 -5.66 2.7 -6 1 Z " fill="#0E6053" transform="translate(758,556)"/>
<path d="M0 0 C1.32 0.33 2.64 0.66 4 1 C4 1.66 4 2.32 4 3 C3.34 3 2.68 3 2 3 C2.66 4.65 3.32 6.3 4 8 C2.68 8 1.36 8 0 8 C0 5.36 0 2.72 0 0 Z " fill="#0E634E" transform="translate(677,530)"/>
<path d="M0 0 C1.65 0 3.3 0 5 0 C5.66 1.98 6.32 3.96 7 6 C6.01 6 5.02 6 4 6 C3.71125 5.38125 3.4225 4.7625 3.125 4.125 C2.06279958 1.86674235 2.06279958 1.86674235 0 0 Z " fill="#146357" transform="translate(612,521)"/>
<path d="M0 0 C0.66 0 1.32 0 2 0 C0.90931332 3.77545388 0.0916909 6.47043472 -3 9 C-3 7.02 -3 5.04 -3 3 C-2.01 2.67 -1.02 2.34 0 2 C0 1.34 0 0.68 0 0 Z " fill="#207A6D" transform="translate(796,507)"/>
<path d="M0 0 C0.66 0 1.32 0 2 0 C2 2.64 2 5.28 2 8 C1.34 8 0.68 8 0 8 C-0.38063221 5.6739143 -0.71269945 3.33944736 -1 1 C-0.67 0.67 -0.34 0.34 0 0 Z " fill="#0F6757" transform="translate(437,464)"/>
<path d="M0 0 C0.66 0 1.32 0 2 0 C0.25 3.875 0.25 3.875 -2 5 C-2.66 4.67 -3.32 4.34 -4 4 C-4 4.66 -4 5.32 -4 6 C-5.32 5.34 -6.64 4.68 -8 4 C-2.25 2 -2.25 2 0 2 C0 1.34 0 0.68 0 0 Z " fill="#0E6256" transform="translate(633,407)"/>
<path d="M0 0 C0.66 0 1.32 0 2 0 C1.67 3.96 1.34 7.92 1 12 C0.67 12 0.34 12 0 12 C-0.19573608 10.56359829 -0.38127816 9.12580496 -0.5625 7.6875 C-0.66691406 6.88699219 -0.77132813 6.08648437 -0.87890625 5.26171875 C-1 3 -1 3 0 0 Z " fill="#2A7467" transform="translate(448,389)"/>
<path d="M0 0 C-2.90092502 1.93395001 -3.89674737 2.30131941 -7.1875 2.625 C-8.445625 2.74875 -9.70375 2.8725 -11 3 C-11 2.34 -11 1.68 -11 1 C-7.32589215 -0.17571451 -3.83070817 -0.07366746 0 0 Z " fill="#0F6659" transform="translate(681,602)"/>
<path d="M0 0 C0.66 0.33 1.32 0.66 2 1 C1.34 2.65 0.68 4.3 0 6 C-1.32 5.67 -2.64 5.34 -4 5 C-3 2 -3 2 0 0 Z " fill="#155C51" transform="translate(574,476)"/>
<path d="M0 0 C0 0.66 0 1.32 0 2 C-1.6796875 3.32421875 -1.6796875 3.32421875 -3.875 4.6875 C-4.59429688 5.14511719 -5.31359375 5.60273438 -6.0546875 6.07421875 C-7.01761719 6.53248047 -7.01761719 6.53248047 -8 7 C-8.66 6.67 -9.32 6.34 -10 6 C-8.90398831 4.99106869 -7.79786082 3.99311775 -6.6875 3 C-6.07261719 2.443125 -5.45773437 1.88625 -4.82421875 1.3125 C-3 0 -3 0 0 0 Z " fill="#1B6A5F" transform="translate(667,342)"/>
<path d="M0 0 C0.66 0.33 1.32 0.66 2 1 C1.67 2.32 1.34 3.64 1 5 C-3.75 4.125 -3.75 4.125 -6 3 C-6 2.34 -6 1.68 -6 1 C-3.525 1.99 -3.525 1.99 -1 3 C-0.67 2.01 -0.34 1.02 0 0 Z " fill="#187465" transform="translate(591,290)"/>
<path d="M0 0 C0 0.66 0 1.32 0 2 C-2.97 2.66 -5.94 3.32 -9 4 C-8.67 3.01 -8.34 2.02 -8 1 C-5.07175348 0.02391783 -3.04386724 -0.08226668 0 0 Z " fill="#26786C" transform="translate(574,249)"/>
<path d="M0 0 C0.66 0 1.32 0 2 0 C2 2.64 2 5.28 2 8 C1.34 8 0.68 8 0 8 C-0.38063221 5.6739143 -0.71269945 3.33944736 -1 1 C-0.67 0.67 -0.34 0.34 0 0 Z " fill="#116756" transform="translate(606,528)"/>
<path d="M0 0 C1.1446875 0.2784375 1.1446875 0.2784375 2.3125 0.5625 C5.08967375 1.22819173 5.08967375 1.22819173 8 0 C7.34 1.32 6.68 2.64 6 4 C4.68 4 3.36 4 2 4 C1.34 2.68 0.68 1.36 0 0 Z " fill="#106759" transform="translate(634,401)"/>
<path d="M0 0 C0.66 0.33 1.32 0.66 2 1 C1.34 3.97 0.68 6.94 0 10 C-2 6 -2 6 -1.125 2.75 C-0.75375 1.8425 -0.3825 0.935 0 0 Z " fill="#1E6F63" transform="translate(454,362)"/>
<path d="M0 0 C0.33 0.99 0.66 1.98 1 3 C-1.97 5.475 -1.97 5.475 -5 8 C-5.66 7.67 -6.32 7.34 -7 7 C-4.69 4.69 -2.38 2.38 0 0 Z " fill="#25766B" transform="translate(481,285)"/>
<path d="M0 0 C-2 2 -2 2 -5.625 2.125 C-6.73875 2.08375 -7.8525 2.0425 -9 2 C-6.98558063 -2.02883874 -3.72407517 -0.90585612 0 0 Z " fill="#176558" transform="translate(576,232)"/>
<path d="M0 0 C0.99 0 1.98 0 3 0 C2.67 1.65 2.34 3.3 2 5 C0.68 4.67 -0.64 4.34 -2 4 C-1.34 2.68 -0.68 1.36 0 0 Z " fill="#1C6C5E" transform="translate(620,523)"/>
<path d="M0 0 C0 0.66 0 1.32 0 2 C-2.31 2.66 -4.62 3.32 -7 4 C-7 3.01 -7 2.02 -7 1 C-4 0 -4 0 0 0 Z " fill="#0B5C53" transform="translate(587,365)"/>
<path d="M0 0 C1.65 0 3.3 0 5 0 C5 0.99 5 1.98 5 3 C2.69 3 0.38 3 -2 3 C-1.34 2.67 -0.68 2.34 0 2 C0 1.34 0 0.68 0 0 Z " fill="#07594E" transform="translate(624,360)"/>
<path d="M0 0 C-0.66 1.32 -1.32 2.64 -2 4 C-4 4 -6 4 -8 4 C-8 3.34 -8 2.68 -8 2 C-2.25 0 -2.25 0 0 0 Z " fill="#0C5C54" transform="translate(701,350)"/>
<path d="M0 0 C1 3 1 3 0.0625 5.1875 C-0.4634375 6.0846875 -0.4634375 6.0846875 -1 7 C-1.99 6.67 -2.98 6.34 -4 6 C-2.25 1.125 -2.25 1.125 0 0 Z " fill="#0B6154" transform="translate(731,285)"/>
<path d="M0 0 C0.66 0.66 1.32 1.32 2 2 C0.75 3.5 0.75 3.5 -1 5 C-2.32 5 -3.64 5 -5 5 C-5 4.34 -5 3.68 -5 3 C-2.5 1.375 -2.5 1.375 0 0 Z " fill="#0D5F53" transform="translate(653,285)"/>
<path d="M0 0 C0 0.33 0 0.66 0 1 C-4.79137588 2.6290678 -8.05632546 3.20577428 -13 2 C-13 1.67 -13 1.34 -13 1 C-8.59085217 -0.10228696 -4.51617599 -0.07654536 0 0 Z " fill="#A4BFBB" transform="translate(654,609)"/>
<path d="M0 0 C0.66 0.99 1.32 1.98 2 3 C-0.475 4.485 -0.475 4.485 -3 6 C-3.99 5.34 -4.98 4.68 -6 4 C-4.7934375 3.566875 -4.7934375 3.566875 -3.5625 3.125 C-0.8673532 2.26737432 -0.8673532 2.26737432 0 0 Z " fill="#1A7367" transform="translate(744,568)"/>
<path d="M0 0 C0.66 0.66 1.32 1.32 2 2 C0.71034824 3.37562854 -0.62689293 4.70766393 -2 6 C-2.66 6 -3.32 6 -4 6 C-2.25 1.125 -2.25 1.125 0 0 Z " fill="#1B6F65" transform="translate(751,563)"/>
<path d="M0 0 C6.4 -0.49230769 6.4 -0.49230769 9.4375 2 C10.2109375 2.99 10.2109375 2.99 11 4 C7.1936543 3.32829194 3.64793184 2.27253436 0 1 C0 0.67 0 0.34 0 0 Z " fill="#DADFD9" transform="translate(679,523)"/>
<path d="M0 0 C0.66 1.32 1.32 2.64 2 4 C-0.475 5.485 -0.475 5.485 -3 7 C-1.125 1.125 -1.125 1.125 0 0 Z " fill="#1D7367" transform="translate(717,333)"/>
<path d="M0 0 C0.99 0.33 1.98 0.66 3 1 C1.35 2.98 -0.3 4.96 -2 7 C-2.66 6.67 -3.32 6.34 -4 6 C-4 5.34 -4 4.68 -4 4 C-3.01 3.67 -2.02 3.34 -1 3 C-0.67 2.01 -0.34 1.02 0 0 Z " fill="#126057" transform="translate(728,324)"/>
<path d="M0 0 C0.99 0 1.98 0 3 0 C3.33 1.98 3.66 3.96 4 6 C2.68 5.34 1.36 4.68 0 4 C0 2.68 0 1.36 0 0 Z " fill="#115D50" transform="translate(767,313)"/>
<path d="M0 0 C0.99 0 1.98 0 3 0 C1.63016497 3.16115776 1.0109362 3.9927092 -2 6 C-2 3 -2 3 0 0 Z " fill="#0F6256" transform="translate(489,300)"/>
<path d="M0 0 C-4.625 4 -4.625 4 -8 4 C-8 3.34 -8 2.68 -8 2 C-7.34 2 -6.68 2 -6 2 C-6 1.34 -6 0.68 -6 0 C-3 -1 -3 -1 0 0 Z " fill="#216863" transform="translate(514,282)"/>
</svg>
