<?xml version="1.0" encoding="UTF-8"?>
<svg version="1.1" xmlns="http://www.w3.org/2000/svg" viewBox="400 190 463 463" width="463" height="463">
<path d="M0 0 C1.25093697 -0.01475876 1.25093697 -0.01475876 2.52714539 -0.02981567 C36.19077098 -0.34506608 65.59333725 4.36623927 96.09375 19.23828125 C96.73860352 19.54846191 97.38345703 19.85864258 98.04785156 20.17822266 C144.16682731 42.6205755 177.57931535 84.87340105 194.26123047 132.70019531 C196.3620831 139.10502345 197.79900901 145.63069192 199.09375 152.23828125 C199.23651367 152.94388184 199.37927734 153.64948242 199.52636719 154.37646484 C206.03261111 186.63720016 204.39274807 220.12257888 193.09375 251.23828125 C192.09375 252.23828125 192.09375 252.23828125 189.66122097 252.36247975 C188.02139872 252.36191017 188.02139872 252.36191017 186.34844875 252.36132908 C184.46442857 252.36431565 184.46442857 252.36431565 182.54234737 252.36736256 C181.13039916 252.36450896 179.71845114 252.36156336 178.3065033 252.35853577 C176.82071192 252.35897134 175.33492062 252.35984598 173.84912974 252.36112493 C169.7468128 252.36337267 165.64452172 252.35934482 161.54220808 252.35434687 C157.12568813 252.35004653 152.70916976 252.3514885 148.29264832 252.35224915 C140.63425791 252.35277465 132.97587599 252.34962513 125.31748772 252.34401131 C114.24461087 252.33589983 103.17173815 252.33328145 92.09885866 252.33202332 C74.13580904 252.32983224 56.17276395 252.32317065 38.2097168 252.3137207 C20.75561547 252.30454802 3.30151536 252.29746648 -14.15258789 252.29321289 C-15.76517142 252.29281881 -15.76517142 252.29281881 -17.41033239 252.29241676 C-22.8033274 252.29111176 -28.19632242 252.28984805 -33.58931744 252.28860486 C-78.36163143 252.27823052 -123.13394048 252.2606107 -167.90625 252.23828125 C-168.7085393 249.88935542 -169.50596093 247.53895324 -170.30078125 245.1875 C-170.63728699 244.20469055 -170.63728699 244.20469055 -170.98059082 243.20202637 C-173.18751222 236.64991297 -174.66590585 230.04225005 -175.90625 223.23828125 C-176.07616455 222.45074463 -176.2460791 221.66320801 -176.42114258 220.85180664 C-178.19925588 211.83281642 -178.24436277 202.90567666 -178.22192383 193.74975586 C-178.21877611 191.07298532 -178.24225496 188.39733694 -178.26757812 185.72070312 C-178.30883863 174.55777308 -177.24113104 164.14615961 -174.90625 153.23828125 C-174.71281006 152.25883545 -174.51937012 151.27938965 -174.32006836 150.27026367 C-167.06407322 114.181325 -148.10476818 82.67846554 -122.90625 56.23828125 C-122.14054687 55.408125 -121.37484375 54.57796875 -120.5859375 53.72265625 C-90.79795899 22.42003477 -43.38300794 0.42211676 0 0 Z " fill="#FAFAEC" transform="translate(619.90625,233.76171875)"/>
<path d="M0 0 C2.35891555 0.38438776 4.72318687 0.71648653 7.08935547 1.05322266 C43.70227578 6.62402446 77.5580711 23.08307778 106.12451172 46.34619141 C106.67671387 46.7901123 107.22891602 47.2340332 107.79785156 47.69140625 C144.69457632 77.52212957 169.66975421 120.25879046 180.12451172 166.34619141 C180.33624023 167.27931152 180.54796875 168.21243164 180.76611328 169.17382812 C186.60396582 196.23056305 186.15164051 225.38006494 180.12451172 252.34619141 C179.91020508 253.3179834 179.69589844 254.28977539 179.47509766 255.29101562 C171.26021598 291.50465343 154.52264174 324.93012083 129.13232422 352.18603516 C127.24963178 354.2115778 125.46714111 356.29323532 123.68701172 358.40869141 C119.53402891 363.14820026 114.91642008 367.26371766 110.12451172 371.34619141 C109.5935791 371.80010254 109.06264648 372.25401367 108.515625 372.72167969 C98.36702015 381.3251077 87.56240242 388.5681821 76.12451172 395.34619141 C75.15046387 395.92626953 75.15046387 395.92626953 74.15673828 396.51806641 C59.59654074 405.06376448 43.35507309 410.86249883 27.12451172 415.34619141 C25.96951172 415.68263672 24.81451172 416.01908203 23.62451172 416.36572266 C-28.88790443 430.73131191 -85.16490141 421.18439393 -132.27148438 395.01513672 C-155.82143291 381.30672469 -178.66746014 362.37326724 -194.87548828 340.34619141 C-195.34664063 339.72437988 -195.81779297 339.10256836 -196.30322266 338.46191406 C-215.65171475 312.91976259 -229.07736039 284.66309021 -235.87548828 253.34619141 C-236.17398682 252.02530518 -236.17398682 252.02530518 -236.47851562 250.67773438 C-243.70254051 217.83534115 -240.73298204 183.54125568 -231.87548828 151.34619141 C-231.67117188 150.59982422 -231.46685547 149.85345703 -231.25634766 149.08447266 C-222.86884015 119.42198579 -206.00389192 91.13832691 -185.01220703 68.63916016 C-183.54623793 67.06599039 -182.11255794 65.46229193 -180.70751953 63.83447266 C-175.28560761 57.56808595 -169.38741117 52.44937453 -162.87548828 47.34619141 C-162.12009766 46.71326172 -161.36470703 46.08033203 -160.58642578 45.42822266 C-141.66232819 29.65814133 -119.33029486 16.92054666 -95.87548828 9.34619141 C-95.12799316 9.09675781 -94.38049805 8.84732422 -93.61035156 8.59033203 C-63.77833913 -1.29468743 -31.1777348 -5.14672805 0 0 Z M-71.87548828 24.34619141 C-72.9839209 24.61109375 -72.9839209 24.61109375 -74.11474609 24.88134766 C-118.30744868 35.59713544 -157.85984671 64.54467354 -183.87548828 101.34619141 C-184.28992188 101.93190918 -184.70435547 102.51762695 -185.13134766 103.12109375 C-207.38667122 135.07817268 -218.31878272 171.31893199 -218.31298828 210.09619141 C-218.31438812 210.99505066 -218.31578796 211.89390991 -218.31723022 212.82000732 C-218.29007279 234.102463 -214.6670526 251.97149846 -207.87548828 272.34619141 C-89.07548828 272.34619141 29.72451172 272.34619141 152.12451172 272.34619141 C155.44295019 264.33822556 155.44295019 264.33822556 157.53857422 256.32275391 C157.74224609 255.28119141 157.94591797 254.23962891 158.15576172 253.16650391 C158.44966797 251.58482422 158.44966797 251.58482422 158.74951172 249.97119141 C158.95318359 248.92447266 159.15685547 247.87775391 159.36669922 246.79931641 C159.97290536 243.65170762 160.55030282 240.49977529 161.12451172 237.34619141 C161.31650146 236.36038086 161.50849121 235.37457031 161.70629883 234.35888672 C163.10048735 226.82118562 163.47327824 219.50429395 163.43701172 211.84619141 C163.43282227 210.62295166 163.42863281 209.39971191 163.42431641 208.1394043 C163.30509165 198.45873479 162.42233519 189.15738976 160.57324219 179.66113281 C160.12244462 177.33552753 159.71758486 175.00494683 159.31591797 172.67041016 C153.9329389 142.98377442 139.48070158 111.76953308 119.12451172 89.34619141 C118.26212891 88.37681641 117.39974609 87.40744141 116.51123047 86.40869141 C114.21055125 83.84265979 111.87072545 81.31700685 109.50537109 78.81054688 C108.18858392 77.41413784 106.88281256 76.00736547 105.57763672 74.60009766 C84.32035387 52.40878268 55.52845048 35.86858012 26.12451172 27.34619141 C25.02880859 26.99169922 23.93310547 26.63720703 22.80419922 26.27197266 C6.17885366 21.08378477 -10.86018667 19.78372738 -28.18798828 19.90869141 C-29.07736084 19.91140045 -29.9667334 19.9141095 -30.88305664 19.91690063 C-44.87645235 19.98131338 -58.26536674 20.87028722 -71.87548828 24.34619141 Z " fill="#166F64" transform="translate(659.87548828125,213.65380859375)"/>
<path d="M0 0 C-22.01705014 80.96720602 -22.01705014 80.96720602 -43 104 C-43.69480469 104.77601563 -44.38960937 105.55203125 -45.10546875 106.3515625 C-60.5721587 122.7479442 -80.83542801 129.84787281 -101.87890625 136.16796875 C-115.02647668 140.25305691 -127.28045229 146.29036749 -138 155 C-138.33 155 -138.66 155 -139 155 C-137.84181599 123.90275933 -121.93875916 95.15571268 -101 73 C-100.27683594 72.21238281 -99.55367187 71.42476563 -98.80859375 70.61328125 C-85.28721 56.40553284 -68.18056154 44.41389133 -50 37 C-73.55648563 38.1085405 -97.33729209 48.70596649 -115 64 C-115.81984375 64.66386719 -116.6396875 65.32773437 -117.484375 66.01171875 C-131.27148409 77.59374673 -139.17968598 93.22380077 -145 110 C-145.66 110 -146.32 110 -147 110 C-149.28174933 106.36001236 -149.28524732 103.22799663 -149.3359375 98.98828125 C-149.34440704 98.30718292 -149.35287659 97.62608459 -149.36160278 96.92434692 C-149.38137013 94.72014705 -149.38144882 92.5167728 -149.375 90.3125 C-149.3737915 89.56324249 -149.37258301 88.81398499 -149.37133789 88.04202271 C-149.27917876 67.10363752 -144.8699048 48.30389924 -131 32 C-130.58878906 31.43539063 -130.17757812 30.87078125 -129.75390625 30.2890625 C-120.20959012 17.77099802 -103.33312917 10.41829005 -88.15332031 8.21826172 C-80.05901107 7.39781813 -70.69083843 6.78113772 -62.69628906 8.4934082 C-59.22405923 9.1457875 -55.79104993 9.23903562 -52.26953125 9.30859375 C-51.15320564 9.33128326 -51.15320564 9.33128326 -50.014328 9.35443115 C-47.61368083 9.39424324 -45.21340667 9.41939926 -42.8125 9.4375 C-42.00031006 9.4436734 -41.18812012 9.4498468 -40.35131836 9.45620728 C-26.11086183 9.50191311 -11.76128288 0 0 0 Z " fill="#69B173" transform="translate(761,306)"/>
<path d="M0 0 C1.72926874 0.31193464 3.45841044 0.62457362 5.1875 0.9375 C6.15042969 1.11152344 7.11335938 1.28554688 8.10546875 1.46484375 C9.86989078 1.79105943 11.63050166 2.14037581 13.38194275 2.53031921 C15.93189567 2.98778205 18.19791575 3.09590758 20.78344727 3.05004883 C22.16627647 3.03056938 22.16627647 3.03056938 23.57704163 3.01069641 C24.56353195 2.99298691 25.55002228 2.9752774 26.56640625 2.95703125 C28.68293317 2.93462697 30.79947033 2.91317333 32.91601562 2.89257812 C36.23148646 2.85564989 39.54642708 2.81278903 42.86157227 2.75317383 C60.02057383 2.45938606 74.59779535 2.96357667 88.15234375 14.89453125 C97.86800798 24.94586142 102.0571304 37.66096294 105 51 C105.22558594 51.95648438 105.45117188 52.91296875 105.68359375 53.8984375 C107.24815739 61.25728167 107.19702055 68.50227356 107 76 C105.18639348 73.27959022 103.82328569 70.55729034 102.43798828 67.60546875 C93.34791738 48.47594912 78.84113503 35.78620269 59.0625 28.125 C52.40211369 25.86032015 46.00906174 25.12807256 39 25 C40.54107422 25.74443359 40.54107422 25.74443359 42.11328125 26.50390625 C71.84386791 41.00382187 91.05111872 61.56372054 102 93 C102.79497579 95.66912162 103.4428308 98.26987091 104 101 C100.17874273 99.86395054 96.65415551 98.3921962 93.0625 96.6875 C84.91393229 92.93761931 76.38778715 90.13442223 67.71875 87.85546875 C48.5962211 82.77376207 33.40484561 71.92386367 23.04541016 54.81445312 C16.26234814 43.04151596 11.71995651 30.25775143 7.0546875 17.54296875 C4.87653537 11.61755489 2.52538772 5.7868181 0 0 Z " fill="#6AB174" transform="translate(503,351)"/>
<path d="M0 0 C4.29 0 8.58 0 13 0 C14.23184378 2.43617741 15.46048543 4.87389116 16.6875 7.3125 C17.19700195 8.31893555 17.19700195 8.31893555 17.71679688 9.34570312 C20.64384762 15.172449 23.29508971 21.04919736 26 27 C26.33 18.09 26.66 9.18 27 0 C30.96 0 34.92 0 39 0 C39 18.15 39 36.3 39 55 C35.04 55 31.08 55 27 55 C21.59492199 44.49387961 16.74458832 33.82099091 12 23 C11.67 33.56 11.34 44.12 11 55 C7.37 55 3.74 55 0 55 C0 36.85 0 18.7 0 0 Z " fill="#F5FBEE" transform="translate(699,509)"/>
<path d="M0 0 C5.28 0 10.56 0 16 0 C16.77227206 2.6037473 17.5428331 5.20798248 18.3125 7.8125 C18.63250977 8.89047852 18.63250977 8.89047852 18.95898438 9.99023438 C20.44647098 15.0299278 21.85278062 20.08790902 23.22583008 25.15991211 C24.00399809 28.01466723 24.8022091 30.86314964 25.60546875 33.7109375 C26.1328125 35.59895833 26.66015625 37.48697917 27.1875 39.375 C27.46013672 40.33277344 27.73277344 41.29054688 28.01367188 42.27734375 C28.27083984 43.20417969 28.52800781 44.13101563 28.79296875 45.0859375 C29.0252417 45.9114209 29.25751465 46.7369043 29.49682617 47.58740234 C30 50 30 50 30 55 C25.71 55 21.42 55 17 55 C16.01 49.555 16.01 49.555 15 44 C10.38 44 5.76 44 1 44 C0.855625 45.44375 0.71125 46.8875 0.5625 48.375 C0.125 52.75 0.125 52.75 -1 55 C-4.96 55 -8.92 55 -13 55 C-12.41736112 48.66063561 -11.35374082 42.71723133 -9.75 36.5625 C-9.53110107 35.70430664 -9.31220215 34.84611328 -9.08666992 33.96191406 C-7.37706005 27.31377008 -5.57080651 20.69270501 -3.70019531 14.08813477 C-2.3759442 9.4119419 -1.15885643 4.72009104 0 0 Z " fill="#F4FBED" transform="translate(664,509)"/>
<path d="M0 0 C3.83706319 3.93544942 7.1674194 7.90722629 7.75 13.5 C7.646875 14.16 7.54375 14.82 7.4375 15.5 C4.91274538 16.76237731 3.12549534 16.59856404 0.3125 16.5625 C-0.59757813 16.55347656 -1.50765625 16.54445313 -2.4453125 16.53515625 C-3.49332031 16.51775391 -3.49332031 16.51775391 -4.5625 16.5 C-5.2225 13.86 -5.8825 11.22 -6.5625 8.5 C-11.38127161 8.70280085 -11.38127161 8.70280085 -15.26806641 11.19165039 C-16.86605525 14.04132684 -16.94985429 15.92592027 -16.9609375 19.18359375 C-16.96480469 20.27607422 -16.96867188 21.36855469 -16.97265625 22.49414062 C-16.96105469 23.63044922 -16.94945312 24.76675781 -16.9375 25.9375 C-16.94910156 27.06994141 -16.96070313 28.20238281 -16.97265625 29.36914062 C-16.96878906 30.46291016 -16.96492187 31.55667969 -16.9609375 32.68359375 C-16.95755371 33.67931396 -16.95416992 34.67503418 -16.95068359 35.70092773 C-16.49366305 38.99636205 -15.61768258 40.89136294 -13.5625 43.5 C-9.97821853 44.00031206 -9.97821853 44.00031206 -6.5625 43.5 C-4.97977399 41.91727399 -5.21514253 40.11965997 -5 37.9375 C-4.91621094 37.11121094 -4.83242188 36.28492188 -4.74609375 35.43359375 C-4.65521484 34.47646484 -4.65521484 34.47646484 -4.5625 33.5 C-6.8725 33.5 -9.1825 33.5 -11.5625 33.5 C-11.5625 30.53 -11.5625 27.56 -11.5625 24.5 C-5.2925 24.5 0.9775 24.5 7.4375 24.5 C7.54587983 27.70924709 7.62499268 30.9148027 7.6875 34.125 C7.72101562 35.02863281 7.75453125 35.93226563 7.7890625 36.86328125 C7.87300483 42.61333079 7.3724822 45.98572059 3.4375 50.5 C-3.17490733 55.49304227 -8.47608005 56.11577623 -16.5625 55.5 C-21.84899278 53.80433251 -25.75998713 50.26933665 -28.5625 45.5 C-30.72700005 38.8883019 -30.96110995 32.54742951 -31 25.625 C-31.03287109 24.60019531 -31.06574219 23.57539062 -31.09960938 22.51953125 C-31.15093312 15.17556922 -29.74334448 9.60957661 -25.5625 3.5 C-18.87097579 -3.23983176 -8.49346221 -3.57619462 0 0 Z " fill="#F2FAED" transform="translate(640.5625,509.5)"/>
<path d="M0 0 C4.62 0 9.24 0 14 0 C15.00386115 4.42774471 16.00300233 8.85605042 16.99072266 13.28735352 C17.32756994 14.79218565 17.66704658 16.29643187 18.00927734 17.80004883 C18.50282503 19.9706514 18.98664637 22.14323694 19.46875 24.31640625 C19.62186646 24.98023819 19.77498291 25.64407013 19.93273926 26.32801819 C20.87217521 30.61903841 21.13898822 34.61442538 21 39 C21.66 39 22.32 39 23 39 C22.93941406 38.11441406 22.87882813 37.22882812 22.81640625 36.31640625 C22.81790002 30.3786529 24.53886961 24.66964423 25.9375 18.9375 C26.48986276 16.63449332 27.0406957 14.33111908 27.58984375 12.02734375 C27.83597412 11.01406006 28.08210449 10.00077637 28.33569336 8.95678711 C29.00136054 5.99394432 29.50076951 2.99538297 30 0 C34.62 0 39.24 0 44 0 C43.36821719 3.79069683 42.75151354 7.18791111 41.73046875 10.8359375 C41.48337158 11.72756592 41.23627441 12.61919434 40.98168945 13.5378418 C40.71960693 14.474104 40.45752441 15.41036621 40.1875 16.375 C38.31927639 23.12822855 36.48636321 29.88330043 34.8125 36.6875 C33.30290079 42.82064155 31.6904723 48.91429971 30 55 C24.72 55 19.44 55 14 55 C9.05192973 36.72730394 4.30735351 18.43677828 0 0 Z " fill="#F5FBEE" transform="translate(526,509)"/>
<path d="M0 0 C10.56 0 21.12 0 32 0 C32 3.3 32 6.6 32 10 C25.4 10 18.8 10 12 10 C12 13.96 12 17.92 12 22 C17.61 22 23.22 22 29 22 C29 25.3 29 28.6 29 32 C23.72 32 18.44 32 13 32 C13 35.96 13 39.92 13 44 C19.27 44 25.54 44 32 44 C32 47.63 32 51.26 32 55 C21.44 55 10.88 55 0 55 C0 36.85 0 18.7 0 0 Z " fill="#F9FDEF" transform="translate(574,509)"/>
<path d="M0 0 C0.66 0 1.32 0 2 0 C2.51046875 1.17755859 2.51046875 1.17755859 3.03125 2.37890625 C8.05320028 13.26425062 13.78827324 18.82155554 25 23 C25 23.66 25 24.32 25 25 C24.21496094 25.3403125 23.42992187 25.680625 22.62109375 26.03125 C11.73574938 31.05320028 6.17844446 36.78827324 2 48 C1.34 48 0.68 48 0 48 C-0.3403125 47.21496094 -0.680625 46.42992187 -1.03125 45.62109375 C-6.05320028 34.73574938 -11.78827324 29.17844446 -23 25 C-23 24.34 -23 23.68 -23 23 C-22.21496094 22.6596875 -21.42992187 22.319375 -20.62109375 21.96875 C-9.73574938 16.94679972 -4.17844446 11.21172676 0 0 Z " fill="#EBECEE" transform="translate(1207,768)"/>
<path d="M0 0 C1.52352768 2.93823196 2.78534783 5.92254092 4 9 C30.80725037 9.02333615 57.61449922 9.04098271 84.4217577 9.05181217 C96.86817069 9.0569736 109.31457738 9.0640134 121.76098633 9.07543945 C132.60630618 9.08539095 143.45162146 9.09185454 154.29694575 9.09408849 C160.04211949 9.0953948 165.78728016 9.09847567 171.53244972 9.10573006 C176.93563123 9.11249759 182.33879425 9.11461545 187.7419796 9.11310768 C189.72900366 9.11338368 191.7160283 9.11538446 193.70304871 9.11920547 C196.40828208 9.12415413 199.11344493 9.1229939 201.81867981 9.12025452 C202.61147663 9.12316736 203.40427346 9.1260802 204.22109443 9.12908131 C207.41595883 9.12028979 209.94604802 9.01798399 213 8 C214.84750146 8.23523836 216.69455809 8.47474457 218.5386219 8.73556519 C223.6026556 9.27961277 228.70358569 9.11989062 233.79077148 9.09765625 C235.73168281 9.09541473 237.67259414 9.09317347 239.61350548 9.09094238 C241.68615275 9.08758557 243.75877955 9.08173633 245.83141899 9.07516479 C250.16536594 9.06156595 254.49930274 9.0557321 258.83326721 9.05102539 C268.8157398 9.03901568 278.79818537 9.01696409 288.78063965 8.99479675 C297.93217329 8.97457586 307.08369777 8.95651618 316.2352491 8.94658184 C320.53631634 8.94162369 324.8373357 8.93180051 329.13838375 8.91815186 C331.17323095 8.91246332 333.20806631 8.90910481 335.24291992 8.9067688 C337.71383901 8.90391913 340.18475786 8.89750622 342.65565491 8.88668823 C348.85845157 8.88629182 354.85042087 9.1774505 361 10 C361 10.33 361 10.66 361 11 C242.53 11 124.06 11 2 11 C0.22002971 6.55007426 -0.21222719 4.56288469 0 0 Z " fill="#EEFEF5" transform="translate(450,474)"/>
<path d="M0 0 C0.66 0.66 1.32 1.32 2 2 C0.62328125 2.02126953 0.62328125 2.02126953 -0.78125 2.04296875 C-11.38747252 2.43149478 -11.38747252 2.43149478 -20 8 C-24.29983815 14.64800795 -24.55943668 21.22513465 -24.375 28.9375 C-24.37306641 30.46793945 -24.37306641 30.46793945 -24.37109375 32.02929688 C-24.29608408 38.55930509 -23.52733363 44.65251392 -22 51 C-23.485 51.495 -23.485 51.495 -25 52 C-25 49.69 -25 47.38 -25 45 C-25.66 45 -26.32 45 -27 45 C-27.33 49.29 -27.66 53.58 -28 58 C-28.33 58 -28.66 58 -29 58 C-29 54.37 -29 50.74 -29 47 C-35.27 47 -41.54 47 -48 47 C-48 43.04 -48 39.08 -48 35 C-42.39 35 -36.78 35 -31 35 C-31 31.7 -31 28.4 -31 25 C-30.01 24.67 -29.02 24.34 -28 24 C-27.00024426 21.04386389 -27.00024426 21.04386389 -26.375 17.5625 C-25.0593692 11.1187384 -25.0593692 11.1187384 -24 9 C-23.34 9 -22.68 9 -22 9 C-21.731875 8.360625 -21.46375 7.72125 -21.1875 7.0625 C-20 5 -20 5 -17 4 C-17 3.34 -17 2.68 -17 2 C-11.51994831 -0.36975208 -5.88727255 -0.65414139 0 0 Z " fill="#1F6F64" transform="translate(635,506)"/>
<path d="M0 0 C-2.23025756 2.23025756 -3.04976262 2.40373055 -6.05078125 3.0078125 C-7.29988281 3.27392334 -7.29988281 3.27392334 -8.57421875 3.54541016 C-9.47785156 3.7366748 -10.38148438 3.92793945 -11.3125 4.125 C-51.42154008 13.23630838 -93.01806361 37.92040619 -117 72 C-117.66 71.67 -118.32 71.34 -119 71 C-118.34 69.35 -117.68 67.7 -117 66 C-116.34 66 -115.68 66 -115 66 C-114.67 64.68 -114.34 63.36 -114 62 C-113.34 62 -112.68 62 -112 62 C-112 61.01 -112 60.02 -112 59 C-111.401875 58.731875 -110.80375 58.46375 -110.1875 58.1875 C-107.95672092 57.1106021 -107.95672092 57.1106021 -106.375 55.375 C-105.92125 54.92125 -105.4675 54.4675 -105 54 C-104.34 54 -103.68 54 -103 54 C-103 53.01 -103 52.02 -103 51 C-101.35 50.34 -99.7 49.68 -98 49 C-98 48.34 -98 47.68 -98 47 C-97.34 47 -96.68 47 -96 47 C-95.67 46.01 -95.34 45.02 -95 44 C-94.34 44 -93.68 44 -93 44 C-92.67 43.01 -92.34 42.02 -92 41 C-91.01 41 -90.02 41 -89 41 C-89 40.01 -89 39.02 -89 38 C-88.195625 37.71125 -87.39125 37.4225 -86.5625 37.125 C-83.8673532 36.26737432 -83.8673532 36.26737432 -83 34 C-82.34 34 -81.68 34 -81 34 C-81 33.34 -81 32.68 -81 32 C-78.91796875 30.4921875 -78.91796875 30.4921875 -76.1875 28.875 C-75.29417969 28.33617187 -74.40085937 27.79734375 -73.48046875 27.2421875 C-71 26 -71 26 -68 26 C-68 25.34 -68 24.68 -68 24 C-65.625 22.3125 -65.625 22.3125 -63 21 C-62.34 21.33 -61.68 21.66 -61 22 C-60.505 20.515 -60.505 20.515 -60 19 C-57.56640625 17.83203125 -57.56640625 17.83203125 -54.5625 16.8125 C-53.57378906 16.46832031 -52.58507812 16.12414062 -51.56640625 15.76953125 C-49 15 -49 15 -47 15 C-46.67 14.01 -46.34 13.02 -46 12 C-44.14270668 11.49346546 -42.27993254 11.00129405 -40.3984375 10.59375 C-34.76492735 9.19913511 -28.91332464 7.44523284 -25 3 C-24.505 3.495 -24.505 3.495 -24 4 C-21.88276619 3.63088671 -19.77981153 3.17857645 -17.6875 2.6875 C-16.53636719 2.42324219 -15.38523437 2.15898437 -14.19921875 1.88671875 C-11.09669707 1.14467754 -11.09669707 1.14467754 -8.81640625 -0.12890625 C-5.84268294 -1.55501442 -3.13679748 -0.60323029 0 0 Z " fill="#2A6A5D" transform="translate(600,235)"/>
<path d="M0 0 C10.56 0 21.12 0 32 0 C32 3.3 32 6.6 32 10 C28.37 10 24.74 10 21 10 C21 9.67 21 9.34 21 9 C25.455 8.505 25.455 8.505 30 8 C30 6.02 30 4.04 30 2 C20.76 2 11.52 2 2 2 C1.54239568 14.56181501 1.54239568 14.56181501 3 21 C3.0805562 23.42205646 3.10762899 25.84615605 3.09765625 28.26953125 C3.0962413 28.95053391 3.09482635 29.63153656 3.09336853 30.33317566 C3.08780298 32.49299647 3.07525703 34.65271089 3.0625 36.8125 C3.05748054 38.28320162 3.05291841 39.75390488 3.04882812 41.22460938 C3.03784488 44.8164404 3.02060422 48.4082098 3 52 C6.94705649 53.09021191 10.74022976 53.18373982 14.8125 53.1875 C15.49892578 53.19974609 16.18535156 53.21199219 16.89257812 53.22460938 C21.62572725 53.2380431 25.50470432 52.48667949 30 51 C30.33 49.35 30.66 47.7 31 46 C29.71222656 46.01160156 28.42445313 46.02320313 27.09765625 46.03515625 C25.41927228 46.0445327 23.74088674 46.05363305 22.0625 46.0625 C20.78729492 46.07506836 20.78729492 46.07506836 19.48632812 46.08789062 C18.67744141 46.09111328 17.86855469 46.09433594 17.03515625 46.09765625 C16.2862915 46.10289307 15.53742676 46.10812988 14.76586914 46.11352539 C13 46 13 46 12 45 C11.85573386 40.33154772 11.95791585 35.67134047 12 31 C17.28 31 22.56 31 28 31 C28 28.36 28 25.72 28 23 C23.05 23 18.1 23 13 23 C13 22.67 13 22.34 13 22 C18.28 22 23.56 22 29 22 C29 25.3 29 28.6 29 32 C23.72 32 18.44 32 13 32 C13 35.96 13 39.92 13 44 C19.27 44 25.54 44 32 44 C32 47.63 32 51.26 32 55 C21.44 55 10.88 55 0 55 C0 36.85 0 18.7 0 0 Z " fill="#D5F0E6" transform="translate(574,509)"/>
<path d="M0 0 C0.33 0 0.66 0 1 0 C6.62451262 29.05998187 5.23122526 58.78077424 -4 87 C-4.33 87 -4.66 87 -5 87 C-4.88513575 84.62412376 -4.75841844 82.24984829 -4.625 79.875 C-4.5940625 79.20984375 -4.563125 78.5446875 -4.53125 77.859375 C-4.27846849 73.56208925 -3.37611974 70.04987331 -2 66 C-1.52676762 63.26230919 -1.228405 60.51233269 -0.9375 57.75 C-0.12414188 50.24828375 -0.12414188 50.24828375 1 48 C1.09704107 46.12307921 1.1307628 44.24270787 1.1328125 42.36328125 C1.13410156 41.22826172 1.13539063 40.09324219 1.13671875 38.92382812 C1.13285156 37.73208984 1.12898437 36.54035156 1.125 35.3125 C1.13080078 33.55389648 1.13080078 33.55389648 1.13671875 31.75976562 C1.13027455 26.05342778 0.88520022 20.64576516 0 15 C-0.06515057 12.35488687 -0.08591426 9.70831175 -0.0625 7.0625 C-0.05798828 6.37865234 -0.05347656 5.69480469 -0.04882812 4.99023438 C-0.0371956 3.32678396 -0.01926694 1.6633795 0 0 Z " fill="#C7E5DA" transform="translate(819,391)"/>
<path d="M0 0 C0.66 0 1.32 0 2 0 C1.60046595 7.61931252 -0.07673697 14.307664 -2.5625 21.5 C-2.92037598 22.54808838 -3.27825195 23.59617676 -3.64697266 24.67602539 C-9.1503702 40.48834962 -16.20866744 54.76812967 -25 69 C-25.956768 65.97184946 -26.14894763 65.31963605 -24.7421875 62.30078125 C-24.12601563 61.31464844 -23.50984375 60.32851563 -22.875 59.3125 C-22.22660156 58.24902344 -21.57820312 57.18554688 -20.91015625 56.08984375 C-20.27980469 55.07019531 -19.64945313 54.05054688 -19 53 C-15.78516599 47.57224502 -13.12906674 42.16659765 -10.89453125 36.26171875 C-10 34 -10 34 -8.921875 31.9375 C-7.5615121 29.07843222 -7.41181304 26.118013 -7 23 C-6.67 22.67 -6.34 22.34 -6 22 C-5.86798654 20.60652455 -5.76941967 19.20981548 -5.6875 17.8125 C-5.24606147 13.23167064 -3.63268715 10.78448778 -1 7 C-0.20317197 3.26774656 -0.20317197 3.26774656 0 0 Z " fill="#286961" transform="translate(836,469)"/>
<path d="M0 0 C0.99 0 1.98 0 3 0 C2.37104626 3.13730208 1.29983106 5.4002122 -0.40625 8.09765625 C-0.89851074 8.88946289 -1.39077148 9.68126953 -1.89794922 10.49707031 C-2.42662598 11.34366211 -2.95530273 12.19025391 -3.5 13.0625 C-12.43290945 27.67805062 -19.32256004 42.85825894 -25 59 C-25.33 59 -25.66 59 -26 59 C-26.16607154 54.68213996 -26.19523658 51.74481535 -24 48 C-23.63215869 46.6757713 -23.28797019 45.34386088 -23 44 C-22.34 44 -21.68 44 -21 44 C-20.938125 42.88625 -20.87625 41.7725 -20.8125 40.625 C-20.14243069 35.14791169 -17.60535 30.78582754 -15 26 C-14.1646875 24.2984375 -14.1646875 24.2984375 -13.3125 22.5625 C-12 20 -12 20 -10 17 C-9.34 17 -8.68 17 -8 17 C-7.731875 16.319375 -7.46375 15.63875 -7.1875 14.9375 C-5.83946694 11.60289191 -4.42463702 8.30256763 -3 5 C-2.34 5 -1.68 5 -1 5 C-1 4.34 -1 3.68 -1 3 C-0.34 3 0.32 3 1 3 C0.67 2.01 0.34 1.02 0 0 Z " fill="#296A5E" transform="translate(474,312)"/>
<path d="M0 0 C0.33 0 0.66 0 1 0 C1.33 1.98 1.66 3.96 2 6 C4.31 6.33 6.62 6.66 9 7 C9.05399736 8.45792884 9.09279177 9.91642712 9.125 11.375 C9.14820313 12.18710937 9.17140625 12.99921875 9.1953125 13.8359375 C9 16 9 16 7 18 C0.92105263 18.55263158 0.92105263 18.55263158 -1.875 16.875 C-3.43619343 14.27301095 -3.74948866 12.00613607 -4 9 C-3.67 8.01 -3.34 7.02 -3 6 C-2.01 6 -1.02 6 0 6 C0 4.02 0 2.04 0 0 Z " fill="#226E62" transform="translate(627,536)"/>
<path d="M0 0 C0.33 0 0.66 0 1 0 C1 4.62 1 9.24 1 14 C1.66 14 2.32 14 3 14 C3.02894547 17.45831586 3.04678 20.91660072 3.0625 24.375 C3.07087891 25.35984375 3.07925781 26.3446875 3.08789062 27.359375 C3.09272461 28.77089844 3.09272461 28.77089844 3.09765625 30.2109375 C3.10551147 31.51490479 3.10551147 31.51490479 3.11352539 32.84521484 C3 35 3 35 2 37 C1.94011465 38.35287257 1.9393786 39.7087116 1.97265625 41.0625 C1.98490234 41.85914063 1.99714844 42.65578125 2.00976562 43.4765625 C2.04492367 45.15894029 2.08398681 46.84124101 2.12695312 48.5234375 C2.13791016 49.32007813 2.14886719 50.11671875 2.16015625 50.9375 C2.17699463 51.66839844 2.19383301 52.39929688 2.21118164 53.15234375 C2 55 2 55 0 57 C-3.2578125 57.1953125 -3.2578125 57.1953125 -7.125 57.125 C-9.04699219 57.09792969 -9.04699219 57.09792969 -11.0078125 57.0703125 C-11.99523437 57.04710937 -12.98265625 57.02390625 -14 57 C-14 56.67 -14 56.34 -14 56 C-7.565 55.505 -7.565 55.505 -1 55 C-0.67 36.85 -0.34 18.7 0 0 Z " fill="#166458" transform="translate(739,509)"/>
<path d="M0 0 C10.56 0 21.12 0 32 0 C32 3.3 32 6.6 32 10 C28.37 10 24.74 10 21 10 C21 9.67 21 9.34 21 9 C25.455 8.505 25.455 8.505 30 8 C30 6.02 30 4.04 30 2 C20.76 2 11.52 2 2 2 C1.67 19.49 1.34 36.98 1 55 C0.67 55 0.34 55 0 55 C0 36.85 0 18.7 0 0 Z " fill="#C4E2DA" transform="translate(574,509)"/>
<path d="M0 0 C4.29 0 8.58 0 13 0 C13 0.99 13 1.98 13 3 C12.37351562 2.9278125 11.74703125 2.855625 11.1015625 2.78125 C10.28429687 2.6884375 9.46703125 2.595625 8.625 2.5 C7.81289063 2.4071875 7.00078125 2.314375 6.1640625 2.21875 C4.03087175 1.96647649 4.03087175 1.96647649 2 2 C2.185625 3.11375 2.37125 4.2275 2.5625 5.375 C2.94340611 8.43811994 2.95902638 11.13094248 2.5625 14.1875 C1.71149075 21.97247216 1.63710279 29.80220019 1.4375 37.625 C1.39421085 39.21745694 1.35059363 40.809905 1.30664062 42.40234375 C1.2006458 46.26813718 1.09908675 50.13402359 1 54 C3.64 53.67 6.28 53.34 9 53 C9.33 50.03 9.66 47.06 10 44 C10.33 44 10.66 44 11 44 C11 47.63 11 51.26 11 55 C7.37 55 3.74 55 0 55 C0 36.85 0 18.7 0 0 Z " fill="#E1FDF3" transform="translate(699,509)"/>
<path d="M0 0 C0 0.33 0 0.66 0 1 C-9.24 1 -18.48 1 -28 1 C-28 1.66 -28 2.32 -28 3 C-29.14275391 3.07347656 -29.14275391 3.07347656 -30.30859375 3.1484375 C-35.84544331 3.54935794 -41.10392011 4.14834445 -46.49609375 5.44921875 C-49.79378752 6.17460849 -53.10227772 6.72410025 -56.4375 7.25 C-57.63246094 7.44078125 -58.82742188 7.6315625 -60.05859375 7.828125 C-61.51458984 7.91320312 -61.51458984 7.91320312 -63 8 C-63.66 7.34 -64.32 6.68 -65 6 C-43.04614745 1.36629752 -22.3787666 -0.29493508 0 0 Z " fill="#48817B" transform="translate(645,212)"/>
<path d="M0 0 C0.33 0 0.66 0 1 0 C1.4829607 2.01992995 1.96118112 4.04099354 2.4375 6.0625 C2.83775391 7.75052734 2.83775391 7.75052734 3.24609375 9.47265625 C4.79749586 16.73128892 5.18255348 23.66744841 5.1875 31.0625 C5.19974609 32.02994141 5.21199219 32.99738281 5.22460938 33.99414062 C5.23502754 39.0677873 5.0261965 43.25085167 3 48 C2.67 48 2.34 48 2 48 C1.97494385 47.13834229 1.9498877 46.27668457 1.92407227 45.38891602 C1.82818312 42.15151571 1.72900214 38.91423661 1.62768555 35.67700195 C1.58472646 34.28348651 1.54302945 32.8899315 1.50268555 31.49633789 C1.28334772 23.94949207 0.91438108 16.49792489 0 9 C-0.10330915 5.98750529 -0.04787308 3.01600414 0 0 Z " fill="#186154" transform="translate(821,393)"/>
<path d="M0 0 C0.66 0 1.32 0 2 0 C2.50567729 2.56149628 3.00470132 5.12399465 3.5 7.6875 C3.64308594 8.40873047 3.78617188 9.12996094 3.93359375 9.87304688 C4.65571887 13.63841359 5.1824976 17.14473813 5 21 C2.36 21 -0.28 21 -3 21 C-2.68981396 18.4372008 -2.37693109 15.8747789 -2.0625 13.3125 C-1.97548828 12.59126953 -1.88847656 11.87003906 -1.79882812 11.12695312 C-1.33686195 7.37989416 -0.80832321 3.69207089 0 0 Z " fill="#3D7266" transform="translate(671,522)"/>
<path d="M0 0 C1.82420765 0.01508012 3.64842742 0.02876261 5.47265625 0.04101562 C9.89874187 0.07374383 14.32423389 0.12534036 18.75 0.1875 C19.245 1.1775 19.245 1.1775 19.75 2.1875 C18.29315796 2.22508423 18.29315796 2.22508423 16.80688477 2.26342773 C13.11458756 2.35943213 9.42239706 2.45913585 5.73022461 2.55981445 C4.14887023 2.60245018 2.56749041 2.64415493 0.98608398 2.68481445 C-10.10956268 2.97094861 -21.17384292 3.46872717 -32.25 4.1875 C-32.25 3.8575 -32.25 3.5275 -32.25 3.1875 C-21.54463415 -0.44789797 -11.16714564 -0.16162171 0 0 Z " fill="#CAE1E0" transform="translate(631.25,209.8125)"/>
<path d="M0 0 C0.33 0 0.66 0 1 0 C1 2.31 1 4.62 1 7 C1.66 7 2.32 7 3 7 C3 7.99 3 8.98 3 10 C5.35785318 9.10664203 5.35785318 9.10664203 6.125 5.9375 C6.558125 4.4834375 6.558125 4.4834375 7 3 C7.66 3.33 8.32 3.66 9 4 C8.20736384 11.76783437 6.58110513 19.3629639 5 27 C4.34 27 3.68 27 3 27 C2.52047335 24.29172996 2.04136769 21.58338656 1.5625 18.875 C1.42779297 18.11445312 1.29308594 17.35390625 1.15429688 16.5703125 C0.8898055 15.07367838 0.62683691 13.57677426 0.36547852 12.07958984 C0.04384118 10.24945836 -0.28964804 8.42141816 -0.625 6.59375 C-0.99758789 4.01668378 -0.84413336 2.43860748 0 0 Z " fill="#276A5D" transform="translate(544,521)"/>
<path d="M0 0 C0.99 0.33 1.98 0.66 3 1 C1.00125823 2.85553923 -0.99872736 4.70969297 -3 6.5625 C-3.59506348 7.11389648 -4.19012695 7.66529297 -4.80322266 8.23339844 C-7.94462678 11.13512443 -11.11250349 13.98397035 -14.375 16.75 C-18.3241819 20.16931263 -21.63895388 24.01346771 -25 28 C-26.30977056 29.50238388 -27.62219751 31.00245681 -28.9375 32.5 C-29.52402344 33.1703125 -30.11054688 33.840625 -30.71484375 34.53125 C-31.35099609 35.25828125 -31.35099609 35.25828125 -32 36 C-32.33 34.68 -32.66 33.36 -33 32 C-32.01 32 -31.02 32 -30 32 C-29.74605469 31.26652344 -29.49210937 30.53304688 -29.23046875 29.77734375 C-26.25859058 23.06939017 -20.13883401 17.86766267 -14.53515625 13.28515625 C-12.80915318 11.88443228 -12.80915318 11.88443228 -10.6875 9.625 C-9 8 -9 8 -7 8 C-7 7.34 -7 6.68 -7 6 C-6.21625 5.7525 -5.4325 5.505 -4.625 5.25 C-1.67682892 3.84610901 -1.0975223 2.99324263 0 0 Z " fill="#C4E0DF" transform="translate(498,257)"/>
<path d="M0 0 C0.33 0 0.66 0 1 0 C1.33 3.3 1.66 6.6 2 10 C2.99 10.33 3.98 10.66 5 11 C5.33 10.34 5.66 9.68 6 9 C5.42351925 16.35012956 3.28953836 23.01424576 1 30 C0.67 30 0.34 30 0 30 C-2.08032379 20.11846199 -0.80442789 9.96915992 0 0 Z " fill="#1F6154" transform="translate(649,534)"/>
<path d="M0 0 C0.60328125 0.34804688 1.2065625 0.69609375 1.828125 1.0546875 C-30.05612551 12.49635803 -30.05612551 12.49635803 -42.171875 13.0546875 C-42.171875 12.3946875 -42.171875 11.7346875 -42.171875 11.0546875 C-38.06638823 9.00194412 -34.18679682 8.65062406 -29.6875 8.2734375 C-26.49056979 7.99544357 -23.34358572 7.53733913 -20.171875 7.0546875 C-20.171875 6.3946875 -20.171875 5.7346875 -20.171875 5.0546875 C-15.881875 4.3946875 -11.591875 3.7346875 -7.171875 3.0546875 C-7.171875 2.3946875 -7.171875 1.7346875 -7.171875 1.0546875 C-2.70649038 -1.17800481 -2.70649038 -1.17800481 0 0 Z " fill="#23685F" transform="translate(709.171875,619.9453125)"/>
<path d="M0 0 C-2.11098634 7.78071253 -4.26126064 15.5498009 -6.4375 23.3125 C-6.74244385 24.40103271 -7.0473877 25.48956543 -7.36157227 26.61108398 C-9.54986972 34.41448185 -11.7569822 42.21213076 -14 50 C-14.33 50 -14.66 50 -15 50 C-14.45672614 44.67591613 -13.5758564 39.44116889 -12.5625 34.1875 C-12.31628906 32.90230469 -12.07007813 31.61710937 -11.81640625 30.29296875 C-11 27 -11 27 -9 24 C-8.51734405 22.5333099 -8.09251214 21.04695551 -7.7109375 19.55078125 C-7.49179687 18.70322266 -7.27265625 17.85566406 -7.046875 16.98242188 C-6.82515625 16.10134766 -6.6034375 15.22027344 -6.375 14.3125 C-6.14554688 13.41982422 -5.91609375 12.52714844 -5.6796875 11.60742188 C-5.11466866 9.40620264 -4.55498507 7.20376643 -4 5 C-4.66 5 -5.32 5 -6 5 C-6 4.34 -6 3.68 -6 3 C-2.53846154 0 -2.53846154 0 0 0 Z " fill="#77A97B" transform="translate(761,306)"/>
<path d="M0 0 C0 0.66 0 1.32 0 2 C-5.27238332 3.50475428 -10.55074733 4.9821099 -15.84326172 6.41455078 C-17.48268006 6.85957288 -19.11904219 7.31587148 -20.75390625 7.77734375 C-29.27138232 9.86481105 -38.29544604 9.16086445 -47 9 C-47 8.67 -47 8.34 -47 8 C-46.03513672 7.89510254 -46.03513672 7.89510254 -45.05078125 7.78808594 C-32.07153539 6.34851908 -19.57167109 4.578091 -7 1 C-4.41873149 0.28699227 -2.72146106 0 0 0 Z " fill="#BDDBD8" transform="translate(694,627)"/>
<path d="M0 0 C0.99 0 1.98 0 3 0 C2.0657748 5.00329495 0.82324536 9.93019065 -0.375 14.875 C-2.46193636 23.54828636 -4.34379929 32.23425478 -6 41 C-6.33 41 -6.66 41 -7 41 C-7.22118994 34.50921922 -6.40194666 28.55623332 -5.1875 22.1875 C-5.00735352 21.2186084 -4.82720703 20.2497168 -4.64160156 19.25146484 C-3.404972 12.7432914 -1.99684366 6.32333825 0 0 Z " fill="#317169" transform="translate(428,365)"/>
<path d="M0 0 C0.66 0.66 1.32 1.32 2 2 C0.62328125 2.02126953 0.62328125 2.02126953 -0.78125 2.04296875 C-11.40916155 2.37385695 -11.40916155 2.37385695 -20 8 C-24.93790027 14.87141544 -25.18319098 23.84265725 -26 32 C-26.33 32 -26.66 32 -27 32 C-27.48803828 15.97607656 -27.48803828 15.97607656 -24 9 C-23.34 9 -22.68 9 -22 9 C-21.731875 8.360625 -21.46375 7.72125 -21.1875 7.0625 C-20 5 -20 5 -17 4 C-17 3.34 -17 2.68 -17 2 C-11.51994831 -0.36975208 -5.88727255 -0.65414139 0 0 Z " fill="#236256" transform="translate(635,506)"/>
<path d="M0 0 C0.33 0 0.66 0 1 0 C1.33 2.97 1.66 5.94 2 9 C3.32 8.67 4.64 8.34 6 8 C6.33 7.01 6.66 6.02 7 5 C9.36328125 3.578125 9.36328125 3.578125 12.3125 2.25 C13.27800781 1.80140625 14.24351562 1.3528125 15.23828125 0.890625 C18.08944404 -0.02884475 19.25840627 -0.06798426 22 1 C21.01 1.50789063 20.02 2.01578125 19 2.5390625 C12.42819003 5.9522121 6.09083104 9.27239725 0.3203125 13.96875 C-1 15 -1 15 -2 15 C-1.85879286 13.06215735 -1.71187127 11.12473045 -1.5625 9.1875 C-1.48128906 8.10855469 -1.40007813 7.02960938 -1.31640625 5.91796875 C-1 3 -1 3 0 0 Z M0 10 C1 12 1 12 1 12 Z " fill="#7AAB7E" transform="translate(624,446)"/>
<path d="M0 0 C0.66 0.66 1.32 1.32 2 2 C1.67433312 11.65506509 -2.33712328 21.76124071 -5 31 C-5.66 31 -6.32 31 -7 31 C-6.55082608 25.68083511 -5.72904165 21.07185549 -4 16 C-4 15.154375 -4 14.30875 -4 13.4375 C-4 10.50622653 -3.17414247 8.67443563 -2 6 C-1.32204472 4.00379834 -0.65266469 2.00461299 0 0 Z " fill="#2D6F64" transform="translate(661,512)"/>
<path d="M0 0 C1.32 0.33 2.64 0.66 4 1 C4 5.29 4 9.58 4 14 C3.34 14 2.68 14 2 14 C2 12.68 2 11.36 2 10 C1.34 9.67 0.68 9.34 0 9 C-0.19335938 9.71027344 -0.38671875 10.42054688 -0.5859375 11.15234375 C-0.84632813 12.07144531 -1.10671875 12.99054687 -1.375 13.9375 C-1.63023437 14.85402344 -1.88546875 15.77054688 -2.1484375 16.71484375 C-3 19 -3 19 -5 20 C-4.35737498 17.04093596 -3.7110539 14.08276484 -3.0625 11.125 C-2.78889648 9.86236328 -2.78889648 9.86236328 -2.50976562 8.57421875 C-2.33251953 7.76855469 -2.15527344 6.96289062 -1.97265625 6.1328125 C-1.81031494 5.38918457 -1.64797363 4.64555664 -1.48071289 3.87939453 C-1 2 -1 2 0 0 Z " fill="#296E62" transform="translate(569,513)"/>
<path d="M0 0 C0.66 0.33 1.32 0.66 2 1 C1.74605469 2.01835937 1.49210937 3.03671875 1.23046875 4.0859375 C-1.35692257 14.65868421 -3.33952264 25.24463528 -5 36 C-8.0234375 32.28125 -8.0234375 32.28125 -7.8125 29.75 C-7.4103125 28.38875 -7.4103125 28.38875 -7 27 C-5.85663583 22.71238437 -4.92313011 18.73573873 -4.5625 14.3125 C-4.20220676 10.49339163 -3.14538396 8.21807595 -1 5 C-0.29329272 2.30745009 -0.29329272 2.30745009 0 0 Z " fill="#C7E0DF" transform="translate(427,362)"/>
<path d="M0 0 C0.33 0 0.66 0 1 0 C1.56993514 8.26405949 -0.51394597 15.1977858 -3 23 C-0.03 22.67 2.94 22.34 6 22 C6.33 20.35 6.66 18.7 7 17 C7.33 17 7.66 17 8 17 C8.125 22.75 8.125 22.75 7 25 C3.04 25 -0.92 25 -5 25 C-4.38580826 16.40131562 -2.19092979 8.30515248 0 0 Z " fill="#DBF7EA" transform="translate(656,539)"/>
<path d="M0 0 C0.66 0 1.32 0 2 0 C0.62245646 4.34254201 -1.02795782 8.46197748 -2.875 12.625 C-5.64940186 18.96235379 -7.94250092 25.39179707 -10 32 C-10.66 31.67 -11.32 31.34 -12 31 C-10.30152501 23.88086013 -8.47240964 16.89148664 -6 10 C-5.690625 9.0925 -5.38125 8.185 -5.0625 7.25 C-3.73576498 4.44044349 -2.09265441 2.28884076 0 0 Z " fill="#C3DFDD" transform="translate(440,330)"/>
<path d="M0 0 C1.96714221 3.66823649 2.69595934 6.81944086 3 11 C2.01 12.485 2.01 12.485 1 14 C0.31103666 17.60713789 -0.25479912 21.20487778 -0.76757812 24.83984375 C-0.88423828 25.58363281 -1.00089844 26.32742188 -1.12109375 27.09375 C-1.2183374 27.77115234 -1.31558105 28.44855469 -1.41577148 29.14648438 C-2.13026985 31.41329238 -3.22637461 32.45860297 -5 34 C-4.25405281 26.59549258 -3.13670535 19.28104372 -1.9375 11.9375 C-1.75123047 10.78572266 -1.56496094 9.63394531 -1.37304688 8.44726562 C-0.91733259 5.63118505 -0.45960624 2.81544753 0 0 Z " fill="#BCDAD9" transform="translate(843,441)"/>
<path d="M0 0 C0.33 0 0.66 0 1 0 C0.98839844 0.68707031 0.97679687 1.37414062 0.96484375 2.08203125 C0.95582031 2.98308594 0.94679688 3.88414062 0.9375 4.8125 C0.92589844 5.70582031 0.91429687 6.59914063 0.90234375 7.51953125 C0.88990033 10.13413791 0.88990033 10.13413791 2 13 C1.67 13.99 1.34 14.98 1 16 C0.92916328 17.77605377 0.9158307 19.5546975 0.9375 21.33203125 C0.94523437 22.37810547 0.95296875 23.42417969 0.9609375 24.50195312 C0.98684091 26.69726726 1.01288109 28.89257979 1.0390625 31.08789062 C1.04679687 32.13783203 1.05453125 33.18777344 1.0625 34.26953125 C1.07410156 35.22448486 1.08570313 36.17943848 1.09765625 37.16333008 C0.99370262 40.18292317 0.55709906 43.03328299 0 46 C-0.33 46 -0.66 46 -1 46 C-1.02475554 40.25252597 -1.04288638 34.50508311 -1.05493164 28.75756836 C-1.05995422 26.80313577 -1.06677349 24.84870694 -1.07543945 22.89428711 C-1.08759589 20.08185907 -1.09324913 17.26948081 -1.09765625 14.45703125 C-1.10281754 13.58601273 -1.10797882 12.7149942 -1.11329651 11.81758118 C-1.11367154 7.74374461 -1.02821533 3.97410561 0 0 Z " fill="#DCF4EA" transform="translate(443,399)"/>
<path d="M0 0 C1.98 0.99 1.98 0.99 4 2 C4 2.66 4 3.32 4 4 C4.99 4.33 5.98 4.66 7 5 C7.9921875 7.2109375 7.9921875 7.2109375 9 10 C10.54199066 12.85228324 12.14667883 15.66286015 13.7578125 18.4765625 C15 21 15 21 15 24 C15.66 24 16.32 24 17 24 C16.67 25.32 16.34 26.64 16 28 C13.70333734 25.70333734 12.76648649 23.6220595 11.375 20.6875 C8.44851823 14.70414865 5.09788779 9.13767679 1.5390625 3.51953125 C0 1 0 1 0 0 Z " fill="#28695B" transform="translate(789,316)"/>
<path d="M0 0 C2.24164241 3.36246361 3.01126918 6.2318486 4.0625 10.125 C4.90425692 14.37949798 4.90425692 14.37949798 7 18 C7.66 17.01 8.32 16.02 9 15 C9 18.63 9 22.26 9 26 C7.68 25.67 6.36 25.34 5 25 C3.96540315 21.39963863 2.9497136 17.79421232 1.9375 14.1875 C1.64294922 13.16333984 1.34839844 12.13917969 1.04492188 11.08398438 C0.77099609 10.10107422 0.49707031 9.11816406 0.21484375 8.10546875 C-0.04176025 7.19949951 -0.29836426 6.29353027 -0.56274414 5.36010742 C-1 3 -1 3 0 0 Z " fill="#277266" transform="translate(688,534)"/>
<path d="M0 0 C-2.28305988 2.28305988 -3.38204189 2.50980066 -6.47265625 3.21875 C-7.82327148 3.53392578 -7.82327148 3.53392578 -9.20117188 3.85546875 C-10.14541016 4.06816406 -11.08964844 4.28085938 -12.0625 4.5 C-13.43825195 4.81904297 -13.43825195 4.81904297 -14.84179688 5.14453125 C-20.55345768 6.46416373 -26.27613014 7.7345385 -32 9 C-29.6875 6.5 -29.6875 6.5 -27 4 C-26.01 4 -25.02 4 -24 4 C-21.84655874 3.57885764 -19.70123734 3.11538018 -17.5625 2.625 C-15.86287109 2.24214844 -15.86287109 2.24214844 -14.12890625 1.8515625 C-11.08616776 1.14102005 -11.08616776 1.14102005 -8.82421875 -0.125 C-5.84528194 -1.55386905 -3.14290286 -0.6044044 0 0 Z " fill="#226155" transform="translate(600,235)"/>
<path d="M0 0 C6.27 0 12.54 0 19 0 C19 0.33 19 0.66 19 1 C11.08 1.495 11.08 1.495 3 2 C2.67 4.31 2.34 6.62 2 9 C2.84304688 8.97679687 3.68609375 8.95359375 4.5546875 8.9296875 C6.19824219 8.90261719 6.19824219 8.90261719 7.875 8.875 C9.51082031 8.84019531 9.51082031 8.84019531 11.1796875 8.8046875 C14 9 14 9 16 11 C10.72 11 5.44 11 0 11 C0 7.37 0 3.74 0 0 Z " fill="#226459" transform="translate(587,520)"/>
<path d="M0 0 C0.33 0.99 0.66 1.98 1 3 C-0.62339805 4.70884005 -2.29319053 6.37446717 -4 8 C-4.66 8 -5.32 8 -6 8 C-6.2578125 8.5775 -6.515625 9.155 -6.78125 9.75 C-8.50935148 12.94034119 -10.89608267 15.34490324 -13.34375 18 C-14.93894694 19.92627555 -15.98432918 21.72489737 -17 24 C-17.99 23.67 -18.98 23.34 -20 23 C-13.86111155 14.66678547 -7.55145728 7.11765016 0 0 Z " fill="#79AC7C" transform="translate(665,374)"/>
<path d="M0 0 C2 1 2 1 3.125 4.0625 C3.41375 5.031875 3.7025 6.00125 4 7 C4.66 7 5.32 7 6 7 C6.45375 8.2375 6.9075 9.475 7.375 10.75 C8.83190505 14.62373353 10.44335361 18.10080198 12.625 21.625 C14 24 14 24 14 26 C14.66 26 15.32 26 16 26 C16.99 27.98 17.98 29.96 19 32 C18.01 32.495 18.01 32.495 17 33 C15.0977783 29.87884808 13.2044561 26.75238347 11.3125 23.625 C10.78205078 22.75488281 10.25160156 21.88476562 9.70507812 20.98828125 C0 4.91238497 0 4.91238497 0 0 Z " fill="#2D6B63" transform="translate(439,509)"/>
<path d="M0 0 C0.99 0.33 1.98 0.66 3 1 C3 18.49 3 35.98 3 54 C2.67 54 2.34 54 2 54 C1.67 37.83 1.34 21.66 1 5 C0.34 4.67 -0.32 4.34 -1 4 C-0.67 2.68 -0.34 1.36 0 0 Z " fill="#1B594D" transform="translate(571,509)"/>
<path d="M0 0 C0.66 0 1.32 0 2 0 C1.76919007 8.91765652 -1.00318992 16.70624517 -4 25 C-4.33 25 -4.66 25 -5 25 C-5.4293359 17.62973371 -5.63871667 13.04438839 -1 7 C-0.20317197 3.26774656 -0.20317197 3.26774656 0 0 Z " fill="#1E655C" transform="translate(836,469)"/>
<path d="M0 0 C0.66 0.33 1.32 0.66 2 1 C1.85795259 2.58367747 1.71119847 4.16693318 1.5625 5.75 C1.48128906 6.63171875 1.40007813 7.5134375 1.31640625 8.421875 C1 11 1 11 0.46484375 12.85546875 C-0.23327782 16.07621448 -0.05851056 19.28590842 0 22.5625 C0.0657297 29.09961706 -0.22890415 35.50076355 -1 42 C-1.33 42 -1.66 42 -2 42 C-2.04986353 37.46510373 -2.08593637 32.9303711 -2.10986328 28.39526367 C-2.11985006 26.85617285 -2.13344419 25.31710065 -2.15087891 23.77807617 C-2.24087337 15.62298961 -2.28577933 7.91023636 0 0 Z " fill="#7FAF83" transform="translate(614,370)"/>
<path d="M0 0 C5.71085294 -0.02481154 11.42167414 -0.04291275 17.13256836 -0.05493164 C19.07332913 -0.05994485 21.01408616 -0.06675712 22.95483398 -0.07543945 C25.75245084 -0.08763732 28.55001755 -0.09325855 31.34765625 -0.09765625 C32.2083522 -0.10281754 33.06904816 -0.10797882 33.95582581 -0.11329651 C38.74729665 -0.11373768 43.27500764 0.19438183 48 1 C48 1.33 48 1.66 48 2 C46.21142578 1.98259766 46.21142578 1.98259766 44.38671875 1.96484375 C42.82031406 1.95546408 41.25390769 1.94636407 39.6875 1.9375 C38.90181641 1.92912109 38.11613281 1.92074219 37.30664062 1.91210938 C36.1706543 1.90727539 36.1706543 1.90727539 35.01171875 1.90234375 C34.31522217 1.89710693 33.61872559 1.89187012 32.90112305 1.88647461 C30.77502032 1.93104009 30.77502032 1.93104009 28 3 C26.33115675 2.67774061 24.6648121 2.34247563 23 2 C20.75041996 1.95652985 18.49964453 1.96000632 16.25 2 C10.72651547 2.04651355 5.46764305 1.75415766 0 1 C0 0.67 0 0.34 0 0 Z " fill="#DAF2E7" transform="translate(611,234)"/>
<path d="M0 0 C1.18580601 3.50552281 0.81360185 6.01900052 0.07421875 9.61328125 C-0.14556641 10.69673828 -0.36535156 11.78019531 -0.59179688 12.89648438 C-0.82962891 14.02376953 -1.06746094 15.15105469 -1.3125 16.3125 C-1.53873047 17.42818359 -1.76496094 18.54386719 -1.99804688 19.69335938 C-3.13098018 25.2013089 -4.34766472 30.62409227 -6 36 C-6.33 36 -6.66 36 -7 36 C-6.88513575 33.62412376 -6.75841844 31.24984829 -6.625 28.875 C-6.57859375 27.87726563 -6.57859375 27.87726563 -6.53125 26.859375 C-6.27875778 22.56700722 -5.46679307 19.02320386 -4 15 C-3.24884238 12.38629898 -2.56330826 9.75586712 -1.875 7.125 C-1.69324219 6.43664062 -1.51148438 5.74828125 -1.32421875 5.0390625 C-0.88108774 3.3598292 -0.44029956 1.67997794 0 0 Z " fill="#D6F0E5" transform="translate(821,442)"/>
<path d="M0 0 C0.33 0 0.66 0 1 0 C2.71979056 7.1331561 3.25870025 13.80233992 3.125 21.125 C3.11597656 22.08148438 3.10695313 23.03796875 3.09765625 24.0234375 C3.07439827 26.34923525 3.04172213 28.67447294 3 31 C1.51831055 29.90112305 1.51831055 29.90112305 0 28 C-0.34057617 25.08911133 -0.34057617 25.08911133 -0.29296875 21.58203125 C-0.28330078 20.32841797 -0.27363281 19.07480469 -0.26367188 17.78320312 C-0.23853516 16.47287109 -0.21339844 15.16253906 -0.1875 13.8125 C-0.17244967 12.47722837 -0.15876187 11.14194063 -0.14648438 9.80664062 C-0.11107694 6.53735424 -0.0616889 3.26887907 0 0 Z " fill="#2F6D66" transform="translate(841,395)"/>
<path d="M0 0 C2.32891212 3.49336818 2.23551143 4.86007865 2.1953125 8.98046875 C2.18886719 10.14384766 2.18242187 11.30722656 2.17578125 12.50585938 C2.15902344 13.72080078 2.14226562 14.93574219 2.125 16.1875 C2.11597656 17.41404297 2.10695313 18.64058594 2.09765625 19.90429688 C2.07406017 22.93639295 2.04113841 25.96809938 2 29 C1.34 29.33 0.68 29.66 0 30 C-0.16755938 26.04924621 -0.3281242 22.09827679 -0.48217773 18.14697266 C-0.56187238 16.14079929 -0.64712518 14.13484924 -0.73242188 12.12890625 C-0.78076172 10.87207031 -0.82910156 9.61523438 -0.87890625 8.3203125 C-0.9260376 7.15773926 -0.97316895 5.99516602 -1.02172852 4.79736328 C-1 2 -1 2 0 0 Z " fill="#186256" transform="translate(439,412)"/>
<path d="M0 0 C5.28 0 10.56 0 16 0 C16 0.33 16 0.66 16 1 C9.565 1.495 9.565 1.495 3 2 C2.67 4.31 2.34 6.62 2 9 C7.61 9.33 13.22 9.66 19 10 C19 10.33 19 10.66 19 11 C12.73 11 6.46 11 0 11 C0 7.37 0 3.74 0 0 Z " fill="#18574C" transform="translate(587,542)"/>
<path d="M0 0 C0.33 0.99 0.66 1.98 1 3 C-0.75 5.375 -0.75 5.375 -3 8 C-3.6496875 9.175625 -3.6496875 9.175625 -4.3125 10.375 C-6.70328475 14.0939985 -9.80753874 16.96497518 -13 20 C-13.99 19.67 -14.98 19.34 -16 19 C-15.26394531 18.21496094 -14.52789063 17.42992187 -13.76953125 16.62109375 C-8.81261668 11.29734548 -4.01482974 6.09146581 0 0 Z " fill="#BCD9D7" transform="translate(802,549)"/>
<path d="M0 0 C6.66288729 -0.30570895 12.42971044 0.80822416 18.875 2.4375 C19.82375 2.66759766 20.7725 2.89769531 21.75 3.13476562 C28.67075893 4.83537946 28.67075893 4.83537946 31 6 C31 6.66 31 7.32 31 8 C29.92363281 7.73445312 28.84726562 7.46890625 27.73828125 7.1953125 C19.62181223 5.22401017 11.644295 3.49893677 3.34375 2.4921875 C2.5703125 2.32976562 1.796875 2.16734375 1 2 C0.67 1.34 0.34 0.68 0 0 Z " fill="#BCDAD8" transform="translate(661,213)"/>
<path d="M0 0 C5.93025194 0.49177699 10.42610448 3.0357479 15.5625 5.8125 C16.39974609 6.25142578 17.23699219 6.69035156 18.09960938 7.14257812 C22.40731778 9.43797619 26.30914391 11.76200968 30 15 C24.25 14.25 24.25 14.25 22 12 C20.7625 11.7834375 20.7625 11.7834375 19.5 11.5625 C17 11 17 11 15 8 C12.46933077 6.67210951 9.98243404 5.46467796 7.375 4.3125 C6.66859375 3.99216797 5.9621875 3.67183594 5.234375 3.34179688 C3.49305023 2.55349444 1.74696589 1.77572087 0 1 C0 0.67 0 0.34 0 0 Z " fill="#276860" transform="translate(716,231)"/>
<path d="M0 0 C2 2 2 2 2.13525391 5.34814453 C2.09291058 6.77671903 2.03924547 8.20498586 1.9765625 9.6328125 C1.95153656 10.38464813 1.92651062 11.13648376 1.90072632 11.91110229 C1.81844911 14.31618839 1.72189139 16.72046257 1.625 19.125 C1.5667682 20.75387291 1.50946475 22.3827793 1.453125 24.01171875 C1.31285922 28.00828082 1.15978257 32.00417254 1 36 C0.67 36 0.34 36 0 36 C-1.77621145 5.96299559 -1.77621145 5.96299559 0 0 Z " fill="#4B877B" transform="translate(441,398)"/>
<path d="M0 0 C2.06356895 0.2840051 4.1258285 0.57753352 6.1875 0.875 C7.33605469 1.03742187 8.48460937 1.19984375 9.66796875 1.3671875 C12.68724625 1.94060245 15.20575848 2.74759043 18 4 C17.67 4.66 17.34 5.32 17 6 C10.91766294 5.32418477 4.98685848 4.26361972 -1 3 C-0.67 2.01 -0.34 1.02 0 0 Z " fill="#2D736B" transform="translate(581,627)"/>
<path d="M0 0 C2.02910711 0.25327449 4.04962145 0.57730068 6.0625 0.9375 C7.16722656 1.13214844 8.27195312 1.32679688 9.41015625 1.52734375 C10.69212891 1.76130859 10.69212891 1.76130859 12 2 C12 2.66 12 3.32 12 4 C14.31 4.33 16.62 4.66 19 5 C18.67 5.66 18.34 6.32 18 7 C17.42894531 6.87882813 16.85789062 6.75765625 16.26953125 6.6328125 C9.21409256 5.17461372 2.12662714 4.05000462 -5 3 C-4.360625 2.690625 -3.72125 2.38125 -3.0625 2.0625 C-1.06389179 1.1654837 -1.06389179 1.1654837 0 0 Z " fill="#307366" transform="translate(664,233)"/>
<path d="M0 0 C0.66 0 1.32 0 2 0 C2.67031719 1.9570868 3.33614683 3.91571113 4 5.875 C4.556875 7.51082031 4.556875 7.51082031 5.125 9.1796875 C6 12 6 12 6 14 C12.93 14.495 12.93 14.495 20 15 C20 15.33 20 15.66 20 16 C14.72 16 9.44 16 4 16 C2.68 10.72 1.36 5.44 0 0 Z " fill="#D4F1E8" transform="translate(536,548)"/>
<path d="M0 0 C0.33 0 0.66 0 1 0 C1.02505615 0.9787207 1.0501123 1.95744141 1.07592773 2.96582031 C1.17023983 6.60380704 1.27040203 10.24161343 1.37231445 13.87939453 C1.41557338 15.45259374 1.45725474 17.02583717 1.49731445 18.59912109 C1.55523662 20.86309115 1.61886714 23.12684051 1.68359375 25.390625 C1.70030624 26.09181458 1.71701874 26.79300415 1.73423767 27.51544189 C1.83433397 30.82961254 2.16157694 33.80178893 3 37 C2.72949547 39.00946222 2.40632091 41.01354224 2 43 C1.67 43 1.34 43 1 43 C0.21358035 37.47057185 -0.13742082 32.14273002 -0.09765625 26.5625 C-0.0962413 25.79695801 -0.09482635 25.03141602 -0.09336853 24.24267578 C-0.08782853 21.82840858 -0.07528779 19.41423856 -0.0625 17 C-0.05747723 15.35026177 -0.05291569 13.70052206 -0.04882812 12.05078125 C-0.03787886 8.03381745 -0.02065666 4.01692513 0 0 Z " fill="#4A827C" transform="translate(420,408)"/>
<path d="M0 0 C1.17825358 0.90172468 2.34231577 1.82201502 3.5 2.75 C4.1496875 3.26046875 4.799375 3.7709375 5.46875 4.296875 C7 6 7 6 7 10 C7.99 10.33 8.98 10.66 10 11 C11.1875 13.5625 11.1875 13.5625 12 16 C12.99 16 13.98 16 15 16 C15.33 17.98 15.66 19.96 16 22 C12.23137487 18.37371503 8.93557811 14.58161284 5.75 10.4375 C5.30398438 9.87353516 4.85796875 9.30957031 4.3984375 8.72851562 C2.22761555 5.91631446 0.45556033 3.58315724 0 0 Z " fill="#2A6D64" transform="translate(458,542)"/>
<path d="M0 0 C0.66 0 1.32 0 2 0 C2.9765625 1.79036458 3.953125 3.58072917 4.9296875 5.37109375 C5.91410024 7.16618315 5.91410024 7.16618315 8 8 C8.33 7.01 8.66 6.02 9 5 C9 9.62 9 14.24 9 19 C6.84416321 15.76624482 5.11056381 12.40510006 3.375 8.9375 C2.88773438 7.98133789 2.88773438 7.98133789 2.390625 7.00585938 C0 2.23967634 0 2.23967634 0 0 Z " fill="#85AE82" transform="translate(601,408)"/>
<path d="M0 0 C0 0.99 0 1.98 0 3 C-1.88453337 4.66230066 -3.71382052 6.11113021 -5.75 7.5625 C-6.55824219 8.16094727 -6.55824219 8.16094727 -7.3828125 8.77148438 C-10.1474198 10.7909963 -12.87347627 12.59609978 -16 14 C-16 12.68 -16 11.36 -16 10 C-14.68 10 -13.36 10 -12 10 C-12 9.34 -12 8.68 -12 8 C-10.7934375 7.2884375 -10.7934375 7.2884375 -9.5625 6.5625 C-6.7081924 5.20016328 -6.7081924 5.20016328 -6 2 C-4.68 2.33 -3.36 2.66 -2 3 C-2 2.34 -2 1.68 -2 1 C-1.34 0.67 -0.68 0.34 0 0 Z " fill="#256860" transform="translate(761,589)"/>
<path d="M0 0 C0.66 0 1.32 0 2 0 C2.66 4.62 3.32 9.24 4 14 C3.34 14 2.68 14 2 14 C2 12.68 2 11.36 2 10 C1.34 10 0.68 10 0 10 C-0.33 11.32 -0.66 12.64 -1 14 C-2.13732426 10.59598052 -1.83989957 8.22543336 -1.0625 4.75 C-0.86785156 3.85796875 -0.67320312 2.9659375 -0.47265625 2.046875 C-0.31667969 1.37140625 -0.16070313 0.6959375 0 0 Z " fill="#467265" transform="translate(671,522)"/>
<path d="M0 0 C1.32 0.33 2.64 0.66 4 1 C3.07058594 1.59167969 2.14117188 2.18335938 1.18359375 2.79296875 C-4.98014815 6.72874183 -11.11317823 10.65496489 -17 15 C-17 14.01 -17 13.02 -17 12 C-16.34 12 -15.68 12 -15 12 C-15 11.34 -15 10.68 -15 10 C-13.35 9.34 -11.7 8.68 -10 8 C-10 7.34 -10 6.68 -10 6 C-3.375 2 -3.375 2 0 2 C0 1.34 0 0.68 0 0 Z " fill="#7AAC7D" transform="translate(662,355)"/>
<path d="M0 0 C0.33 0.99 0.66 1.98 1 3 C-2.49359465 6.59634744 -6.11098131 9.83451967 -10 13 C-10.99 12.34 -11.98 11.68 -13 11 C-12.22914063 10.37351562 -11.45828125 9.74703125 -10.6640625 9.1015625 C-9.15972656 7.87566406 -9.15972656 7.87566406 -7.625 6.625 C-6.62726563 5.81289063 -5.62953125 5.00078125 -4.6015625 4.1640625 C-2.03639494 2.09734084 -2.03639494 2.09734084 0 0 Z " fill="#246B62" transform="translate(499,259)"/>
<path d="M0 0 C-2.40802951 1.60535301 -4.50685356 2.75152088 -7.125 3.91015625 C-7.91390625 4.26013672 -8.7028125 4.61011719 -9.515625 4.97070312 C-10.33546875 5.33099609 -11.1553125 5.69128906 -12 6.0625 C-12.81984375 6.42666016 -13.6396875 6.79082031 -14.484375 7.16601562 C-17.63937242 8.56050386 -20.72513314 9.90837771 -24 11 C-24 10.34 -24 9.68 -24 9 C-18.25 6 -18.25 6 -16 6 C-15.67 5.01 -15.34 4.02 -15 3 C-13.0122854 2.44604675 -11.0191233 1.90202062 -9 1.4765625 C-6.88336062 1.05610445 -6.88336062 1.05610445 -4.6875 -0.1875 C-3 -1 -3 -1 0 0 Z " fill="#316F63" transform="translate(569,244)"/>
<path d="M0 0 C0.8971875 0.309375 0.8971875 0.309375 1.8125 0.625 C-9.70914009 9.07146925 -9.70914009 9.07146925 -15.1875 12.625 C-15.8475 12.295 -16.5075 11.965 -17.1875 11.625 C-15.25151165 9.99816948 -13.31379031 8.37348531 -11.375 6.75 C-10.82779297 6.28980469 -10.28058594 5.82960938 -9.71679688 5.35546875 C-2.74987919 -0.47140786 -2.74987919 -0.47140786 0 0 Z " fill="#E2F7EE" transform="translate(526.1875,267.375)"/>
<path d="M0 0 C4.62 0 9.24 0 14 0 C13.67 1.32 13.34 2.64 13 4 C12.67 3.01 12.34 2.02 12 1 C9.36 1.66 6.72 2.32 4 3 C4 6.63 4 10.26 4 14 C1.63235056 9.26470113 0.95698667 5.1950705 0 0 Z " fill="#D5F2E9" transform="translate(526,509)"/>
<path d="M0 0 C0.99 0.33 1.98 0.66 3 1 C1.71275182 3.46073955 0.42044687 5.91858171 -0.875 8.375 C-1.23980469 9.07367188 -1.60460937 9.77234375 -1.98046875 10.4921875 C-4.7734375 15.7734375 -4.7734375 15.7734375 -7 18 C-7.50710303 13.19157661 -5.83930651 10.32305971 -3.5 6.1875 C-3.16613281 5.59001953 -2.83226562 4.99253906 -2.48828125 4.37695312 C-1.66827367 2.91265388 -0.83540688 1.45556863 0 0 Z " fill="#C3DFDD" transform="translate(449,312)"/>
<path d="M0 0 C0.66 0.66 1.32 1.32 2 2 C1.04738281 2.54269531 0.09476563 3.08539063 -0.88671875 3.64453125 C-2.15366244 4.36715839 -3.42058859 5.08981627 -4.6875 5.8125 C-5.31333984 6.16892578 -5.93917969 6.52535156 -6.58398438 6.89257812 C-10.08115525 8.8883458 -13.55626286 10.91268705 -17 13 C-17 12.01 -17 11.02 -17 10 C-12.04837818 5.70171717 -5.8906283 2.78466065 0 0 Z " fill="#BFDCDB" transform="translate(532,235)"/>
<path d="M0 0 C0 0.33 0 0.66 0 1 C-3.45565722 1.55977553 -6.91470383 2.09472085 -10.375 2.625 C-11.85226562 2.86476562 -11.85226562 2.86476562 -13.359375 3.109375 C-14.77089844 3.32207031 -14.77089844 3.32207031 -16.2109375 3.5390625 C-17.08024902 3.67521973 -17.94956055 3.81137695 -18.84521484 3.95166016 C-19.55629395 3.9676123 -20.26737305 3.98356445 -21 4 C-21.66 3.34 -22.32 2.68 -23 2 C-15.0074348 -0.2173731 -8.21920674 -1.53994167 0 0 Z " fill="#387870" transform="translate(603,216)"/>
<path d="M0 0 C0.33 0 0.66 0 1 0 C1.42955722 12.29010926 1.42955722 12.29010926 -2.625 16.8125 C-3.07875 17.204375 -3.5325 17.59625 -4 18 C-3.41632611 11.69632197 -1.95928381 6.01339937 0 0 Z " fill="#2F6F63" transform="translate(561,543)"/>
<path d="M0 0 C1.32 0.33 2.64 0.66 4 1 C-2.15034169 9.44646925 -2.15034169 9.44646925 -6 13 C-6 9 -6 9 -5 7 C-4.34 7 -3.68 7 -3 7 C-2.67 5.68 -2.34 4.36 -2 3 C-1.34 3 -0.68 3 0 3 C0 2.01 0 1.02 0 0 Z " fill="#2C7063" transform="translate(488,294)"/>
<path d="M0 0 C6.96037592 0.5155834 14.89336335 1.89336335 20 7 C16.78249481 8.07980476 15.17877268 7.97733906 12.109375 6.56640625 C11.40039062 6.24736328 10.69140625 5.92832031 9.9609375 5.59960938 C9.23132813 5.25736328 8.50171875 4.91511719 7.75 4.5625 C7.00492188 4.22412109 6.25984375 3.88574219 5.4921875 3.53710938 C3.65672135 2.70173696 1.82770445 1.85222033 0 1 C0 0.67 0 0.34 0 0 Z " fill="#316E62" transform="translate(698,245)"/>
<path d="M0 0 C0.33 0 0.66 0 1 0 C2.31644211 6.3941474 3.46708462 12.46081526 3 19 C2.34 19.99 1.68 20.98 1 22 C0.16788724 16.96145894 -0.1078534 12.1874338 -0.0625 7.0625 C-0.05798828 6.37865234 -0.05347656 5.69480469 -0.04882812 4.99023438 C-0.0371956 3.32678396 -0.01926694 1.6633795 0 0 Z " fill="#D4EEE3" transform="translate(819,391)"/>
<path d="M0 0 C0.66 0.33 1.32 0.66 2 1 C-3.28 6.28 -8.56 11.56 -14 17 C-14.66 16.67 -15.32 16.34 -16 16 C-11.39354968 10.45786445 -6.51046931 5.63685832 -1 1 C-0.67 0.67 -0.34 0.34 0 0 Z " fill="#E0F7DB" transform="translate(649,366)"/>
<path d="M0 0 C0.99 0.33 1.98 0.66 3 1 C2.49339844 1.79664063 2.49339844 1.79664063 1.9765625 2.609375 C1.53054688 3.31578125 1.08453125 4.0221875 0.625 4.75 C0.18414062 5.44609375 -0.25671875 6.1421875 -0.7109375 6.859375 C-1.91880906 8.86517383 -2.98387737 10.89178296 -4 13 C-4.99 13 -5.98 13 -7 13 C-5.35821735 8.22390502 -2.73453298 4.20617096 0 0 Z " fill="#236860" transform="translate(453,311)"/>
<path d="M0 0 C0.33 0.99 0.66 1.98 1 3 C0.3503125 3.5878125 0.3503125 3.5878125 -0.3125 4.1875 C-2.09460644 5.97341541 -2.09460644 5.97341541 -3.375 8.3125 C-5.33158164 11.54838502 -7.45760187 14.19684309 -10 17 C-10.66 17 -11.32 17 -12 17 C-10.54434981 13.81350206 -8.74189282 11.23712991 -6.5625 8.5 C-4.33686303 5.69271708 -2.13703446 2.87552037 0 0 Z " fill="#DFF5ED" transform="translate(490,297)"/>
<path d="M0 0 C0.33 0.99 0.66 1.98 1 3 C-8.22551253 10.85193622 -8.22551253 10.85193622 -14 11 C-11.14325205 7.98306057 -8.17651069 5.59445469 -4.75 3.25 C-3.85796875 2.63640625 -2.9659375 2.0228125 -2.046875 1.390625 C-1.03367187 0.70226562 -1.03367187 0.70226562 0 0 Z " fill="#276960" transform="translate(514,248)"/>
<path d="M0 0 C0 0.66 0 1.32 0 2 C-4.155198 4.4931188 -7.11784421 5.24452298 -11.96484375 5.0390625 C-15.05200538 4.97980796 -17.95906386 5.49317731 -21 6 C-17.69504523 3.79669682 -14.87667528 2.95561629 -11.0625 1.875 C-9.83660156 1.52179688 -8.61070312 1.16859375 -7.34765625 0.8046875 C-4 0 -4 0 0 0 Z " fill="#C9E6D7" transform="translate(592,238)"/>
<path d="M0 0 C4.62 0 9.24 0 14 0 C13.67 0.99 13.34 1.98 13 3 C11.783125 2.95875 10.56625 2.9175 9.3125 2.875 C5.78105873 2.86245492 3.19996434 3.40001783 0 5 C0 3.35 0 1.7 0 0 Z " fill="#286155" transform="translate(665,553)"/>
<path d="M0 0 C1.73169596 3.1622274 2.7128976 6.26742722 3.625 9.75 C3.88539063 10.73484375 4.14578125 11.7196875 4.4140625 12.734375 C4.60742188 13.48203125 4.80078125 14.2296875 5 15 C4.34 15 3.68 15 3 15 C3 14.34 3 13.68 3 13 C2.01 12.67 1.02 12.34 0 12 C-0.19401633 10.18818595 -0.38004375 8.37551468 -0.5625 6.5625 C-0.66691406 5.55316406 -0.77132813 4.54382813 -0.87890625 3.50390625 C-0.91886719 2.67761719 -0.95882813 1.85132813 -1 1 C-0.67 0.67 -0.34 0.34 0 0 Z " fill="#2F7265" transform="translate(446,467)"/>
<path d="M0 0 C0.33 0 0.66 0 1 0 C1.48009262 2.06228466 1.95903544 4.12483701 2.4375 6.1875 C2.83775391 7.91033203 2.83775391 7.91033203 3.24609375 9.66796875 C3.49488281 10.76753906 3.74367188 11.86710937 4 13 C4.20625 13.8971875 4.4125 14.794375 4.625 15.71875 C5.10765478 18.6548999 4.60538321 21.10761354 4 24 C3.67 24 3.34 24 3 24 C2.67 22.02 2.34 20.04 2 18 C1.67 18 1.34 18 1 18 C0.22959149 11.93303301 -0.09706112 6.11485027 0 0 Z " fill="#21675B" transform="translate(821,393)"/>
<path d="M0 0 C1.02826931 3.13667908 0.99386675 4.83184742 -0.21484375 7.890625 C-0.48876953 8.59960938 -0.76269531 9.30859375 -1.04492188 10.0390625 C-1.33947266 10.76867187 -1.63402344 11.49828125 -1.9375 12.25 C-2.37352539 13.36761719 -2.37352539 13.36761719 -2.81835938 14.5078125 C-3.53573722 16.34241814 -4.26657439 18.17175065 -5 20 C-5.33 20 -5.66 20 -6 20 C-6.16607154 15.68213996 -6.19523658 12.74481535 -4 9 C-3.63215869 7.6757713 -3.28797019 6.34386088 -3 5 C-2.34 5 -1.68 5 -1 5 C-0.67 3.35 -0.34 1.7 0 0 Z " fill="#226457" transform="translate(454,351)"/>
<path d="M0 0 C0 0.33 0 0.66 0 1 C-0.83144531 0.98839844 -1.66289063 0.97679687 -2.51953125 0.96484375 C-4.14955078 0.95130859 -4.14955078 0.95130859 -5.8125 0.9375 C-7.43091797 0.92009766 -7.43091797 0.92009766 -9.08203125 0.90234375 C-12.06512169 0.86375234 -12.06512169 0.86375234 -15 2 C-17.74607776 1.91232913 -20.45091508 1.77043265 -23.1875 1.5625 C-23.93708984 1.51029297 -24.68667969 1.45808594 -25.45898438 1.40429688 C-27.30637082 1.27486216 -29.15324371 1.13813482 -31 1 C-31 0.67 -31 0.34 -31 0 C-8.11614173 -1.70866142 -8.11614173 -1.70866142 0 0 Z " fill="#7DB081" transform="translate(554,355)"/>
<path d="M0 0 C0.66 0 1.32 0 2 0 C2.25652344 0.71027344 2.51304687 1.42054688 2.77734375 2.15234375 C3.98088346 5.04164951 5.12509048 7.48727879 7 10 C10.0518364 11.15847301 12.76483715 11.23964169 16 11 C16 9.35 16 7.7 16 6 C16.33 6 16.66 6 17 6 C17 7.98 17 9.96 17 12 C13.04 12 9.08 12 5 12 C0 2.25 0 2.25 0 0 Z " fill="#DCFAED" transform="translate(721,552)"/>
<path d="M0 0 C0.33 0 0.66 0 1 0 C1.41136629 7.87690257 0.436168 14.50298299 -2 22 C-2.66 22 -3.32 22 -4 22 C-3.79503906 20.91460938 -3.59007812 19.82921875 -3.37890625 18.7109375 C-3.10673817 17.26563115 -2.83460458 15.8203183 -2.5625 14.375 C-2.42779297 13.66214844 -2.29308594 12.94929687 -2.15429688 12.21484375 C-1.38981729 8.15004987 -0.66330363 4.08285925 0 0 Z " fill="#D0EAE0" transform="translate(556,509)"/>
<path d="M0 0 C0.66 0 1.32 0 2 0 C1.48446121 6.49850211 0.53332291 12.66226532 -1 19 C-1.33 19 -1.66 19 -2 19 C-2.05451714 16.95863605 -2.09302485 14.91684144 -2.125 12.875 C-2.14820313 11.73804688 -2.17140625 10.60109375 -2.1953125 9.4296875 C-1.99672109 5.94242233 -1.2524801 3.2446138 0 0 Z " fill="#2B6D65" transform="translate(840,452)"/>
<path d="M0 0 C1.875 0.6875 1.875 0.6875 4 2 C4.70986946 3.64872908 5.36971413 5.31923769 6 7 C6.85726979 8.77948425 7.7322722 10.55053724 8.625 12.3125 C9.07101562 13.19550781 9.51703125 14.07851563 9.9765625 14.98828125 C10.31429687 15.65214844 10.65203125 16.31601562 11 17 C10.34 17.33 9.68 17.66 9 18 C7.68144905 15.75335738 6.37006028 13.50302694 5.0625 11.25 C4.68931641 10.61578125 4.31613281 9.9815625 3.93164062 9.328125 C2.14463236 6.23708368 0.75114727 3.48532332 0 0 Z " fill="#BFDDDB" transform="translate(809,306)"/>
<path d="M0 0 C4.72884613 4.50493324 5.26521286 8.89629602 5.625 15.3125 C5.69976563 16.56675781 5.77453125 17.82101562 5.8515625 19.11328125 C5.90054688 20.06589844 5.94953125 21.01851562 6 22 C4.51336017 19.24454302 3.5849771 16.72989312 2.9296875 13.671875 C2.66865234 12.47304688 2.66865234 12.47304688 2.40234375 11.25 C2.22832031 10.425 2.05429687 9.6 1.875 8.75 C1.69324219 7.90953125 1.51148438 7.0690625 1.32421875 6.203125 C0.87800459 4.13644889 0.43835555 2.06835723 0 0 Z " fill="#CFEBE0" transform="translate(530,524)"/>
<path d="M0 0 C2.0207476 3.5363083 2.86712445 7.10205354 3.75 11.0625 C4.17539062 12.90521484 4.17539062 12.90521484 4.609375 14.78515625 C5 18 5 18 3 21 C2.2970379 18.62863429 1.61253255 16.25432265 0.9375 13.875 C0.63875977 12.87726562 0.63875977 12.87726562 0.33398438 11.859375 C-0.87241906 7.54172062 -1.0778919 4.35224278 0 0 Z " fill="#307266" transform="translate(526,510)"/>
<path d="M0 0 C2.80797075 2.53623164 4.52719059 4.18842875 5 8 C5.06548492 9.58211573 5.08578381 11.16670081 5.0625 12.75 C5.05347656 13.54921875 5.04445313 14.3484375 5.03515625 15.171875 C5.01775391 16.07679688 5.01775391 16.07679688 5 17 C2.215707 14.215707 2.05089931 11.113137 1.375 7.375 C1.2409375 6.66859375 1.106875 5.9621875 0.96875 5.234375 C0.63889975 3.49088082 0.31853944 1.74559611 0 0 Z " fill="#D6EFE2" transform="translate(445,460)"/>
<path d="M0 0 C6.5705166 -0.24794402 12.56971459 0.67611771 19 2 C19 2.33 19 2.66 19 3 C16.03 2.67 13.06 2.34 10 2 C10.33 2.99 10.66 3.98 11 5 C9.53932801 4.54917531 8.08151968 4.08906463 6.625 3.625 C5.81289063 3.36976563 5.00078125 3.11453125 4.1640625 2.8515625 C2 2 2 2 0 0 Z " fill="#DBF6DB" transform="translate(540,375)"/>
<path d="M0 0 C0.33 0 0.66 0 1 0 C1.32786812 6.77594113 0.7210808 12.70906089 -2 19 C-2.66 19.33 -3.32 19.66 -4 20 C-3.34034961 13.13963599 -1.7637236 6.65556077 0 0 Z " fill="#CDE8DC" transform="translate(656,539)"/>
<path d="M0 0 C0 0.33 0 0.66 0 1 C-0.97582031 1.12117188 -1.95164062 1.24234375 -2.95703125 1.3671875 C-4.22933594 1.53476562 -5.50164063 1.70234375 -6.8125 1.875 C-8.07707031 2.03742188 -9.34164062 2.19984375 -10.64453125 2.3671875 C-14.11699317 2.79568453 -14.11699317 2.79568453 -17 5 C-19.1875 4.625 -19.1875 4.625 -21 4 C-14.40125477 -1.02761541 -8.04872876 -0.40187827 0 0 Z " fill="#D0EDE0" transform="translate(637,508)"/>
<path d="M0 0 C0.66 0.99 1.32 1.98 2 3 C-2.95 9.93 -2.95 9.93 -8 17 C-8.33 15.68 -8.66 14.36 -9 13 C-8.01 12.67 -7.02 12.34 -6 12 C-5.63451555 10.67511887 -5.3062434 9.33981486 -5 8 C-3.5625 5.75 -3.5625 5.75 -2 4 C-1.34 4 -0.68 4 0 4 C0 2.68 0 1.36 0 0 Z " fill="#77AB7B" transform="translate(728,391)"/>
<path d="M0 0 C4.49108752 1.42860919 7.46169316 3.93077292 10.8125 7.125 C11.31458984 7.59292969 11.81667969 8.06085937 12.33398438 8.54296875 C13.56189455 9.68901825 14.78178215 10.84365311 16 12 C15.01 12.495 15.01 12.495 14 13 C7.91867132 10.90299011 3.92461946 4.82167534 0 0 Z " fill="#C6E3E0" transform="translate(489,581)"/>
<path d="M0 0 C0.50015625 0.15339844 1.0003125 0.30679688 1.515625 0.46484375 C4.90327766 1.19457396 8.29961519 1.36356477 11.75 1.5625 C12.44738281 1.60568359 13.14476562 1.64886719 13.86328125 1.69335938 C15.57531922 1.79889596 17.28763561 1.8998991 19 2 C15.67098317 4.21934455 14.51206363 4.27129898 10.625 4.25 C9.68914063 4.25515625 8.75328125 4.2603125 7.7890625 4.265625 C4.85670238 3.98635261 2.66595075 3.22149016 0 2 C0 1.34 0 0.68 0 0 Z " fill="#D4F0E7" transform="translate(619,561)"/>
<path d="M0 0 C-0.11493757 1.89646998 -0.24239642 3.79218332 -0.375 5.6875 C-0.44460938 6.74324219 -0.51421875 7.79898437 -0.5859375 8.88671875 C-0.98760089 11.90677269 -1.74069019 14.24078054 -3 17 C-3.33 17 -3.66 17 -4 17 C-4.11083416 11.56912592 -4.11115605 6.33354906 -3 1 C-1 0 -1 0 0 0 Z " fill="#246B5E" transform="translate(825,438)"/>
<path d="M0 0 C2.64304509 3.07871186 3.57141567 5.51605331 4.25 9.5 C4.42015625 10.4384375 4.5903125 11.376875 4.765625 12.34375 C4.99070129 14.89461464 4.79586168 16.58967605 4 19 C-0.59225513 6.51480638 -0.59225513 6.51480638 0 0 Z " fill="#26675D" transform="translate(425,465)"/>
<path d="M0 0 C0.66 0 1.32 0 2 0 C1.01 5.28 0.02 10.56 -1 16 C-1.33 16 -1.66 16 -2 16 C-2.91024678 10.46471552 -3.37531539 6.27847864 -1 1 C-0.67 0.67 -0.34 0.34 0 0 Z " fill="#357769" transform="translate(447,371)"/>
<path d="M0 0 C-5.22583202 4.35486002 -8.09012671 6.31408515 -15 6 C-10.40144929 2.28578596 -6.07508565 -0.53603697 0 0 Z " fill="#2C6E66" transform="translate(553,229)"/>
<path d="M0 0 C0.71484375 1.765625 0.71484375 1.765625 1 4 C-0.43359375 5.921875 -0.43359375 5.921875 -2.4375 7.75 C-3.09621094 8.36359375 -3.75492188 8.9771875 -4.43359375 9.609375 C-5.20896484 10.29773438 -5.20896484 10.29773438 -6 11 C-6.66 10.67 -7.32 10.34 -8 10 C-6.512 5.288 -6.512 5.288 -4 3.875 C-3.34 3.58625 -2.68 3.2975 -2 3 C-1.34 2.01 -0.68 1.02 0 0 Z " fill="#32746D" transform="translate(785,566)"/>
<path d="M0 0 C5.28 0 10.56 0 16 0 C16 1.65 16 3.3 16 5 C15.67 4.01 15.34 3.02 15 2 C13.2507786 1.91857073 11.50045458 1.86061459 9.75 1.8125 C8.77546875 1.77769531 7.8009375 1.74289062 6.796875 1.70703125 C3.62531258 2.03924798 2.32959693 2.88672279 0 5 C0 3.35 0 1.7 0 0 Z " fill="#E7FCF7" transform="translate(664,509)"/>
<path d="M0 0 C3.92488093 3.70060202 7.02215543 7.4906925 10 12 C10 12.66 10 13.32 10 14 C8 14 8 14 6.5625 12.71484375 C2.92689553 8.57934366 1.10303311 5.40486223 0 0 Z " fill="#2F7169" transform="translate(799,295)"/>
<path d="M0 0 C5.24972347 4.10037573 9.20962911 8.52964787 13 14 C12.01 14 11.02 14 10 14 C9.5978125 13.0409375 9.5978125 13.0409375 9.1875 12.0625 C8.11332248 9.66868314 8.11332248 9.66868314 5 9 C4.67 8.01 4.34 7.02 4 6 C3.319375 5.319375 2.63875 4.63875 1.9375 3.9375 C1.298125 3.298125 0.65875 2.65875 0 2 C0 1.34 0 0.68 0 0 Z " fill="#2D6861" transform="translate(785,279)"/>
<path d="M0 0 C4.11743801 0.0761207 7.99724015 0.19447427 12.01171875 1.23046875 C8.27205911 3.72357518 6.72101234 3.29079485 2.32421875 2.85546875 C1.14472656 2.74460938 -0.03476562 2.63375 -1.25 2.51953125 C-2.15363281 2.42414063 -3.05726563 2.32875 -3.98828125 2.23046875 C-1.98828125 0.23046875 -1.98828125 0.23046875 0 0 Z " fill="#33756D" transform="translate(649.98828125,212.76953125)"/>
<path d="M0 0 C0.66 0.66 1.32 1.32 2 2 C0.4176994 2.33820166 -1.16589375 2.67035939 -2.75 3 C-4.07257812 3.2784375 -4.07257812 3.2784375 -5.421875 3.5625 C-8 4 -8 4 -12 4 C-12 3.34 -12 2.68 -12 2 C-7.88581814 0.00524516 -4.55244646 -0.34358086 0 0 Z " fill="#30736A" transform="translate(679,629)"/>
<path d="M0 0 C0.66 0.66 1.32 1.32 2 2 C-0.97 5.63 -3.94 9.26 -7 13 C-7.33 12.34 -7.66 11.68 -8 11 C-6.85539001 9.35331565 -5.70927742 7.70767566 -4.5625 6.0625 C-3.92441406 5.14597656 -3.28632813 4.22945313 -2.62890625 3.28515625 C-1 1 -1 1 0 0 Z " fill="#22665D" transform="translate(463,297)"/>
<path d="M0 0 C0.33 0.99 0.66 1.98 1 3 C-5.625 6.875 -5.625 6.875 -9 8 C-9.66 7.34 -10.32 6.68 -11 6 C-7.37 4.02 -3.74 2.04 0 0 Z " fill="#BDDBD8" transform="translate(741,605)"/>
<path d="M0 0 C3.625 -0.1875 3.625 -0.1875 7 0 C8.76462683 3.08809695 9 4.23312136 9 8 C8.34 8 7.68 8 7 8 C6.34 6.35 5.68 4.7 5 3 C2.69 3 0.38 3 -2 3 C-1.34 2.01 -0.68 1.02 0 0 Z " fill="#508277" transform="translate(627,518)"/>
<path d="M0 0 C2.75931468 1.37965734 3.29421134 3.08580615 4.6875 5.8125 C5.14511719 6.68519531 5.60273437 7.55789063 6.07421875 8.45703125 C7.07566569 11.2078412 7.03274898 12.31485266 6 15 C4.98965502 13.25595212 3.99207578 11.50450439 3 9.75 C2.1646875 8.28820312 2.1646875 8.28820312 1.3125 6.796875 C0 4 0 4 0 0 Z " fill="#246055" transform="translate(715,513)"/>
<path d="M0 0 C0.33 0 0.66 0 1 0 C1.85637238 2.92593895 2.38673104 5.08174288 1.17578125 7.95703125 C0.17852152 9.67511732 -0.90572915 11.34201387 -2 13 C-2.66 12.67 -3.32 12.34 -4 12 C-3.52309796 10.37433394 -3.04340334 8.74948689 -2.5625 7.125 C-2.29566406 6.22007812 -2.02882813 5.31515625 -1.75390625 4.3828125 C-1 2 -1 2 0 0 Z " fill="#D4EDDF" transform="translate(455,353)"/>
<path d="M0 0 C0.99 0.33 1.98 0.66 3 1 C1.71372289 2.17260611 0.42080217 3.3379283 -0.875 4.5 C-1.59429688 5.1496875 -2.31359375 5.799375 -3.0546875 6.46875 C-5 8 -5 8 -7 8 C-6.875 6.25 -6.875 6.25 -6 4 C-3.125 1.6875 -3.125 1.6875 0 0 Z " fill="#21655F" transform="translate(522,243)"/>
<path d="M0 0 C3.21764451 4.82646677 4.36261136 10.19821824 4 16 C1.33951455 13.33951455 1.13398293 11.08809 0.3125 7.4375 C0.04050781 6.26058594 -0.23148438 5.08367188 -0.51171875 3.87109375 C-0.67285156 2.92363281 -0.83398438 1.97617187 -1 1 C-0.67 0.67 -0.34 0.34 0 0 Z " fill="#236356" transform="translate(688,534)"/>
<path d="M0 0 C0.66 0 1.32 0 2 0 C2 2.97 2 5.94 2 9 C0.68 9 -0.64 9 -2 9 C-2.20140476 5.37471432 -1.85776765 3.13498292 0 0 Z " fill="#1F695C" transform="translate(671,532)"/>
<path d="M0 0 C2 2 2 2 2.125 4.625 C2.08375 5.40875 2.0425 6.1925 2 7 C-0.52475462 8.26237731 -2.31200466 8.09856404 -5.125 8.0625 C-6.03507813 8.05347656 -6.94515625 8.04445313 -7.8828125 8.03515625 C-8.58148437 8.02355469 -9.28015625 8.01195312 -10 8 C-10 7.67 -10 7.34 -10 7 C-5.545 6.505 -5.545 6.505 -1 6 C-0.67 4.02 -0.34 2.04 0 0 Z " fill="#DBF4EC" transform="translate(646,518)"/>
<path d="M0 0 C1.9451 2.91765 2.45276317 4.62537285 3 8 C-0.91211733 6.84414715 -3.8745041 5.64465038 -7 3 C-6.21625 3.061875 -5.4325 3.12375 -4.625 3.1875 C-3.75875 3.125625 -2.8925 3.06375 -2 3 C-1.34 2.01 -0.68 1.02 0 0 Z " fill="#80AB81" transform="translate(604,444)"/>
<path d="M0 0 C0.66 0.33 1.32 0.66 2 1 C-1.96 6.94 -1.96 6.94 -6 13 C-7 10 -7 10 -6.07421875 7.7734375 C-5.61660156 6.98195313 -5.15898437 6.19046875 -4.6875 5.375 C-4.23761719 4.57835937 -3.78773438 3.78171875 -3.32421875 2.9609375 C-2 1 -2 1 0 0 Z " fill="#BADAD8" transform="translate(459,299)"/>
<path d="M0 0 C0.33 0 0.66 0 1 0 C1 3.3 1 6.6 1 10 C-2.63 10 -6.26 10 -10 10 C-10 9.67 -10 9.34 -10 9 C-5.545 8.505 -5.545 8.505 -1 8 C-0.67 5.36 -0.34 2.72 0 0 Z " fill="#DAF9EC" transform="translate(605,509)"/>
<path d="M0 0 C5.60120371 2.04471126 10.56677932 3.86232737 15 8 C13.68 8 12.36 8 11 8 C11 7.34 11 6.68 11 6 C9.741875 5.71125 8.48375 5.4225 7.1875 5.125 C4.1460601 4.42696461 2.69330122 3.79553415 0 2 C0 1.34 0 0.68 0 0 Z " fill="#78AC7D" transform="translate(543,377)"/>
<path d="M0 0 C1.46300982 0.93018526 2.92025579 1.86944027 4.375 2.8125 C5.18710937 3.33457031 5.99921875 3.85664063 6.8359375 4.39453125 C9 6 9 6 11 9 C8.13275314 8.42655063 7.1385485 8.1385485 5 6 C2.93125966 5.3574765 2.93125966 5.3574765 1 5 C0.67 3.35 0.34 1.7 0 0 Z " fill="#DDF5E9" transform="translate(743,270)"/>
<path d="M0 0 C5.05255964 0.63156995 9.29593201 2.13459373 14 4 C12.328125 5.1484375 12.328125 5.1484375 10 6 C7.421875 5.1015625 7.421875 5.1015625 4.75 3.625 C3.85796875 3.14289062 2.9659375 2.66078125 2.046875 2.1640625 C1.37140625 1.77992188 0.6959375 1.39578125 0 1 C0 0.67 0 0.34 0 0 Z " fill="#296C63" transform="translate(538,613)"/>
<path d="M0 0 C0.66 0.33 1.32 0.66 2 1 C-1.3 4.3 -4.6 7.6 -8 11 C-8.66 10.34 -9.32 9.68 -10 9 C-7.85177953 5.7776693 -6.2725249 4.91562433 -3 3 C-1.24850835 1.41754725 -1.24850835 1.41754725 0 0 Z " fill="#296862" transform="translate(776,576)"/>
<path d="M0 0 C0.33 0 0.66 0 1 0 C1 5.61 1 11.22 1 17 C-0.32 16.34 -1.64 15.68 -3 15 C-3 13.35 -3 11.7 -3 10 C-2.67 10.99 -2.34 11.98 -2 13 C-1.34 13 -0.68 13 0 13 C0 8.71 0 4.42 0 0 Z " fill="#1F665B" transform="translate(697,547)"/>
<path d="M0 0 C0.66 0.33 1.32 0.66 2 1 C1.67 4.3 1.34 7.6 1 11 C0.34 11 -0.32 11 -1 11 C-1.33 7.7 -1.66 4.4 -2 1 C-1.34 0.67 -0.68 0.34 0 0 Z " fill="#487166" transform="translate(548,537)"/>
<path d="M0 0 C0.33 0 0.66 0 1 0 C1.27429625 5.39449293 1.36055646 8.51925805 -2 13 C-2.66 12.67 -3.32 12.34 -4 12 C-2.66666667 8 -1.33333333 4 0 0 Z " fill="#C0DDDA" transform="translate(831,495)"/>
<path d="M0 0 C0.33 0 0.66 0 1 0 C1 2.97 1 5.94 1 9 C0.01 9.495 0.01 9.495 -1 10 C-2.125 7.1875 -2.125 7.1875 -3 4 C-1 1 -1 1 0 0 Z " fill="#316F65" transform="translate(724,524)"/>
<path d="M0 0 C0.66 0.33 1.32 0.66 2 1 C2.40961596 3.32115711 2.73128549 5.65834501 3 8 C3.3403125 9.6396875 3.3403125 9.6396875 3.6875 11.3125 C3.790625 12.199375 3.89375 13.08625 4 14 C3.34 14.66 2.68 15.32 2 16 C1.47090114 13.71022755 0.95194981 11.41810812 0.4375 9.125 C0.14746094 7.84882812 -0.14257812 6.57265625 -0.44140625 5.2578125 C-1 2 -1 2 0 0 Z " fill="#2C7064" transform="translate(683,515)"/>
<path d="M0 0 C2.1926135 4.2186994 4.36894477 8.60185899 3.625 13.4375 C3.41875 13.953125 3.2125 14.46875 3 15 C3 14.01 3 13.02 3 12 C2.34 12 1.68 12 1 12 C0.03929566 9.11788698 -0.10581883 7.30149956 -0.0625 4.3125 C-0.05347656 3.50425781 -0.04445313 2.69601562 -0.03515625 1.86328125 C-0.02355469 1.24839844 -0.01195312 0.63351562 0 0 Z " fill="#CFE9E1" transform="translate(681,515)"/>
<path d="M0 0 C0 0.66 0 1.32 0 2 C-1.57725347 2.70133599 -3.16211333 3.385583 -4.75 4.0625 C-5.63171875 4.44535156 -6.5134375 4.82820313 -7.421875 5.22265625 C-10.15256309 6.04600008 -11.36901347 5.9773992 -14 5 C-12.04350603 4.16235732 -10.08474444 3.33000941 -8.125 2.5 C-6.48917969 1.80390625 -6.48917969 1.80390625 -4.8203125 1.09375 C-2 0 -2 0 0 0 Z " fill="#7FAF82" transform="translate(663,317)"/>
<path d="M0 0 C-3.00617269 3.00617269 -5.82381598 2.59585316 -10 3 C-10 2.01 -10 1.02 -10 0 C-6.30581799 -1.231394 -3.7943739 -0.64432764 0 0 Z " fill="#276B5E" transform="translate(600,235)"/>
<path d="M0 0 C1.3950848 2.29778673 2.07438619 3.4792967 1.6875 6.1875 C1 8 1 8 0 9 C-2.33297433 9.04092937 -4.66705225 9.04241723 -7 9 C-7.66 7.68 -8.32 6.36 -9 5 C-7.515 5.99 -7.515 5.99 -6 7 C-4.34450469 7.38499891 -2.6777567 7.72793135 -1 8 C-0.67 5.36 -0.34 2.72 0 0 Z " fill="#2B6559" transform="translate(634,545)"/>
<path d="M0 0 C2.30143236 3.45214853 2.13833854 4.23479324 1.625 8.1875 C1.51414062 9.08855469 1.40328125 9.98960937 1.2890625 10.91796875 C1.19367187 11.60503906 1.09828125 12.29210937 1 13 C0.34 12.67 -0.32 12.34 -1 12 C-1.02687279 10.18757948 -1.04633715 8.37504767 -1.0625 6.5625 C-1.07410156 5.55316406 -1.08570313 4.54382813 -1.09765625 3.50390625 C-1 1 -1 1 0 0 Z " fill="#F0FFF9" transform="translate(700,516)"/>
<path d="M0 0 C2.68129591 2.68129591 3.00022903 4.00354998 3.25 7.875 C3.12142196 11.30803365 2.67429878 14.62850608 2 18 C1.67 18 1.34 18 1 18 C1.01160156 17.28972656 1.02320313 16.57945312 1.03515625 15.84765625 C1.04417969 14.92855469 1.05320312 14.00945312 1.0625 13.0625 C1.07990234 11.68771484 1.07990234 11.68771484 1.09765625 10.28515625 C1.25949049 8.03406673 1.25949049 8.03406673 0 7 C-0.04092937 4.66702567 -0.04241723 2.33294775 0 0 Z " fill="#155E56" transform="translate(421,434)"/>
<path d="M0 0 C1.16691444 3.48419134 0.85285758 6.10222787 0.1875 9.6875 C0.01605469 10.66074219 -0.15539062 11.63398438 -0.33203125 12.63671875 C-0.55246094 13.41660156 -0.77289063 14.19648438 -1 15 C-1.99 15.495 -1.99 15.495 -3 16 C-2.52013969 10.43109483 -1.70084819 5.32932432 0 0 Z " fill="#C8E5DA" transform="translate(450,366)"/>
<path d="M0 0 C2 1 2 1 2.8515625 2.99609375 C3.10679687 3.80175781 3.36203125 4.60742188 3.625 5.4375 C3.88539063 6.24058594 4.14578125 7.04367187 4.4140625 7.87109375 C5 10 5 10 5 12 C4.34 12 3.68 12 3 12 C1.68 8.37 0.36 4.74 -1 1 C-0.67 0.67 -0.34 0.34 0 0 Z " fill="#76AC7C" transform="translate(509,361)"/>
<path d="M0 0 C-3.3 2.64 -6.6 5.28 -10 8 C-10.33 7.01 -10.66 6.02 -11 5 C-4.83050847 -1.61016949 -4.83050847 -1.61016949 0 0 Z " fill="#E2F8DC" transform="translate(683,360)"/>
<path d="M0 0 C0.33 0.99 0.66 1.98 1 3 C-1.04074305 6.57130033 -2.55753136 8.7050209 -6 11 C-6 7.39426104 -5.18292538 6.58663434 -3 3.8125 C-2.443125 3.09707031 -1.88625 2.38164062 -1.3125 1.64453125 C-0.879375 1.10183594 -0.44625 0.55914062 0 0 Z " fill="#30726A" transform="translate(470,287)"/>
<path d="M0 0 C0 0.66 0 1.32 0 2 C-3.82320557 3.42258812 -6.91281305 4.24042276 -11 4 C-11 3.34 -11 2.68 -11 2 C-3.375 0 -3.375 0 0 0 Z " fill="#B5D6D3" transform="translate(694,627)"/>
<path d="M0 0 C0.99 0.33 1.98 0.66 3 1 C0.03 4.96 0.03 4.96 -3 9 C-3.66 8.01 -4.32 7.02 -5 6 C-4.34 5.01 -3.68 4.02 -3 3 C-2.34 3 -1.68 3 -1 3 C-0.67 2.01 -0.34 1.02 0 0 Z " fill="#2A6B64" transform="translate(800,548)"/>
<path d="M0 0 C2.23381953 4.08312914 2.70122081 7.36892261 3 12 C2.34 12.66 1.68 13.32 1 14 C0.06380187 10.84493858 -0.1057123 8.03413498 -0.0625 4.75 C-0.05347656 3.85796875 -0.04445313 2.9659375 -0.03515625 2.046875 C-0.02355469 1.37140625 -0.01195312 0.6959375 0 0 Z " fill="#CDE9DD" transform="translate(815,372)"/>
<path d="M0 0 C0.66 0.99 1.32 1.98 2 3 C0.35 6.3 -1.3 9.6 -3 13 C-3.66 13 -4.32 13 -5 13 C-4.54554036 11.58208592 -4.08625056 10.16571954 -3.625 8.75 C-3.24214844 7.56664062 -3.24214844 7.56664062 -2.8515625 6.359375 C-2.04826333 4.13372042 -1.10288338 2.09068328 0 0 Z " fill="#7CAD7F" transform="translate(622,349)"/>
<path d="M0 0 C4.96916636 0.51405169 9.29026351 1.23384882 14 3 C14 3.66 14 4.32 14 5 C8.94744036 4.36843005 4.70406799 2.86540627 0 1 C0 0.67 0 0.34 0 0 Z " fill="#BBDAD8" transform="translate(697,222)"/>
<path d="M0 0 C0 3 0 3 -2.25 5.75 C-3.1575 6.4925 -4.065 7.235 -5 8 C-6.32 7.67 -7.64 7.34 -9 7 C-6.03 4.69 -3.06 2.38 0 0 Z " fill="#C1DEDB" transform="translate(769,585)"/>
<path d="M0 0 C3.44216672 2.6598561 3.99504674 5.90288286 5 10 C4.34 10 3.68 10 3 10 C3 9.34 3 8.68 3 8 C2.34 8 1.68 8 1 8 C0.67 5.36 0.34 2.72 0 0 Z " fill="#396A5F" transform="translate(711,533)"/>
<path d="M0 0 C1.90401138 1.90401138 2.93520439 3.33425686 3.19921875 6.046875 C3.1886578 8.03233273 3.09915043 10.0169914 3 12 C1 11 1 11 0 8 C-0.12781786 5.32605036 -0.04391871 2.67904143 0 0 Z " fill="#E5F8EF" transform="translate(444,449)"/>
<path d="M0 0 C0.99 0.33 1.98 0.66 3 1 C0.69 3.97 -1.62 6.94 -4 10 C-5 7 -5 7 -4.0625 4.8125 C-3.711875 4.214375 -3.36125 3.61625 -3 3 C-2.34 3 -1.68 3 -1 3 C-0.67 2.01 -0.34 1.02 0 0 Z " fill="#7DAE80" transform="translate(632,380)"/>
<path d="M0 0 C0.33 0 0.66 0 1 0 C1 1.65 1 3.3 1 5 C0.34 5 -0.32 5 -1 5 C-1 5.99 -1 6.98 -1 8 C-2.98 8.33 -4.96 8.66 -7 9 C-6.57847656 8.51789062 -6.15695312 8.03578125 -5.72265625 7.5390625 C-5.17480469 6.90742187 -4.62695312 6.27578125 -4.0625 5.625 C-3.51722656 4.99851562 -2.97195313 4.37203125 -2.41015625 3.7265625 C-0.93041376 2.04367666 -0.93041376 2.04367666 0 0 Z " fill="#2D6F61" transform="translate(647,554)"/>
<path d="M0 0 C3.3 0 6.6 0 10 0 C7.08235 1.9451 5.37462715 2.45276317 2 3 C1.67 4.65 1.34 6.3 1 8 C0.67 8 0.34 8 0 8 C0 5.36 0 2.72 0 0 Z " fill="#EFFEFB" transform="translate(557,509)"/>
<path d="M0 0 C0.66 0.33 1.32 0.66 2 1 C-0.64 4.3 -3.28 7.6 -6 11 C-6.33 10.01 -6.66 9.02 -7 8 C-5.56640625 5.95703125 -5.56640625 5.95703125 -3.5625 3.8125 C-2.90378906 3.09707031 -2.24507812 2.38164062 -1.56640625 1.64453125 C-1.04949219 1.10183594 -0.53257812 0.55914062 0 0 Z " fill="#E5FADF" transform="translate(655,382)"/>
<path d="M0 0 C2.12508244 3.18762365 2.5020163 5.26512223 3 9 C2.01 9 1.02 9 0 9 C-0.66 6.69 -1.32 4.38 -2 2 C-1.34 2 -0.68 2 0 2 C0 1.34 0 0.68 0 0 Z " fill="#33726A" transform="translate(833,358)"/>
<path d="M0 0 C0.33 0.99 0.66 1.98 1 3 C0.67 3.66 0.34 4.32 0 5 C-0.66 5 -1.32 5 -2 5 C-2.66 6.32 -3.32 7.64 -4 9 C-4.99 9 -5.98 9 -7 9 C-4.69 6.03 -2.38 3.06 0 0 Z " fill="#7CAC7E" transform="translate(633,334)"/>
<path d="M0 0 C0.93423645 3.01031744 1.04449911 3.86650268 0 7 C-0.66 7 -1.32 7 -2 7 C-1.67 7.99 -1.34 8.98 -1 10 C-1.99 10.33 -2.98 10.66 -4 11 C-3.39301257 6.87248551 -1.96189209 3.6678852 0 0 Z " fill="#286B63" transform="translate(445,324)"/>
<path d="M0 0 C-0.66 2.64 -1.32 5.28 -2 8 C-2.66 8 -3.32 8 -4 8 C-4.33 7.01 -4.66 6.02 -5 5 C-5.33 4.34 -5.66 3.68 -6 3 C-2.25 0 -2.25 0 0 0 Z " fill="#82A882" transform="translate(761,306)"/>
<path d="M0 0 C2.25 0.125 2.25 0.125 5 1 C7.3125 4.0625 7.3125 4.0625 9 7 C6 7 6 7 4.39453125 5.46875 C3.87246094 4.8190625 3.35039063 4.169375 2.8125 3.5 C2.28269531 2.8503125 1.75289062 2.200625 1.20703125 1.53125 C0.80871094 1.0259375 0.41039062 0.520625 0 0 Z " fill="#437E72" transform="translate(763,286)"/>
<path d="M0 0 C0.33 1.32 0.66 2.64 1 4 C-0.1875 5.8125 -0.1875 5.8125 -2 7 C-3.32 6.67 -4.64 6.34 -6 6 C-4.02 4.02 -2.04 2.04 0 0 Z " fill="#34726C" transform="translate(485,271)"/>
<path d="M0 0 C0.59296875 0.21269531 1.1859375 0.42539063 1.796875 0.64453125 C0.50970853 1.65031714 -0.78301158 2.64899923 -2.078125 3.64453125 C-3.15707031 4.47984375 -3.15707031 4.47984375 -4.2578125 5.33203125 C-6.203125 6.64453125 -6.203125 6.64453125 -8.203125 6.64453125 C-8.203125 5.98453125 -8.203125 5.32453125 -8.203125 4.64453125 C-2.96161877 -0.47784984 -2.96161877 -0.47784984 0 0 Z " fill="#BFDCDB" transform="translate(512.203125,248.35546875)"/>
<path d="M0 0 C1.67056149 0.31323028 3.33605325 0.65334443 5 1 C7.99558991 1.37633039 10.9966347 1.69246586 14 2 C14 2.33 14 2.66 14 3 C12.25034642 3.05429959 10.50020213 3.09292823 8.75 3.125 C7.77546875 3.14820313 6.8009375 3.17140625 5.796875 3.1953125 C2.9803502 2.99862781 1.39050964 2.44568916 -1 1 C-0.67 0.67 -0.34 0.34 0 0 Z " fill="#2C726A" transform="translate(633,633)"/>
<path d="M0 0 C-5.17578125 3.22265625 -5.17578125 3.22265625 -7 4 C-7.99 3.67 -8.98 3.34 -10 3 C-9 1 -9 1 -6.6875 -0.1875 C-3.88010429 -1.03624754 -2.698065 -0.99928333 0 0 Z " fill="#20665C" transform="translate(737,608)"/>
<path d="M0 0 C4.12751449 0.60698743 7.3321148 2.03810791 11 4 C7.01178789 5.32940404 4.88269755 4.43803613 1 3 C0.67 2.01 0.34 1.02 0 0 Z " fill="#7BAF7E" transform="translate(574,357)"/>
<path d="M0 0 C2.91227269 3.28804981 4.49701212 5.59885603 5 10 C4.01 10 3.02 10 2 10 C1 7 1 7 2 4 C1.34 4 0.68 4 0 4 C0 2.68 0 1.36 0 0 Z " fill="#D5EFE1" transform="translate(799,334)"/>
<path d="M0 0 C3.98381075 2.16264012 6.88983545 4.71211176 10 8 C9.01 8.33 8.02 8.66 7 9 C7 8.01 7 7.02 7 6 C6.401875 5.896875 5.80375 5.79375 5.1875 5.6875 C2.68741714 4.90175967 1.62464918 4.03081147 0 2 C0 1.34 0 0.68 0 0 Z " fill="#286660" transform="translate(761,257)"/>
<path d="M0 0 C3.43595166 1.52708963 6.11912454 3.59927045 9 6 C8.01 6.495 8.01 6.495 7 7 C4.8359375 6.00390625 4.8359375 6.00390625 2.375 4.5625 C1.55773437 4.08941406 0.74046875 3.61632812 -0.1015625 3.12890625 C-0.72804688 2.75636719 -1.35453125 2.38382812 -2 2 C-1.34 1.34 -0.68 0.68 0 0 Z " fill="#337366" transform="translate(722,254)"/>
<path d="M0 0 C0.66 0.66 1.32 1.32 2 2 C1.625 5.625 1.625 5.625 1 9 C0.34 9 -0.32 9 -1 9 C-1.80967438 6.08517222 -2.21845993 4.53886783 -1.0625 1.6875 C-0.711875 1.130625 -0.36125 0.57375 0 0 Z " fill="#2D695E" transform="translate(661,512)"/>
<path d="M0 0 C2 1 2 1 3.125 4.0625 C3.41375 5.031875 3.7025 6.00125 4 7 C4.66 7 5.32 7 6 7 C6 7.99 6 8.98 6 10 C3 9 3 9 1.3125 6.125 C0 3 0 3 0 0 Z " fill="#23655E" transform="translate(439,509)"/>
<path d="M0 0 C0.33 0.66 0.66 1.32 1 2 C-2.25 8.5 -2.25 8.5 -6 11 C-4.54955729 6.89041233 -2.48889248 3.56741255 0 0 Z " fill="#E5F9DE" transform="translate(630,386)"/>
<path d="M0 0 C2.625 0.375 2.625 0.375 5 1 C5.33 2.32 5.66 3.64 6 5 C3.36 4.01 0.72 3.02 -2 2 C-1.34 1.34 -0.68 0.68 0 0 Z " fill="#7BAF80" transform="translate(568,379)"/>
<path d="M0 0 C2.49505962 2.49505962 2.35948376 3.67328888 2.625 7.125 C2.69976563 8.03507812 2.77453125 8.94515625 2.8515625 9.8828125 C2.92503906 10.93082031 2.92503906 10.93082031 3 12 C2.54173828 11.071875 2.54173828 11.071875 2.07421875 10.125 C1.36676694 8.72553168 0.61308592 7.34835523 -0.1875 6 C-1.17413108 3.57136965 -0.86626039 2.42552909 0 0 Z " fill="#23645B" transform="translate(835,367)"/>
<path d="M0 0 C-2.38573379 1.89213369 -4.07175348 3.02391783 -7 4 C-7 3.34 -7 2.68 -7 2 C-8.65 2 -10.3 2 -12 2 C-12 1.67 -12 1.34 -12 1 C-7.93631321 0.22596442 -4.13574827 -0.0984702 0 0 Z " fill="#CDEFCF" transform="translate(713,342)"/>
<path d="M0 0 C0.99 0.33 1.98 0.66 3 1 C1.68 3.64 0.36 6.28 -1 9 C-1.33 9 -1.66 9 -2 9 C-2.25 3.375 -2.25 3.375 0 0 Z " fill="#BDD9D7" transform="translate(449,312)"/>
<path d="M0 0 C0.33 0.99 0.66 1.98 1 3 C-1.97 5.475 -1.97 5.475 -5 8 C-5.66 7.67 -6.32 7.34 -7 7 C-4.69 4.69 -2.38 2.38 0 0 Z " fill="#DDF7EA" transform="translate(498,289)"/>
<path d="M0 0 C0.99 0.33 1.98 0.66 3 1 C3 1.66 3 2.32 3 3 C3.99 3 4.98 3 6 3 C6 3.66 6 4.32 6 5 C3.03 4.01 0.06 3.02 -3 2 C-2.01 1.34 -1.02 0.68 0 0 Z " fill="#2E6F68" transform="translate(554,618)"/>
<path d="M0 0 C0.66 0 1.32 0 2 0 C3.2380014 3.57644848 2.74926071 6.33694766 2 10 C1.67 10 1.34 10 1 10 C0.67 6.7 0.34 3.4 0 0 Z " fill="#2F7165" transform="translate(540,509)"/>
<path d="M0 0 C2.39763185 2.39763185 2.34280586 3.33273498 2.625 6.625 C2.69976562 7.44226563 2.77453125 8.25953125 2.8515625 9.1015625 C2.90054687 9.72804688 2.94953125 10.35453125 3 11 C0.81024227 7.71536341 0.00193437 4.79303725 -1 1 C-0.67 0.67 -0.34 0.34 0 0 Z " fill="#2D7167" transform="translate(433,492)"/>
<path d="M0 0 C0.66 0.99 1.32 1.98 2 3 C0.84826645 5.46800047 -0.04783565 7.04783565 -2 9 C-1.125 1.125 -1.125 1.125 0 0 Z " fill="#256861" transform="translate(431,358)"/>
<path d="M0 0 C1.45823212 -0.0270043 2.91660675 -0.04639787 4.375 -0.0625 C5.18710937 -0.07410156 5.99921875 -0.08570313 6.8359375 -0.09765625 C9 0 9 0 11 1 C11 1.66 11 2.32 11 3 C7.37 2.67 3.74 2.34 0 2 C0 1.34 0 0.68 0 0 Z " fill="#D4ECCC" transform="translate(502,350)"/>
<path d="M0 0 C2.6855594 2.6855594 3.06049974 5.37621328 4 9 C3.01 9.495 3.01 9.495 2 10 C-1.07692308 4.58461538 -1.07692308 4.58461538 -0.6875 1.625 C-0.460625 1.08875 -0.23375 0.5525 0 0 Z " fill="#37746C" transform="translate(826,340)"/>
<path d="M0 0 C0.66 0 1.32 0 2 0 C1.45276317 3.37462715 0.9451 5.08235 -1 8 C-1.625 5.6875 -1.625 5.6875 -2 3 C-1.34 2.01 -0.68 1.02 0 0 Z " fill="#286B5F" transform="translate(456,345)"/>
<path d="M0 0 C0.66 0 1.32 0 2 0 C2.66 2.31 3.32 4.62 4 7 C3.01 7.33 2.02 7.66 1 8 C0.67 5.36 0.34 2.72 0 0 Z " fill="#31726B" transform="translate(822,333)"/>
<path d="M0 0 C0.33 1.32 0.66 2.64 1 4 C-3.625 6.125 -3.625 6.125 -7 5 C-4.69 3.35 -2.38 1.7 0 0 Z " fill="#32736B" transform="translate(507,253)"/>
<path d="M0 0 C8.57142857 -0.28571429 8.57142857 -0.28571429 12 2 C7.48281619 3.36884358 4.41225737 2.47075246 0 1 C0 0.67 0 0.34 0 0 Z " fill="#417C71" transform="translate(682,240)"/>
<path d="M0 0 C0.99 0.33 1.98 0.66 3 1 C0.87219421 3.34058637 -1.11562221 4.70700306 -4 6 C-4.66 5.34 -5.32 4.68 -6 4 C-5.01 4 -4.02 4 -3 4 C-3 3.34 -3 2.68 -3 2 C-2.01 2 -1.02 2 0 2 C0 1.34 0 0.68 0 0 Z " fill="#286D64" transform="translate(741,602)"/>
<path d="M0 0 C0.33 1.32 0.66 2.64 1 4 C-2.75 7 -2.75 7 -5 7 C-5 5 -5 5 -2.5 2.375 C-1.675 1.59125 -0.85 0.8075 0 0 Z " fill="#E8FAF5" transform="translate(643,556)"/>
<path d="M0 0 C0.33 0 0.66 0 1 0 C1.66 3.3 2.32 6.6 3 10 C2.01 10.33 1.02 10.66 0 11 C0 7.37 0 3.74 0 0 Z " fill="#3A786D" transform="translate(610,547)"/>
<path d="M0 0 C0.33 0 0.66 0 1 0 C1 2.64 1 5.28 1 8 C0.01 8.33 -0.98 8.66 -2 9 C-1.34 6.03 -0.68 3.06 0 0 Z " fill="#417B6D" transform="translate(561,543)"/>
<path d="M0 0 C2.475 0.495 2.475 0.495 5 1 C5.33 3.31 5.66 5.62 6 8 C3.87961365 5.38485683 1.86908256 2.80362384 0 0 Z " fill="#357366" transform="translate(641,510)"/>
<path d="M0 0 C2.18975773 3.28463659 2.99806563 6.20696275 4 10 C3.01 10.495 3.01 10.495 2 11 C0.80712589 7.12315913 0 4.08378077 0 0 Z " fill="#84B18A" transform="translate(600,433)"/>
<path d="M0 0 C0.33 0.99 0.66 1.98 1 3 C-1.97 5.475 -1.97 5.475 -5 8 C-4.45773019 4.20411134 -2.79872437 2.52788007 0 0 Z " fill="#73A977" transform="translate(665,374)"/>
<path d="M0 0 C2.35448165 2.55068845 2.98327924 3.71017358 3.1875 7.25 C3.125625 8.1575 3.06375 9.065 3 10 C0.3144406 7.3144406 -0.06049974 4.62378672 -1 1 C-0.67 0.67 -0.34 0.34 0 0 Z " fill="#337065" transform="translate(809,350)"/>
<path d="M0 0 C1.98 0.99 1.98 0.99 4 2 C4 2.66 4 3.32 4 4 C4.66 4.33 5.32 4.66 6 5 C5.67 5.99 5.34 6.98 5 8 C2.74754119 5.31158141 1.11786042 3.35358125 0 0 Z " fill="#327266" transform="translate(789,316)"/>
<path d="M0 0 C0.33 0.99 0.66 1.98 1 3 C0.01 4.485 0.01 4.485 -1 6 C-3.625 6.1875 -3.625 6.1875 -6 6 C-4 4 -2 2 0 0 Z " fill="#2D6F67" transform="translate(499,259)"/>
<path d="M0 0 C-1.75 3.875 -1.75 3.875 -4 5 C-6.125 4.0625 -6.125 4.0625 -8 3 C-2.25 0 -2.25 0 0 0 Z " fill="#DFF6EB" transform="translate(556,250)"/>
<path d="M0 0 C-2.97 0.66 -5.94 1.32 -9 2 C-8.67 1.01 -8.34 0.02 -8 -1 C-4.40321889 -2.61235015 -3.79177789 -1.89588895 0 0 Z " fill="#B2D1CF" transform="translate(571,222)"/>
<path d="M0 0 C2.97 0.33 5.94 0.66 9 1 C9 1.66 9 2.32 9 3 C5.85375007 3.26218749 4.38162983 3.24754367 1.6875 1.5 C1.130625 1.005 0.57375 0.51 0 0 Z " fill="#CFE6E5" transform="translate(587,632)"/>
<path d="M0 0 C3.96 1.98 3.96 1.98 8 4 C8 4.66 8 5.32 8 6 C4 6 4 6 1.75 4.125 C0 2 0 2 0 0 Z " fill="#B8D8D5" transform="translate(521,604)"/>
<path d="M0 0 C1.76462683 3.08809695 2 4.23312136 2 8 C1.34 8 0.68 8 0 8 C-0.38063221 5.6739143 -0.71269945 3.33944736 -1 1 C-0.67 0.67 -0.34 0.34 0 0 Z " fill="#267062" transform="translate(536,550)"/>
<path d="M0 0 C0.93065133 2.60582371 1.14917407 3.64198224 0.0625 6.25 C-0.4634375 7.11625 -0.4634375 7.11625 -1 8 C-1.99 7.67 -2.98 7.34 -4 7 C-2.68 4.69 -1.36 2.38 0 0 Z " fill="#BFDADA" transform="translate(815,529)"/>
<path d="M0 0 C0.66 0.33 1.32 0.66 2 1 C1.67 3.64 1.34 6.28 1 9 C0.34 8.34 -0.32 7.68 -1 7 C-0.625 3.375 -0.625 3.375 0 0 Z " fill="#366F65" transform="translate(551,524)"/>
<path d="M0 0 C0.33 0 0.66 0 1 0 C1 2.64 1 5.28 1 8 C0.01 8.33 -0.98 8.66 -2 9 C-1.34 6.03 -0.68 3.06 0 0 Z " fill="#7CAE7F" transform="translate(630,425)"/>
<path d="M0 0 C0.66 0 1.32 0 2 0 C1 3 1 3 -2.0625 4.6875 C-3.031875 5.120625 -4.00125 5.55375 -5 6 C-5.66 5.34 -6.32 4.68 -7 4 C-6.030625 3.525625 -5.06125 3.05125 -4.0625 2.5625 C-1.19522563 1.29806053 -1.19522563 1.29806053 0 0 Z " fill="#7DAE80" transform="translate(700,422)"/>
<path d="M0 0 C2 0 2 0 4.625 2.5 C5.40875 3.325 6.1925 4.15 7 5 C6.67 5.66 6.34 6.32 6 7 C3.69 5.35 1.38 3.7 -1 2 C-0.67 1.34 -0.34 0.68 0 0 Z " fill="#7AAC7E" transform="translate(576,383)"/>
<path d="M0 0 C-1 3 -1 3 -3.4375 4.25 C-6 5 -6 5 -8 4 C-2.25 0 -2.25 0 0 0 Z " fill="#E5F8E0" transform="translate(666,356)"/>
<path d="M0 0 C0.99 0.495 0.99 0.495 2 1 C2.73075648 3.3140622 3.40138258 5.64828869 4 8 C2.68 7.67 1.36 7.34 0 7 C0 4.69 0 2.38 0 0 Z " fill="#226A5E" transform="translate(812,356)"/>
<path d="M0 0 C-0.33 0.99 -0.66 1.98 -1 3 C-3.31 3.33 -5.62 3.66 -8 4 C-6.4425489 0.88509781 -3.40085499 0 0 0 Z " fill="#7DB181" transform="translate(711,344)"/>
</svg>
